<svg width="20" height="21" viewBox="0 0 20 21" fill="none" xmlns="http://www.w3.org/2000/svg">
<path d="M4.6738 4.65457L12.6468 2.47826L12.2246 1.62481C11.9484 1.07006 11.2746 0.840979 10.7198 1.11723L3.58228 4.65457H4.6738Z" fill="#2496FF"/>
<path d="M15.1216 2.54126C15.0228 2.54126 14.924 2.55474 14.8252 2.58169L12.9521 3.09376L7.23169 4.65468H13.7247H16.5545L16.2042 3.37001C16.0694 2.86917 15.6157 2.54126 15.1216 2.54126Z" fill="#2496FF"/>
<path d="M17.7249 5.44067H17.4688H17.1207H16.7726H14.1157H4.35261H3.07243H1.99439H1.7945H1.12521C0.770354 5.44067 0.453678 5.60463 0.247052 5.86291C0.152723 5.98194 0.0808535 6.11894 0.0404267 6.26942C0.0157215 6.36375 0 6.46257 0 6.56364V6.69839V7.97857V19.0757C0 19.6956 0.503088 20.1987 1.12296 20.1987H17.7226C18.3425 20.1987 18.8456 19.6956 18.8456 19.0757V15.9426H12.1819C11.1286 15.9426 10.2729 15.0869 10.2729 14.0336V13.005V12.6568V12.3087V11.5361C10.2729 11.0196 10.4795 10.5502 10.8142 10.2066C11.1106 9.90109 11.5081 9.69446 11.9528 9.64281C12.027 9.63385 12.1033 9.62933 12.1797 9.62933H17.9113H18.2594H18.6075H18.8456V6.56364C18.8478 5.94376 18.3448 5.44067 17.7249 5.44067Z" fill="#2496FF"/>
<path d="M19.6338 10.7029C19.5215 10.5996 19.389 10.521 19.2408 10.4693C19.1262 10.4312 19.0049 10.4087 18.8769 10.4087H18.8477H18.8253H18.4771H17.2217H12.1818C11.5619 10.4087 11.0588 10.9118 11.0588 11.5317V12.0909V12.439V12.7871V14.0314C11.0588 14.6512 11.5619 15.1543 12.1818 15.1543H18.8477H18.8769C19.0049 15.1543 19.1262 15.1319 19.2408 15.0937C19.389 15.0443 19.5215 14.9634 19.6338 14.8601C19.8584 14.6557 19.9999 14.3593 19.9999 14.0314V11.5317C19.9999 11.2037 19.8584 10.9072 19.6338 10.7029ZM14.5266 13.005C14.5266 13.3149 14.275 13.5664 13.9651 13.5664H13.5922C13.2823 13.5664 13.0308 13.3149 13.0308 13.005V12.6321C13.0308 12.4525 13.1139 12.293 13.2464 12.1919C13.3429 12.1178 13.462 12.0707 13.5922 12.0707H13.6866H13.9651C14.275 12.0707 14.5266 12.3222 14.5266 12.6321V13.005Z" fill="#2496FF"/>
</svg>
