<svg width="22" height="22" viewBox="0 0 22 22" fill="none" xmlns="http://www.w3.org/2000/svg">
<path d="M15.1397 2.05656C14.9593 2.05656 14.7763 2.06461 14.5907 2.08071C13.0174 2.22456 11.5428 2.90965 10.4182 4.01916C9.26234 5.17502 8.25576 7.0525 7.79092 8.91936C7.5503 9.88551 7.47145 10.8052 7.56284 11.5789C7.66167 12.4159 7.95205 13.0805 8.42566 13.5541C8.89926 14.0277 9.56381 14.318 10.4009 14.4169C11.1743 14.5083 12.0942 14.4295 13.0604 14.1888C14.9273 13.724 16.8049 12.7172 17.9606 11.5616C19.0701 10.437 19.7552 8.96232 19.8991 7.38907C20.0382 5.79205 19.5736 4.37142 18.591 3.38868C17.7225 2.52037 16.5118 2.05656 15.1397 2.05656Z" fill="#FFAC4A"/>
<path d="M8.51944 14.3982C8.12052 14.1409 7.7847 13.797 7.53692 13.3921L4.69668 16.2671C4.64355 16.3209 4.5721 16.3527 4.49656 16.3562C4.42103 16.3597 4.34695 16.3346 4.28908 16.2859C4.0313 16.0701 3.70152 15.9595 3.36575 15.9765C3.02997 15.9934 2.71298 16.1365 2.47821 16.3772C2.22163 16.6403 2.07791 16.9932 2.07764 17.3607C2.07736 17.7282 2.22056 18.0813 2.47675 18.3448C2.64317 18.5165 2.85293 18.6399 3.08381 18.7021C3.13522 18.716 3.18203 18.7432 3.21945 18.7811C3.25687 18.819 3.28356 18.8661 3.2968 18.9177C3.35724 19.152 3.47865 19.366 3.64867 19.5382C3.66376 19.5536 3.67729 19.5671 3.69121 19.5802C3.94649 19.8198 4.28551 19.9497 4.63553 19.9422C4.98555 19.9347 5.31868 19.7903 5.56345 19.54C5.80447 19.2947 5.94698 18.9694 5.96391 18.626C5.98084 18.2825 5.871 17.9448 5.65527 17.677C5.60893 17.6194 5.58538 17.5469 5.58912 17.4731C5.59285 17.3993 5.6236 17.3295 5.67551 17.2769L8.51944 14.3982Z" fill="#FFAC4A"/>
</svg>
