<svg width="20" height="21" viewBox="0 0 20 21" fill="none" xmlns="http://www.w3.org/2000/svg">
<path d="M19.5103 3.48951C19.1839 3.16316 18.7916 3 18.3334 3H1.66665C1.20833 3 0.816088 3.16312 0.489514 3.48951C0.163123 3.81594 0 4.20819 0 4.66654V17.333C0 17.7915 0.163123 18.1838 0.489514 18.5102C0.816088 18.8366 1.20833 18.9998 1.66665 18.9998H18.3334C18.7916 18.9998 19.1839 18.8366 19.5103 18.5102C19.8367 18.1838 20 17.7915 20 17.333V4.66654C20 4.20819 19.8367 3.81594 19.5103 3.48951ZM18.6665 17.3333C18.6665 17.4237 18.6336 17.5016 18.5676 17.5678C18.5017 17.6334 18.4235 17.6664 18.3334 17.6664H1.66665C1.57643 17.6664 1.49828 17.6334 1.43231 17.5675C1.36639 17.5014 1.33337 17.4234 1.33337 17.333V10.9999H18.6666V17.3333H18.6665ZM18.6665 6.99974H1.33333V4.6664C1.33333 4.57614 1.36624 4.49817 1.43228 4.43206C1.49828 4.36628 1.57643 4.33326 1.66662 4.33326H18.3333C18.4235 4.33326 18.5016 4.36613 18.5676 4.43206C18.6335 4.49817 18.6665 4.57614 18.6665 4.6664V6.99974H18.6665Z" fill="white"/>
<path d="M5.33336 15H2.66675V16.3334H5.33336V15Z" fill="white"/>
<path d="M10.6667 15H6.66675V16.3334H10.6667V15Z" fill="white"/>
</svg>
