<svg width="30" height="30" viewBox="0 0 30 30" fill="none" xmlns="http://www.w3.org/2000/svg">
<rect width="30" height="30" rx="15" fill="white" fill-opacity="0.15"/>
<path d="M7 8.16901H10.0409V22.8099H7V8.16901Z" fill="white"/>
<path d="M16.2086 20.1268C16.3516 20.1408 16.514 20.1549 16.696 20.169C16.8909 20.169 17.1183 20.169 17.3782 20.169C18.8987 20.169 20.0228 19.7535 20.7505 18.9225C21.4913 18.0915 21.8616 16.9437 21.8616 15.4789C21.8616 13.9437 21.5107 12.7817 20.809 11.993C20.1072 11.2042 18.9961 10.8099 17.4757 10.8099C17.2678 10.8099 17.0533 10.8169 16.8324 10.831C16.6115 10.831 16.4036 10.8451 16.2086 10.8732V20.1268ZM25 15.4789C25 16.7465 24.8181 17.8521 24.4542 18.7958C24.0903 19.7394 23.5705 20.5211 22.8948 21.1408C22.232 21.7606 21.4198 22.2254 20.4581 22.5352C19.4965 22.8451 18.4178 23 17.2223 23C16.6765 23 16.0397 22.9718 15.312 22.9155C14.5842 22.8732 13.8695 22.7746 13.1677 22.6197V8.35916C13.8695 8.21831 14.5972 8.12676 15.3509 8.08451C16.1177 8.02817 16.7739 8 17.3197 8C18.4763 8 19.5225 8.14084 20.4581 8.42253C21.4068 8.70423 22.219 9.14789 22.8948 9.75352C23.5705 10.3592 24.0903 11.1338 24.4542 12.0775C24.8181 13.0211 25 14.1549 25 15.4789Z" fill="white"/>
</svg>
