<svg width="30" height="30" viewBox="0 0 30 30" fill="none" xmlns="http://www.w3.org/2000/svg">
<rect width="30" height="30" rx="15" fill="white" fill-opacity="0.15"/>
<path d="M14.9531 17.328C18.0984 17.328 20.784 17.8266 20.784 19.822C20.784 21.8165 18.1156 22.3333 14.9531 22.3333C11.8079 22.3333 9.12225 21.8347 9.12225 19.8401C9.12225 17.8448 11.7906 17.328 14.9531 17.328ZM19.982 16.1265C21.1844 16.1042 22.4772 16.2693 22.9549 16.3865C23.9669 16.5855 24.6326 16.9916 24.9083 17.5819C25.1414 18.0665 25.1414 18.6287 24.9083 19.1125C24.4865 20.028 23.1264 20.3219 22.5978 20.3979C22.4887 20.4144 22.4008 20.3195 22.4123 20.2097C22.6824 17.6727 20.5344 16.4699 19.9787 16.1933C19.9549 16.1809 19.95 16.162 19.9524 16.1504C19.9541 16.1421 19.9639 16.1289 19.982 16.1265ZM9.79187 16.1247L10.0183 16.1268C10.0364 16.1293 10.0454 16.1425 10.047 16.1499C10.0495 16.1623 10.0446 16.1805 10.0216 16.1937C9.46509 16.4702 7.3171 17.6731 7.58714 20.2092C7.59863 20.3198 7.51162 20.4139 7.40246 20.3982C6.87387 20.3223 5.51383 20.0284 5.09195 19.1128C4.85802 18.6282 4.85802 18.0668 5.09195 17.5822C5.36773 16.992 6.03257 16.5858 7.0446 16.386C7.52311 16.2696 8.81503 16.1045 10.0183 16.1268L9.79187 16.1247ZM14.9531 7.66666C17.0945 7.66666 18.8116 9.39207 18.8116 11.5468C18.8116 13.7006 17.0945 15.4277 14.9531 15.4277C12.8117 15.4277 11.0946 13.7006 11.0946 11.5468C11.0946 9.39207 12.8117 7.66666 14.9531 7.66666ZM20.1913 8.31373C22.2597 8.31373 23.884 10.2711 23.3308 12.4514C22.9573 13.9193 21.6055 14.8942 20.0994 14.8546C19.9483 14.8505 19.7998 14.8364 19.6561 14.8117C19.5519 14.7935 19.4994 14.6755 19.5585 14.588C20.133 13.7376 20.4605 12.7148 20.4605 11.6168C20.4605 10.4709 20.1026 9.40264 19.4813 8.52672C19.4616 8.49948 19.4468 8.45737 19.4665 8.426C19.4829 8.40041 19.5133 8.3872 19.542 8.3806C19.7513 8.33767 19.9664 8.31373 20.1913 8.31373ZM9.80777 8.31364C10.0327 8.31364 10.2477 8.33759 10.4578 8.38051C10.4857 8.38712 10.5169 8.40115 10.5333 8.42592C10.5522 8.45729 10.5383 8.49939 10.5186 8.52664C9.89724 9.40255 9.53937 10.4708 9.53937 11.6167C9.53937 12.7147 9.86687 13.7375 10.4414 14.5879C10.5005 14.6754 10.448 14.7934 10.3437 14.8116C10.1993 14.8372 10.0515 14.8504 9.90052 14.8545C8.39438 14.8942 7.04254 13.9192 6.66909 12.4513C6.11506 10.271 7.73939 8.31364 9.80777 8.31364Z" fill="white"/>
</svg>
