<svg width="30" height="30" viewBox="0 0 30 30" fill="none" xmlns="http://www.w3.org/2000/svg">
<path d="M29.1211 0H0.878906C0.393219 0 0 0.393219 0 0.878906V29.1211C0 29.6068 0.393219 30 0.878906 30H29.1211C29.6068 30 30 29.6068 30 29.1211C30 15.3287 30 11.004 30 0.878906C30 0.393219 29.6068 0 29.1211 0ZM28.2422 24.7266H24.668V22.9688C24.668 21.9997 23.8792 21.2109 22.9102 21.2109H21.1523C20.1833 21.2109 19.3945 21.9997 19.3945 22.9688C19.3945 23.9378 20.1833 24.7266 21.1523 24.7266H18.1256C17.8228 24.2075 17.6367 23.6119 17.6367 22.9688C17.6367 21.0299 19.2135 19.4531 21.1523 19.4531H22.9102V1.75781H28.2422V24.7266ZM8.84766 1.75781H14.1211V7.27318C12.6089 7.66617 11.4844 9.0303 11.4844 10.6641C11.4844 12.2978 12.6089 13.662 14.1211 14.0549V14.2316C11.9884 14.4738 10.1255 15.582 8.84766 17.1794V1.75781ZM15.8789 14.0549C17.3911 13.662 18.5156 12.2978 18.5156 10.6641C18.5156 9.0303 17.3911 7.66617 15.8789 7.27318V1.75781H21.1523V17.1794C19.8745 15.582 18.0116 14.4738 15.8789 14.2316V14.0549ZM7.08984 1.75781V19.4531H8.84766C10.7865 19.4531 12.3633 21.0299 12.3633 22.9688C12.3633 23.6119 12.1772 24.2075 11.8744 24.7266H8.84766C9.81674 24.7266 10.6055 23.9378 10.6055 22.9688C10.6055 21.9997 9.81674 21.2109 8.84766 21.2109H7.08984C6.12076 21.2109 5.33203 21.9997 5.33203 22.9688V24.7266H1.75781V1.75781H7.08984Z" fill="url(#paint0_linear)"/>
<defs>
<linearGradient id="paint0_linear" x1="15" y1="0" x2="15" y2="30" gradientUnits="userSpaceOnUse">
<stop stop-color="#1A4ED2"/>
<stop offset="1" stop-color="#1A7AD2"/>
</linearGradient>
</defs>
</svg>
