<svg width="30" height="31" viewBox="0 0 30 31" fill="none" xmlns="http://www.w3.org/2000/svg">
<rect y="0.5" width="30" height="30" rx="15" fill="white" fill-opacity="0.15"/>
<path d="M15.0002 8.16667C16.8961 8.16667 18.6937 8.82445 20.2587 10.0422C21.8237 11.2511 23.1563 13.02 24.1132 15.2333C24.1847 15.4022 24.1847 15.5978 24.1132 15.7578C22.1994 20.1844 18.792 22.8333 15.0002 22.8333H14.9912C11.2083 22.8333 7.80098 20.1844 5.88715 15.7578C5.81561 15.5978 5.81561 15.4022 5.88715 15.2333C7.80098 10.8067 11.2083 8.16667 14.9912 8.16667H15.0002ZM15.0002 11.9444C13.0237 11.9444 11.4229 13.5356 11.4229 15.5C11.4229 17.4556 13.0237 19.0467 15.0002 19.0467C16.9676 19.0467 18.5685 17.4556 18.5685 15.5C18.5685 13.5356 16.9676 11.9444 15.0002 11.9444ZM15.0012 13.2758C16.2264 13.2758 17.2281 14.2714 17.2281 15.498C17.2281 16.7158 16.2264 17.7114 15.0012 17.7114C13.7671 17.7114 12.7655 16.7158 12.7655 15.498C12.7655 15.3469 12.7833 15.2047 12.8102 15.0625H12.8549C13.8476 15.0625 14.6525 14.2803 14.6882 13.3025C14.7866 13.2847 14.8939 13.2758 15.0012 13.2758Z" fill="white"/>
</svg>
