<svg width="36" height="36" viewBox="0 0 36 36" fill="none" xmlns="http://www.w3.org/2000/svg">
<g clip-path="url(#clip0)">
<path d="M9.41668 22.1667H5.5V25.75H9.41668V22.1667Z" fill="white"/>
<path d="M22 21.8333H14V33.5H22V21.8333Z" fill="white"/>
<path d="M30.4167 22.1667H26.5V25.75H30.4167V22.1667Z" fill="white"/>
<path d="M30.8399 13.3894C29.7958 15.8531 26.9522 17.0039 24.4886 15.9599C23.5142 15.547 22.7019 14.8265 22.1757 13.9084C20.8477 16.2272 17.8915 17.0303 15.5727 15.7024C14.8458 15.2861 14.2394 14.6882 13.8129 13.9672C12.4639 16.2643 9.50817 17.0331 7.21092 15.6841C6.30675 15.1532 5.60025 14.342 5.19833 13.3736C4.55433 14.0551 3.68375 14.4782 2.75 14.5633V33.5H12.6667V21.1745C12.6584 20.8103 12.9469 20.5084 13.3111 20.5001C13.3129 20.5001 13.3148 20.5 13.3167 20.5H22.6367C23.0123 20.5013 23.3199 20.7991 23.3333 21.1745V33.5H33.25V14.5596C32.3274 14.4889 31.4661 14.0707 30.8399 13.3894ZM10.75 26.4167C10.75 26.7848 10.4515 27.0833 10.0833 27.0833H4.83333C4.46517 27.0833 4.16667 26.7848 4.16667 26.4167V21.5C4.16667 21.1318 4.46517 20.8333 4.83333 20.8333H10.0833C10.4515 20.8333 10.75 21.1318 10.75 21.5V26.4167ZM31.75 26.4167C31.75 26.7848 31.4515 27.0833 31.0833 27.0833H25.8333C25.4652 27.0833 25.1667 26.7848 25.1667 26.4167V21.5C25.1667 21.1318 25.4652 20.8333 25.8333 20.8333H31.0833C31.4515 20.8333 31.75 21.1318 31.75 21.5V26.4167Z" fill="white"/>
<path d="M35.8636 8.67375L32.5094 2.99067C32.3288 2.68683 32.0018 2.5005 31.6484 2.5H5.01002C4.68386 2.49992 4.37827 2.65942 4.19169 2.92692L0.177435 8.6785C0.0607686 8.84642 -0.00123147 9.04634 1.8536e-05 9.25084V10.8092C-0.00148147 12.1518 1.08569 13.2415 2.42835 13.243C3.63927 13.2443 4.66661 12.3543 4.83777 11.1556L4.86386 10.7648C4.88852 10.3975 5.20636 10.1197 5.57369 10.1443C5.92361 10.1678 6.19544 10.4584 6.19569 10.8092C6.19569 10.9701 6.18553 11.1308 6.16511 11.2905L6.14953 11.5246C6.15544 13.4565 7.72628 15.0178 9.6582 15.0119C11.5901 15.006 13.1515 13.4352 13.1455 11.5033C13.1455 11.1351 13.444 10.8366 13.8122 10.8366C14.1804 10.8366 14.4789 11.1351 14.4789 11.5033C14.4699 13.4352 16.0286 15.0086 17.9605 15.0177C19.8925 15.0267 21.4659 13.4679 21.475 11.536C21.475 11.5247 21.475 11.5133 21.475 11.5019C21.4749 11.1334 21.7731 10.8344 22.1416 10.8337H22.2098C22.5783 10.8344 22.8765 11.1334 22.8765 11.5019C22.8703 13.4338 24.4315 15.0048 26.3634 15.011C28.2911 15.0171 29.8605 13.4624 29.8724 11.5347L29.8701 11.5129C29.8262 11.281 29.8041 11.0454 29.8042 10.8093C29.8067 10.4412 30.1072 10.1447 30.4754 10.1472C30.8149 10.1495 31.0984 10.4065 31.1339 10.7442L31.1893 11.3153C31.4676 12.6292 32.7581 13.4688 34.0721 13.1905C35.1969 12.9523 36.0012 11.9588 36.0001 10.8091V9.18217C36.001 9.0035 35.9539 8.82792 35.8636 8.67375Z" fill="white"/>
</g>
<defs>
<clipPath id="clip0">
<rect width="36" height="36" fill="white"/>
</clipPath>
</defs>
</svg>
