<svg width="58" height="58" viewBox="0 0 58 58" fill="none" xmlns="http://www.w3.org/2000/svg">
<path d="M29 0C44.9912 0 58 13.0088 58 29C58 44.9912 44.9912 58 29 58C13.0088 58 0 44.9912 0 29C0 13.0088 13.0088 0 29 0ZM18.3206 36.2619C17.3758 37.2071 17.3758 38.7342 18.3206 39.6794C18.7919 40.1507 19.4105 40.3874 20.0295 40.3874C20.6482 40.3874 21.2668 40.1507 21.7381 39.6794L29 32.417L36.2619 39.6794C36.7332 40.1507 37.3518 40.3874 37.9705 40.3874C38.5895 40.3874 39.2081 40.1507 39.6794 39.6794C40.6242 38.7342 40.6242 37.2071 39.6794 36.2619L32.417 29L39.6794 21.7381C40.6242 20.7929 40.6242 19.2658 39.6794 18.3206C38.7342 17.3758 37.2071 17.3758 36.2619 18.3206L29 25.583L21.7381 18.3206C20.7929 17.3758 19.2658 17.3758 18.3206 18.3206C17.3758 19.2658 17.3758 20.7929 18.3206 21.7381L25.583 29L18.3206 36.2619Z" fill="#FF3F3F"/>
</svg>
