<svg width="162" height="162" viewBox="0 0 162 162" fill="none" xmlns="http://www.w3.org/2000/svg">
<path d="M139.604 74.6301L127.586 71.8451L131.412 59.8495L131.134 59.7568C126.426 58.1874 121.286 56.8936 115.863 55.8707C113.757 73.2379 98.9266 86.7387 81.0003 86.7387C63.3211 86.7387 48.6538 73.6075 46.2323 56.5867C40.7689 57.7381 35.6115 59.1635 30.9107 60.8611L34.4142 71.8451L22.3895 74.6317L0 115.913V141.035H26.6835V98.657H135.316V141.035H162V115.69L139.604 74.6301Z" fill="black"/>
<path d="M120.542 25.808C114.761 13.1334 103.153 3.94149 89.4914 1.21976C83.8565 0.0971553 78.1435 0.0971553 72.5086 1.21976C58.8465 3.94149 47.2388 13.1334 41.4581 25.808L29.8925 51.1661C44.0197 46.4263 61.9378 43.7166 80.7102 43.5094C99.3519 43.3059 117.266 45.5758 131.542 49.9264L120.542 25.808Z" fill="black"/>
<path d="M55.5913 54.9231C57.2186 67.4983 67.9887 77.2468 81 77.2468C94.1903 77.2468 105.082 67.2294 106.475 54.4035C90.047 52.3349 71.9296 52.5203 55.5913 54.9231Z" fill="black"/>
<path d="M36.1757 161.622H125.824V108.149H36.1757V161.622ZM81 128.173L87.7119 134.885L81 141.597L74.2881 134.886L81 128.173Z" fill="black"/>
</svg>
