<svg width="28" height="28" viewBox="0 0 28 28" fill="none" xmlns="http://www.w3.org/2000/svg">
<path d="M13.9821 2.33331C17.5623 2.33331 20.4431 5.15056 20.4431 8.62865V10.4175C22.4525 11.0448 23.9166 12.8638 23.9166 15.0365V20.7962C23.9166 23.4859 21.6867 25.6666 18.9375 25.6666H9.06352C6.31317 25.6666 4.08325 23.4859 4.08325 20.7962V15.0365C4.08325 12.8638 5.54852 11.0448 7.55675 10.4175V8.62865C7.56861 5.15056 10.4494 2.33331 13.9821 2.33331ZM13.994 15.615C13.425 15.615 12.9626 16.0671 12.9626 16.6236V19.1974C12.9626 19.7655 13.425 20.2176 13.994 20.2176C14.5749 20.2176 15.0372 19.7655 15.0372 19.1974V16.6236C15.0372 16.0671 14.5749 15.615 13.994 15.615ZM14.0058 4.3622C11.5993 4.3622 9.64322 6.26355 9.63137 8.60547V10.166H18.3685V8.62865C18.3685 6.27515 16.4124 4.3622 14.0058 4.3622Z" fill="#E23434"/>
</svg>
