<svg width="60" height="60" viewBox="0 0 60 60" fill="none" xmlns="http://www.w3.org/2000/svg">
<path d="M24.6773 20.5783L28.0635 4.73682H35.12L28.8543 30H21.4735L17.5194 15.5986L13.6465 30H6.28591L0 4.73682H7.07671L10.463 20.5783L14.5184 4.73682H20.561L24.6773 20.5783Z" fill="white"/>
<path d="M45.8871 25.3152H60V30H37.0057V26.79L51.0781 9.43896H36.9246V4.73682H59.8581V7.86001L45.8871 25.3152Z" fill="white"/>
<path fill-rule="evenodd" clip-rule="evenodd" d="M60 34.7368H0V55.2631H60V34.7368ZM45.8057 44.2982C46.4648 44.8055 47.5157 45.234 48.957 45.5836C50.1065 45.8644 50.9002 46.1501 51.3382 46.4407C51.7757 46.7264 51.9946 47.1327 51.9946 47.6596C51.9946 48.1868 51.7583 48.6029 51.2857 48.9082C50.8127 49.2137 50.1331 49.3664 49.2457 49.3664C48.2947 49.3664 47.533 49.1792 46.961 48.8049C46.3951 48.4256 46.1117 47.911 46.1117 47.2607H44.4225C44.4225 47.8863 44.6265 48.4452 45.0351 48.9379C45.4495 49.4304 46.0362 49.8195 46.7948 50.1051C47.5535 50.386 48.3703 50.5263 49.2457 50.5263C50.5942 50.5263 51.6708 50.2653 52.4761 49.7432C53.2814 49.2162 53.6842 48.5168 53.6842 47.645C53.6842 47.0982 53.5385 46.6229 53.2467 46.2191C52.9607 45.8151 52.517 45.4629 51.916 45.1625C51.3204 44.8572 50.492 44.5788 49.4296 44.3277C48.3734 44.0765 47.6236 43.8007 47.1799 43.5002C46.7424 43.1947 46.5234 42.8229 46.5234 42.3846C46.5234 42.1295 46.5736 41.9005 46.6742 41.6979C46.7887 41.4664 46.9691 41.2692 47.215 41.1064C47.6818 40.7961 48.3294 40.6409 49.1582 40.6409C50.0514 40.6409 50.743 40.8281 51.2329 41.2026C51.7232 41.5719 51.9684 42.0817 51.9684 42.7318H53.658C53.658 42.1358 53.4683 41.5867 53.089 41.0842C52.7155 40.5819 52.1843 40.1878 51.4958 39.9021C50.8127 39.6165 50.0337 39.4737 49.1582 39.4737C47.8746 39.4737 46.8299 39.752 46.0242 40.3084C45.2247 40.8602 44.825 41.5595 44.825 42.4068C44.825 43.1554 45.1519 43.7859 45.8057 44.2982ZM14.4222 50.3785H16.1117V39.6215H14.4395V47.9478L8.00537 39.6215H6.31579V50.3785H8.00537V42.089L14.4222 50.3785ZM20.7777 45.4063H26.3013V44.2463H20.7777V40.7887H27.1069V39.6215H19.0969V50.3785H27.1944V49.2185H20.7777V45.4063ZM32.0354 46.9873L32.2805 48.4059L32.6394 47.1277L35.1605 39.6215H36.5787L39.0385 47.1277L39.3889 48.4281L39.6603 46.98L41.6386 39.6215H43.3282L40.2381 50.3785H38.7058L36.0799 42.5398L35.8783 41.7197L35.677 42.5398L32.9544 50.3785H31.4224L28.3413 39.6215H30.022L32.0354 46.9873Z" fill="white"/>
</svg>
