<svg width="320" height="42" viewBox="0 0 320 42" fill="none" xmlns="http://www.w3.org/2000/svg">
<path d="M22.2373 30.6148C22.2373 29.1788 21.7258 28.0598 20.7028 27.2579C19.6983 26.456 17.9219 25.6261 15.3736 24.7682C12.8253 23.9104 10.742 23.0805 9.12372 22.2786C3.85968 19.6863 1.22766 16.1243 1.22766 11.5926C1.22766 9.33602 1.87869 7.34988 3.18075 5.63416C4.50141 3.89978 6.3615 2.55704 8.76101 1.60593C11.1605 0.636172 13.8576 0.151295 16.8524 0.151295C19.7727 0.151295 22.3861 0.673472 24.6926 1.71783C27.0178 2.76218 28.822 4.25412 30.1055 6.19363C31.389 8.1145 32.0307 10.3151 32.0307 12.7954H22.2652C22.2652 11.1357 21.7537 9.84888 20.7307 8.93507C19.7262 8.02126 18.3591 7.56435 16.6292 7.56435C14.8807 7.56435 13.4949 7.95598 12.4719 8.73925C11.4674 9.50387 10.9652 10.483 10.9652 11.6765C10.9652 12.7209 11.5232 13.672 12.6393 14.5298C13.7553 15.369 15.7177 16.2455 18.5265 17.1594C21.3352 18.0545 23.6417 19.0243 25.446 20.0686C29.8358 22.6049 32.0307 26.1017 32.0307 30.5588C32.0307 34.1208 30.6914 36.9182 28.0129 38.9509C25.3344 40.9837 21.6607 42.0001 16.9919 42.0001C13.6995 42.0001 10.7141 41.4126 8.03557 40.2377C5.37565 39.0442 3.36676 37.4217 2.00889 35.3703C0.669631 33.3002 0 30.9225 0 28.237H9.82126C9.82126 30.4189 10.3793 32.0321 11.4953 33.0764C12.63 34.1022 14.4622 34.615 16.9919 34.615C18.6102 34.615 19.8843 34.27 20.8144 33.58C21.763 32.8713 22.2373 31.8829 22.2373 30.6148Z" fill="black"/>
<path d="M42.4379 32.2932C43.9259 32.2932 45.1629 32.7408 46.1488 33.6359C47.1346 34.5124 47.6275 35.6407 47.6275 37.0208C47.6275 38.4008 47.1346 39.5384 46.1488 40.4336C45.1629 41.3101 43.9259 41.7483 42.4379 41.7483C40.9312 41.7483 39.6849 41.3007 38.6991 40.4056C37.7319 39.5104 37.2482 38.3821 37.2482 37.0208C37.2482 35.6594 37.7319 34.5311 38.6991 33.6359C39.6849 32.7408 40.9312 32.2932 42.4379 32.2932Z" fill="black"/>
<path d="M79.5466 24.1808H64.1451V33.8877H82.3367V41.4406H54.3517V0.71077H82.3925V8.29167H64.1451V16.8796H79.5466V24.1808Z" fill="black"/>
<path d="M91.7116 32.2932C93.1996 32.2932 94.4366 32.7408 95.4224 33.6359C96.4083 34.5124 96.9012 35.6407 96.9012 37.0208C96.9012 38.4008 96.4083 39.5384 95.4224 40.4336C94.4366 41.3101 93.1996 41.7483 91.7116 41.7483C90.2049 41.7483 88.9586 41.3007 87.9728 40.4056C87.0055 39.5104 86.5219 38.3821 86.5219 37.0208C86.5219 35.6594 87.0055 34.5311 87.9728 33.6359C88.9586 32.7408 90.2049 32.2932 91.7116 32.2932Z" fill="black"/>
<path d="M126.7 33.8317H113.279L110.936 41.4406H100.473L115.372 0.71077H124.579L139.59 41.4406H129.071L126.7 33.8317ZM115.623 26.2508H124.356L119.976 12.1241L115.623 26.2508Z" fill="black"/>
<path d="M147.961 32.2932C149.449 32.2932 150.686 32.7408 151.671 33.6359C152.657 34.5124 153.15 35.6407 153.15 37.0208C153.15 38.4008 152.657 39.5384 151.671 40.4336C150.686 41.3101 149.449 41.7483 147.961 41.7483C146.454 41.7483 145.208 41.3007 144.222 40.4056C143.255 39.5104 142.771 38.3821 142.771 37.0208C142.771 35.6594 143.255 34.5311 144.222 33.6359C145.208 32.7408 146.454 32.2932 147.961 32.2932Z" fill="black"/>
<path d="M174.969 27.0621H169.668V41.4406H159.874V0.71077H175.862C180.68 0.71077 184.446 1.7831 187.162 3.92776C189.878 6.07241 191.236 9.10291 191.236 13.0192C191.236 15.8539 190.659 18.2037 189.506 20.0686C188.371 21.9336 186.585 23.4441 184.149 24.6004L192.631 41.021V41.4406H182.14L174.969 27.0621ZM169.668 19.4812H175.862C177.722 19.4812 179.117 18.9963 180.047 18.0265C180.996 17.0381 181.47 15.6674 181.47 13.9144C181.47 12.1614 180.996 10.7907 180.047 9.80225C179.098 8.7952 177.703 8.29167 175.862 8.29167H169.668V19.4812Z" fill="black"/>
<path d="M202.536 32.2932C204.024 32.2932 205.261 32.7408 206.246 33.6359C207.232 34.5124 207.725 35.6407 207.725 37.0208C207.725 38.4008 207.232 39.5384 206.246 40.4336C205.261 41.3101 204.024 41.7483 202.536 41.7483C201.029 41.7483 199.783 41.3007 198.797 40.4056C197.83 39.5104 197.346 38.3821 197.346 37.0208C197.346 35.6594 197.83 34.5311 198.797 33.6359C199.783 32.7408 201.029 32.2932 202.536 32.2932Z" fill="black"/>
<path d="M247.317 27.6495C247.187 30.4842 246.424 32.9925 245.029 35.1745C243.634 37.3378 241.672 39.0162 239.142 40.2098C236.631 41.4033 233.757 42.0001 230.521 42.0001C225.182 42.0001 220.978 40.2564 217.909 36.769C214.84 33.2816 213.305 28.3582 213.305 21.9988V19.9847C213.305 15.9938 213.994 12.5064 215.37 9.52251C216.765 6.51999 218.765 4.20749 221.369 2.58501C223.973 0.943885 226.986 0.123322 230.409 0.123322C235.338 0.123322 239.3 1.42877 242.295 4.03965C245.29 6.63189 246.992 10.2125 247.401 14.7816H237.635C237.561 12.3012 236.938 10.5202 235.766 9.43859C234.594 8.35694 232.808 7.81611 230.409 7.81611C227.972 7.81611 226.187 8.72992 225.052 10.5575C223.917 12.3852 223.322 15.3038 223.266 19.3133V22.1946C223.266 26.5399 223.806 29.645 224.884 31.5099C225.982 33.3748 227.861 34.3073 230.521 34.3073C232.771 34.3073 234.492 33.7758 235.682 32.7128C236.873 31.6498 237.505 29.962 237.58 27.6495H247.317Z" fill="black"/>
<path d="M257.334 32.2932C258.822 32.2932 260.059 32.7408 261.045 33.6359C262.03 34.5124 262.523 35.6407 262.523 37.0208C262.523 38.4008 262.03 39.5384 261.045 40.4336C260.059 41.3101 258.822 41.7483 257.334 41.7483C255.827 41.7483 254.581 41.3007 253.595 40.4056C252.628 39.5104 252.144 38.3821 252.144 37.0208C252.144 35.6594 252.628 34.5311 253.595 33.6359C254.581 32.7408 255.827 32.2932 257.334 32.2932Z" fill="black"/>
<path d="M303.203 41.4406H293.466V24.4325H279.041V41.4406H269.248V0.71077H279.041V16.8796H293.466V0.71077H303.203V41.4406Z" fill="black"/>
<path d="M314.81 32.2932C316.298 32.2932 317.535 32.7408 318.521 33.6359C319.507 34.5124 320 35.6407 320 37.0208C320 38.4008 319.507 39.5384 318.521 40.4336C317.535 41.3101 316.298 41.7483 314.81 41.7483C313.304 41.7483 312.057 41.3007 311.072 40.4056C310.104 39.5104 309.621 38.3821 309.621 37.0208C309.621 35.6594 310.104 34.5311 311.072 33.6359C312.057 32.7408 313.304 32.2932 314.81 32.2932Z" fill="black"/>
</svg>
