<svg width="10" height="20" viewBox="0 0 10 20" fill="none" xmlns="http://www.w3.org/2000/svg">
<path fill-rule="evenodd" clip-rule="evenodd" d="M9.80113 4.77538L5.48011 0.210111C5.21495 -0.0700367 4.78505 -0.0700367 4.51989 0.210111L0.19887 4.77538C-0.0662899 5.05553 -0.0662899 5.50974 0.19887 5.78989C0.464029 6.07004 0.893937 6.07004 1.1591 5.78989L5 1.73187L8.8409 5.78989C9.10606 6.07004 9.53597 6.07004 9.80113 5.78989C10.0663 5.50974 10.0663 5.05553 9.80113 4.77538Z" fill="black"/>
<path fill-rule="evenodd" clip-rule="evenodd" d="M9.80113 15.2246L5.48011 19.7899C5.21495 20.07 4.78505 20.07 4.51989 19.7899L0.19887 15.2246C-0.0662899 14.9445 -0.0662899 14.4903 0.19887 14.2101C0.464029 13.93 0.893937 13.93 1.1591 14.2101L5 18.2681L8.8409 14.2101C9.10606 13.93 9.53597 13.93 9.80113 14.2101C10.0663 14.4903 10.0663 14.9445 9.80113 15.2246Z" fill="black"/>
</svg>
