<svg width="96" height="112" viewBox="0 0 96 112" fill="none" xmlns="http://www.w3.org/2000/svg">
<path d="M47.939 24C60.214 24 70.0909 33.6592 70.0909 45.584V51.7174C76.9803 53.8678 82 60.1045 82 67.5536V87.3012C82 96.5231 74.3546 104 64.9289 104H31.0752C21.6454 104 14 96.5231 14 87.3012V67.5536C14 60.1045 19.0238 53.8678 25.9091 51.7174V45.584C25.9498 33.6592 35.8267 24 47.939 24ZM47.9797 69.5371C46.0287 69.5371 44.4435 71.0874 44.4435 72.9953V81.8197C44.4435 83.7675 46.0287 85.3177 47.9797 85.3177C49.9713 85.3177 51.5565 83.7675 51.5565 81.8197V72.9953C51.5565 71.0874 49.9713 69.5371 47.9797 69.5371ZM48.0203 30.9562C39.7693 30.9562 33.0628 37.4751 33.0221 45.5045V50.8548H62.9779V45.584C62.9779 37.5149 56.2714 30.9562 48.0203 30.9562Z" fill="#E23434"/>
<path d="M21.9062 3.72656C21.9062 3.21615 21.7135 2.8099 21.3281 2.50781C20.9427 2.20573 20.4193 2.05469 19.7578 2.05469C19.1901 2.05469 18.7161 2.20573 18.3359 2.50781C17.9557 2.80469 17.7656 3.1901 17.7656 3.66406H15.7969C15.7969 3.04427 15.9688 2.49219 16.3125 2.00781C16.6562 1.52344 17.1328 1.14844 17.7422 0.882812C18.3516 0.611979 19.0234 0.476562 19.7578 0.476562C21.0599 0.476562 22.0703 0.760417 22.7891 1.32812C23.513 1.89583 23.875 2.6901 23.875 3.71094C23.875 4.22656 23.7188 4.70052 23.4062 5.13281C23.0938 5.5651 22.6562 5.90625 22.0938 6.15625C22.7292 6.375 23.2135 6.70833 23.5469 7.15625C23.8854 7.59896 24.0547 8.15104 24.0547 8.8125C24.0547 9.83333 23.6641 10.6458 22.8828 11.25C22.1016 11.849 21.0599 12.1484 19.7578 12.1484C18.9557 12.1484 18.2292 12.0052 17.5781 11.7188C16.9323 11.4323 16.4453 11.0417 16.1172 10.5469C15.7943 10.0521 15.6328 9.48438 15.6328 8.84375H17.6016C17.6016 9.33333 17.8047 9.7474 18.2109 10.0859C18.6172 10.4193 19.1328 10.5859 19.7578 10.5859C20.4557 10.5859 21.0156 10.4219 21.4375 10.0938C21.8646 9.76562 22.0781 9.33854 22.0781 8.8125C22.0781 8.17188 21.8906 7.70833 21.5156 7.42188C21.1458 7.13021 20.6016 6.98438 19.8828 6.98438H18.5469V5.42188H19.8125C21.2083 5.42188 21.9062 4.85677 21.9062 3.72656ZM30.7578 12C30.6745 11.8385 30.6016 11.5755 30.5391 11.2109C29.9349 11.8411 29.1953 12.1562 28.3203 12.1562C27.4714 12.1562 26.7786 11.9141 26.2422 11.4297C25.7057 10.9453 25.4375 10.3464 25.4375 9.63281C25.4375 8.73177 25.7708 8.04167 26.4375 7.5625C27.1094 7.07812 28.0677 6.83594 29.3125 6.83594H30.4766V6.28125C30.4766 5.84375 30.3542 5.49479 30.1094 5.23438C29.8646 4.96875 29.4922 4.83594 28.9922 4.83594C28.5599 4.83594 28.2057 4.94531 27.9297 5.16406C27.6536 5.3776 27.5156 5.65104 27.5156 5.98438H25.6172C25.6172 5.52083 25.7708 5.08854 26.0781 4.6875C26.3854 4.28125 26.8021 3.96354 27.3281 3.73438C27.8594 3.50521 28.4505 3.39062 29.1016 3.39062C30.0911 3.39062 30.8802 3.64062 31.4688 4.14062C32.0573 4.63542 32.3594 5.33333 32.375 6.23438V10.0469C32.375 10.8073 32.4818 11.4141 32.6953 11.8672V12H30.7578ZM28.6719 10.6328C29.0469 10.6328 29.3984 10.5417 29.7266 10.3594C30.0599 10.1771 30.3099 9.93229 30.4766 9.625V8.03125H29.4531C28.75 8.03125 28.2214 8.15365 27.8672 8.39844C27.513 8.64323 27.3359 8.98958 27.3359 9.4375C27.3359 9.80208 27.4557 10.0938 27.6953 10.3125C27.9401 10.526 28.2656 10.6328 28.6719 10.6328ZM37.3672 8.65625H36.4062V12H34.5078V3.54688H36.4062V6.92188H37.2422L39.5781 3.54688H41.9219L38.8672 7.59375L42.1797 12H39.7109L37.3672 8.65625ZM50.625 7.85938C50.625 9.16667 50.3281 10.2109 49.7344 10.9922C49.1406 11.7682 48.3438 12.1562 47.3438 12.1562C46.4167 12.1562 45.6745 11.8516 45.1172 11.2422V15.25H43.2188V3.54688H44.9688L45.0469 4.40625C45.6042 3.72917 46.362 3.39062 47.3203 3.39062C48.3516 3.39062 49.1589 3.77604 49.7422 4.54688C50.3307 5.3125 50.625 6.3776 50.625 7.74219V7.85938ZM48.7344 7.69531C48.7344 6.85156 48.5651 6.18229 48.2266 5.6875C47.8932 5.19271 47.4141 4.94531 46.7891 4.94531C46.013 4.94531 45.4557 5.26562 45.1172 5.90625V9.65625C45.4609 10.3125 46.0234 10.6406 46.8047 10.6406C47.4089 10.6406 47.8802 10.3984 48.2188 9.91406C48.5625 9.42448 48.7344 8.6849 48.7344 7.69531ZM54.2812 6.23438H56.1406C56.8333 6.23438 57.4375 6.35417 57.9531 6.59375C58.4688 6.83333 58.8594 7.16927 59.125 7.60156C59.3958 8.03385 59.5312 8.53646 59.5312 9.10938C59.5312 9.97917 59.224 10.6771 58.6094 11.2031C57.9948 11.7292 57.1771 11.9948 56.1562 12H52.3828V3.54688H54.2812V6.23438ZM62.8359 12H60.9375V3.54688H62.8359V12ZM54.2812 7.75781V10.4844H56.1328C56.5964 10.4844 56.9609 10.3698 57.2266 10.1406C57.4974 9.90625 57.6328 9.57552 57.6328 9.14844C57.6328 8.72135 57.5 8.38542 57.2344 8.14062C56.974 7.89062 56.6198 7.76302 56.1719 7.75781H54.2812ZM71.7656 5.05469H69.0234V12H67.125V5.05469H64.4141V3.54688H71.7656V5.05469ZM72.4453 7.69531C72.4453 6.86719 72.6094 6.1224 72.9375 5.46094C73.2656 4.79427 73.7266 4.28385 74.3203 3.92969C74.9141 3.57031 75.5964 3.39062 76.3672 3.39062C77.5078 3.39062 78.4323 3.75781 79.1406 4.49219C79.8542 5.22656 80.2396 6.20052 80.2969 7.41406L80.3047 7.85938C80.3047 8.69271 80.1432 9.4375 79.8203 10.0938C79.5026 10.75 79.0443 11.2578 78.4453 11.6172C77.8516 11.9766 77.1641 12.1562 76.3828 12.1562C75.1901 12.1562 74.2344 11.7604 73.5156 10.9688C72.8021 10.1719 72.4453 9.11198 72.4453 7.78906V7.69531ZM74.3438 7.85938C74.3438 8.72917 74.5234 9.41146 74.8828 9.90625C75.2422 10.3958 75.7422 10.6406 76.3828 10.6406C77.0234 10.6406 77.5208 10.3906 77.875 9.89062C78.2344 9.39062 78.4141 8.65885 78.4141 7.69531C78.4141 6.84115 78.2292 6.16406 77.8594 5.66406C77.4948 5.16406 76.9974 4.91406 76.3672 4.91406C75.7474 4.91406 75.2552 5.16146 74.8906 5.65625C74.526 6.14583 74.3438 6.88021 74.3438 7.85938Z" fill="#E23434"/>
</svg>
