<svg width="96" height="112" viewBox="0 0 96 112" fill="none" xmlns="http://www.w3.org/2000/svg">
<path d="M47.9146 24C57.3851 24 65.754 29.8483 68.843 38.5115C69.1682 39.3861 69.0869 40.3403 68.6805 41.1752C68.274 42.0101 67.5464 42.6463 66.6482 42.9285C64.8191 43.5607 62.7868 42.6105 62.0959 40.7816C60.023 34.8936 54.3366 30.9576 47.9959 30.9576C39.7002 30.9576 32.9977 37.4818 32.953 45.469V50.8363L32.9042 50.8443H64.9248C74.3546 50.8443 82 58.3226 82 67.5464V87.2979C82 96.5216 74.3546 104 64.9248 104H31.0711C21.6454 104 14 96.5216 14 87.2979V67.5464C14 59.9606 19.2026 53.6273 26.2831 51.5917L25.84 51.6434V45.5486C25.9213 33.665 35.8023 24 47.9146 24ZM47.9797 69.5303C46.0287 69.5303 44.4435 71.0808 44.4435 72.9892V81.8153C44.4435 83.7635 46.0287 85.314 47.9797 85.314C49.9713 85.314 51.5565 83.7635 51.5565 81.8153V72.9892C51.5565 71.0808 49.9713 69.5303 47.9797 69.5303Z" fill="#34E25A"/>
<path d="M25.4766 6.60938C25.4766 7.72396 25.2839 8.70312 24.8984 9.54688C24.513 10.3854 23.9609 11.0312 23.2422 11.4844C22.5286 11.9323 21.7057 12.1562 20.7734 12.1562C19.8516 12.1562 19.0286 11.9323 18.3047 11.4844C17.5859 11.0312 17.0286 10.388 16.6328 9.55469C16.2422 8.72135 16.0443 7.76042 16.0391 6.67188V6.03125C16.0391 4.92188 16.2344 3.94271 16.625 3.09375C17.0208 2.24479 17.5755 1.59635 18.2891 1.14844C19.0078 0.695312 19.8307 0.46875 20.7578 0.46875C21.6849 0.46875 22.5052 0.692708 23.2188 1.14062C23.9375 1.58333 24.4922 2.22396 24.8828 3.0625C25.2734 3.89583 25.4714 4.86719 25.4766 5.97656V6.60938ZM23.5 6.01562C23.5 4.75521 23.2604 3.78906 22.7812 3.11719C22.3073 2.44531 21.6328 2.10938 20.7578 2.10938C19.9036 2.10938 19.2344 2.44531 18.75 3.11719C18.2708 3.78385 18.026 4.72917 18.0156 5.95312V6.60938C18.0156 7.85938 18.2578 8.82552 18.7422 9.50781C19.2318 10.1901 19.9089 10.5312 20.7734 10.5312C21.6484 10.5312 22.3203 10.1979 22.7891 9.53125C23.263 8.86458 23.5 7.89062 23.5 6.60938V6.01562ZM33.9141 5.05469H31.1719V12H29.2734V5.05469H26.5625V3.54688H33.9141V5.05469ZM38.1875 8.65625H37.2266V12H35.3281V3.54688H37.2266V6.92188H38.0625L40.3984 3.54688H42.7422L39.6875 7.59375L43 12H40.5312L38.1875 8.65625ZM51.4453 7.85938C51.4453 9.16667 51.1484 10.2109 50.5547 10.9922C49.9609 11.7682 49.1641 12.1562 48.1641 12.1562C47.237 12.1562 46.4948 11.8516 45.9375 11.2422V15.25H44.0391V3.54688H45.7891L45.8672 4.40625C46.4245 3.72917 47.1823 3.39062 48.1406 3.39062C49.1719 3.39062 49.9792 3.77604 50.5625 4.54688C51.151 5.3125 51.4453 6.3776 51.4453 7.74219V7.85938ZM49.5547 7.69531C49.5547 6.85156 49.3854 6.18229 49.0469 5.6875C48.7135 5.19271 48.2344 4.94531 47.6094 4.94531C46.8333 4.94531 46.276 5.26562 45.9375 5.90625V9.65625C46.2812 10.3125 46.8438 10.6406 47.625 10.6406C48.2292 10.6406 48.7005 10.3984 49.0391 9.91406C49.3828 9.42448 49.5547 8.6849 49.5547 7.69531ZM55.1016 6.23438H56.9609C57.6536 6.23438 58.2578 6.35417 58.7734 6.59375C59.2891 6.83333 59.6797 7.16927 59.9453 7.60156C60.2161 8.03385 60.3516 8.53646 60.3516 9.10938C60.3516 9.97917 60.0443 10.6771 59.4297 11.2031C58.8151 11.7292 57.9974 11.9948 56.9766 12H53.2031V3.54688H55.1016V6.23438ZM63.6562 12H61.7578V3.54688H63.6562V12ZM55.1016 7.75781V10.4844H56.9531C57.4167 10.4844 57.7812 10.3698 58.0469 10.1406C58.3177 9.90625 58.4531 9.57552 58.4531 9.14844C58.4531 8.72135 58.3203 8.38542 58.0547 8.14062C57.7943 7.89062 57.4401 7.76302 56.9922 7.75781H55.1016ZM72.5859 5.05469H69.8438V12H67.9453V5.05469H65.2344V3.54688H72.5859V5.05469ZM73.2656 7.69531C73.2656 6.86719 73.4297 6.1224 73.7578 5.46094C74.0859 4.79427 74.5469 4.28385 75.1406 3.92969C75.7344 3.57031 76.4167 3.39062 77.1875 3.39062C78.3281 3.39062 79.2526 3.75781 79.9609 4.49219C80.6745 5.22656 81.0599 6.20052 81.1172 7.41406L81.125 7.85938C81.125 8.69271 80.9635 9.4375 80.6406 10.0938C80.3229 10.75 79.8646 11.2578 79.2656 11.6172C78.6719 11.9766 77.9844 12.1562 77.2031 12.1562C76.0104 12.1562 75.0547 11.7604 74.3359 10.9688C73.6224 10.1719 73.2656 9.11198 73.2656 7.78906V7.69531ZM75.1641 7.85938C75.1641 8.72917 75.3438 9.41146 75.7031 9.90625C76.0625 10.3958 76.5625 10.6406 77.2031 10.6406C77.8438 10.6406 78.3411 10.3906 78.6953 9.89062C79.0547 9.39062 79.2344 8.65885 79.2344 7.69531C79.2344 6.84115 79.0495 6.16406 78.6797 5.66406C78.3151 5.16406 77.8177 4.91406 77.1875 4.91406C76.5677 4.91406 76.0755 5.16146 75.7109 5.65625C75.3464 6.14583 75.1641 6.88021 75.1641 7.85938Z" fill="#34E25A"/>
</svg>
