<svg width="58" height="58" viewBox="0 0 58 58" fill="none" xmlns="http://www.w3.org/2000/svg">
<path d="M29 0C13.0088 0 0 13.0088 0 29C0 44.9912 13.0088 58 29 58C44.9912 58 58 44.9912 58 29C58 13.0088 44.9912 0 29 0ZM43.6982 22.8545L27.9898 38.5625C27.5185 39.0338 26.8999 39.271 26.2812 39.271C25.6626 39.271 25.044 39.0338 24.5727 38.5625L16.7187 30.7085C15.7735 29.7638 15.7735 28.2362 16.7187 27.2915C17.6635 26.3463 19.1906 26.3463 20.1357 27.2915L26.2812 33.437L40.2812 19.4375C41.226 18.4923 42.7531 18.4923 43.6982 19.4375C44.643 20.3822 44.643 21.9093 43.6982 22.8545Z" fill="#35FF3D"/>
</svg>
