<svg width="28" height="28" viewBox="0 0 28 28" fill="none" xmlns="http://www.w3.org/2000/svg">
<path d="M13.975 2.33331C16.7372 2.33331 19.1782 4.03907 20.0791 6.56583C20.174 6.82094 20.1503 7.09924 20.0317 7.34276C19.9132 7.58627 19.701 7.77181 19.439 7.85414C18.9055 8.03851 18.3128 7.76137 18.1112 7.22796C17.5066 5.5106 15.8481 4.3626 13.9987 4.3626C11.5791 4.3626 9.62426 6.26549 9.61122 8.59512V10.1606L9.59699 10.1629H18.9363C21.6867 10.1629 23.9166 12.3441 23.9166 15.0343V20.7952C23.9166 23.4855 21.6867 25.6666 18.9363 25.6666H9.06233C6.31317 25.6666 4.08325 23.4855 4.08325 20.7952V15.0343C4.08325 12.8218 5.60069 10.9746 7.66582 10.3809L7.5366 10.396V8.61831C7.56031 5.15228 10.4422 2.33331 13.975 2.33331ZM13.994 15.613C13.425 15.613 12.9626 16.0652 12.9626 16.6218V19.1961C12.9626 19.7643 13.425 20.2166 13.994 20.2166C14.5749 20.2166 15.0372 19.7643 15.0372 19.1961V16.6218C15.0372 16.0652 14.5749 15.613 13.994 15.613Z" fill="#34E25A"/>
</svg>
