<svg width="14" height="14" viewBox="0 0 14 14" fill="none" xmlns="http://www.w3.org/2000/svg">
<path d="M13.8385 4.46926C12.0615 2.69234 9.69231 1.61542 7 1.61542C4.30769 1.61542 1.88462 2.69234 0.161538 4.46926C0.0538462 4.57696 0 4.68465 0 4.84619C0 5.00773 0.0538462 5.11542 0.161538 5.22311L0.915385 5.97696C1.13077 6.19234 1.45385 6.19234 1.66923 5.97696C3.01538 4.6308 4.9 3.76926 7 3.76926C9.1 3.76926 10.9846 4.6308 12.3308 5.97696C12.5462 6.19234 12.8692 6.19234 13.0846 5.97696L13.8385 5.22311C13.9462 5.11542 14 5.00773 14 4.84619C14 4.68465 13.9462 4.52311 13.8385 4.46926Z" fill="white"/>
<path d="M6.99998 5.9231C5.49229 5.9231 4.19998 6.5154 3.23075 7.48463C3.01537 7.70002 3.01537 8.02309 3.23075 8.23848L3.9846 8.99233C4.19998 9.20771 4.52306 9.20771 4.73844 8.99233C5.33075 8.40002 6.13844 8.07694 6.99998 8.07694C7.86152 8.07694 8.66921 8.45386 9.26152 8.99233C9.47691 9.20771 9.79998 9.20771 10.0154 8.99233L10.7692 8.23848C10.9846 8.02309 10.9846 7.70002 10.7692 7.48463C9.79998 6.5154 8.50768 5.9231 6.99998 5.9231Z" fill="white"/>
<path d="M7.00002 12.3847C7.59479 12.3847 8.07694 11.9025 8.07694 11.3078C8.07694 10.713 7.59479 10.2308 7.00002 10.2308C6.40525 10.2308 5.9231 10.713 5.9231 11.3078C5.9231 11.9025 6.40525 12.3847 7.00002 12.3847Z" fill="white"/>
</svg>
