<svg width="60" height="60" viewBox="0 0 60 60" fill="none" xmlns="http://www.w3.org/2000/svg">
<g clip-path="url(#clip0)">
<path d="M51.2085 8.79107C39.4876 -2.93007 20.5145 -2.93194 8.79172 8.79107C-2.92953 20.5122 -2.93129 39.4851 8.79172 51.208C20.5126 62.9291 39.4857 62.9309 51.2085 51.208C62.9297 39.4868 62.9314 20.514 51.2085 8.79107ZM49.9549 46.9325C48.5536 45.6794 47.0545 44.5704 45.4745 43.6147C46.5188 40.0072 47.1376 36.0374 47.2838 31.9109H56.1019C55.7032 37.4731 53.566 42.6908 49.9549 46.9325ZM3.89821 31.9109H12.7163C12.8625 36.0374 13.4812 40.0072 14.5256 43.6147C12.9456 44.5704 11.4465 45.6794 10.0452 46.9325C6.43407 42.6908 4.29703 37.4731 3.89821 31.9109ZM10.0453 13.0666C11.4467 14.3197 12.9457 15.4287 14.5257 16.3844C13.4814 19.9918 12.8627 23.9616 12.7164 28.0882H3.89821C4.29703 22.5261 6.43407 17.3083 10.0453 13.0666ZM28.0888 16.7794C24.9716 16.5565 21.966 15.7887 19.1795 14.5221C20.8001 10.3491 23.7876 5.344 28.0888 4.10364V16.7794ZM28.0888 20.6093V28.0883H16.5406C16.6729 24.5975 17.1675 21.2455 17.9901 18.1786C21.1566 19.5628 24.5621 20.3895 28.0888 20.6093ZM28.0888 31.9109V39.3899C24.5621 39.6097 21.1566 40.4363 17.9901 41.8206C17.1675 38.7536 16.6729 35.4016 16.5406 31.9109H28.0888ZM28.0888 43.2197V55.8954C23.7878 54.655 20.8003 49.6505 19.1795 45.477C21.966 44.2104 24.9716 43.4427 28.0888 43.2197ZM31.9114 43.2197C35.0286 43.4427 38.0343 44.2104 40.8207 45.477C39.2 49.6502 36.2127 54.655 31.9114 55.8954V43.2197ZM31.9114 39.3899V31.9109H43.4596C43.3273 35.4016 42.8327 38.7536 42.0101 41.8206C38.8436 40.4363 35.4381 39.6097 31.9114 39.3899ZM31.9114 28.0883V20.6093C35.4381 20.3895 38.8436 19.5628 42.0101 18.1786C42.8327 21.2455 43.3273 24.5975 43.4596 28.0883H31.9114ZM31.9114 16.7794V4.10376C36.2127 5.34411 39.2001 10.3492 40.8207 14.5222C38.0343 15.7887 35.0286 16.5565 31.9114 16.7794ZM40.4966 6.01201C42.9432 7.0834 45.2258 8.53616 47.272 10.3387C46.298 11.1974 45.2703 11.9761 44.1972 12.6724C43.2441 10.3128 42.0267 8.01966 40.4966 6.01201ZM15.8029 12.6724C14.7298 11.9761 13.7022 11.1974 12.7281 10.3387C14.7743 8.53616 17.0569 7.0834 19.5035 6.01201C17.9734 8.0199 16.756 10.313 15.8029 12.6724ZM15.8031 47.3267C16.756 49.6862 17.9736 51.9795 19.5036 53.9871C17.057 52.9157 14.7744 51.463 12.7282 49.6605C13.7022 48.8017 14.7299 48.0231 15.8031 47.3267ZM44.1972 47.3267C45.2703 48.0231 46.298 48.8017 47.272 49.6604C45.2258 51.4629 42.9432 52.9156 40.4966 53.987C42.0266 51.9796 43.2441 49.6864 44.1972 47.3267ZM47.2839 28.0883C47.1377 23.9617 46.519 19.9918 45.4746 16.3845C47.0547 15.4288 48.5536 14.3198 49.955 13.0667C53.5661 17.3083 55.7032 22.5261 56.102 28.0883H47.2839Z" fill="black"/>
</g>
<defs>
<clipPath id="clip0">
<rect width="60" height="60" fill="white"/>
</clipPath>
</defs>
</svg>
