<svg width="60" height="86" viewBox="0 0 60 86" fill="none" xmlns="http://www.w3.org/2000/svg">
<path d="M57.6063 57.1461C59.1547 52.7138 59.9995 47.954 59.9995 42.9998C59.9995 38.0456 59.1547 33.2858 57.6063 28.8535C57.5685 28.7204 57.5237 28.5905 57.4694 28.4656C51.497 11.8866 35.6116 0 17.0002 0C-1.61129 0 -17.4971 11.8866 -23.4691 28.4656C-23.5233 28.5909 -23.5686 28.7204 -23.6059 28.8535C-25.1543 33.2858 -25.9992 38.0456 -25.9992 42.9998C-25.9992 47.954 -25.1543 52.7138 -23.6059 57.1461C-23.5681 57.2792 -23.5233 57.4091 -23.4691 57.534C-17.4966 74.1134 -1.61129 85.9996 17.0002 85.9996C35.6116 85.9996 51.497 74.113 57.4694 57.534C57.5237 57.4091 57.5685 57.2796 57.6063 57.1461ZM17.0002 79.836C15.3626 79.836 12.7224 76.8724 10.5157 70.2515C9.45055 67.0565 8.59787 63.3836 7.97654 59.3881H26.0238C25.4025 63.3836 24.5498 67.0561 23.4851 70.2515C21.278 76.8724 18.6377 79.836 17.0002 79.836ZM7.22865 53.2242C6.93237 49.9375 6.77581 46.5087 6.77581 42.9998C6.77581 39.4909 6.93237 36.062 7.22865 32.7754H26.7713C27.0676 36.062 27.2241 39.4909 27.2241 42.9998C27.2241 46.5087 27.0676 49.9375 26.7713 53.2242H7.22865ZM-19.8357 43.0002C-19.8357 39.4539 -19.3306 36.0234 -18.3908 32.7758H1.0462C0.758135 36.1303 0.611845 39.5681 0.611845 43.0002C0.611845 46.4323 0.757725 49.8701 1.0462 53.2246H-18.3908C-19.3306 49.9766 -19.8357 46.5465 -19.8357 43.0002ZM17.0002 6.16396C18.6377 6.16396 21.2784 9.12759 23.4851 15.7485C24.5498 18.9435 25.4029 22.6164 26.0238 26.6115H7.97613C8.59746 22.616 9.45014 18.9435 10.5153 15.7485C12.7224 9.12759 15.3626 6.16396 17.0002 6.16396ZM32.9537 32.7758H52.3908C53.3306 36.0234 53.8356 39.4539 53.8356 43.0002C53.8356 46.5465 53.3306 49.977 52.3908 53.2246H32.9537C33.2418 49.8701 33.3881 46.4323 33.3881 43.0002C33.3881 39.5681 33.2418 36.1303 32.9537 32.7758ZM49.9823 26.6119H32.2465C31.1502 19.052 29.2693 12.2696 26.6307 7.44442C36.8609 10.2178 45.3363 17.2985 49.9823 26.6119ZM7.36919 7.44401C4.7306 12.2692 2.84977 19.0516 1.75341 26.6119H-15.9824C-11.336 17.2985 -2.86093 10.2178 7.36919 7.44401ZM-15.9824 59.3881H1.75341C2.84977 66.948 4.7306 73.7304 7.36919 78.556C-2.86093 75.7822 -11.336 68.7019 -15.9824 59.3881ZM26.6307 78.556C29.2693 73.7308 31.1502 66.9484 32.2465 59.3881H49.9823C45.3363 68.7019 36.8609 75.7822 26.6307 78.556Z" fill="#6574FF"/>
</svg>
