<svg width="60" height="86" viewBox="0 0 60 86" fill="none" xmlns="http://www.w3.org/2000/svg">
<path d="M45.6114 46.3872C44.2096 46.3872 43.0738 47.5234 43.0738 48.9248V74.9986H29.0756V48.9248C29.0756 47.5234 27.9398 46.3872 26.5381 46.3872H7.46281C6.06107 46.3872 4.92526 47.5234 4.92526 48.9248V74.9986H-9.07425V48.9248C-9.07425 47.5234 -10.2101 46.3872 -11.6118 46.3872C-13.0135 46.3872 -14.1494 47.5234 -14.1494 48.9248V77.5362C-14.1494 78.9376 -13.0135 80.0737 -11.6118 80.0737H7.46281H26.5381H45.6114C47.0131 80.0737 48.1489 78.9376 48.1489 77.5362V48.9248C48.1489 47.5234 47.0128 46.3872 45.6114 46.3872ZM10.0004 74.9986V51.4623H24.0005V74.9986H10.0004Z" fill="#FFC165"/>
<path d="M59.2566 47.1302L18.7925 6.66939C17.8018 5.67839 16.1951 5.67873 15.2037 6.66939L-25.2567 47.1302C-26.2477 48.1212 -26.2477 49.7279 -25.2567 50.7186C-24.2654 51.7096 -22.6589 51.7096 -21.6679 50.7186L16.9983 12.0524L55.6682 50.7189C56.1635 51.2143 56.8131 51.4619 57.4624 51.4619C58.1117 51.4619 58.7613 51.2143 59.257 50.7186C60.2476 49.7279 60.2476 48.1212 59.2566 47.1302Z" fill="#FFC165"/>
</svg>
