<svg width="158" height="158" viewBox="0 0 158 158" fill="none" xmlns="http://www.w3.org/2000/svg">
<path d="M134.862 23.1384C119.94 8.21754 100.102 0 79 0C57.8984 0 38.0598 8.21754 23.1384 23.1384C8.21754 38.0598 0 57.8984 0 79C0 100.102 8.21754 119.94 23.1384 134.862C38.0598 149.782 57.8984 158 79 158C93.4462 158 107.581 154.063 119.877 146.615C122.792 144.849 123.724 141.054 121.958 138.139C120.192 135.223 116.397 134.291 113.482 136.057C103.114 142.337 91.191 145.656 79 145.656C42.2456 145.656 12.3438 115.754 12.3438 79C12.3438 42.2456 42.2456 12.3438 79 12.3438C115.754 12.3438 145.656 42.2456 145.656 79C145.656 92.1427 141.748 104.935 134.353 115.996C132.459 118.829 133.22 122.662 136.054 124.557C138.888 126.451 142.721 125.69 144.615 122.856C153.371 109.759 158 94.5936 158 79C158 57.8984 149.782 38.0598 134.862 23.1384Z" fill="#56AB2F"/>
<path d="M79 23.4531C75.5913 23.4531 72.8281 26.2163 72.8281 29.625V76.4436L50.1965 99.0753C47.7861 101.485 47.7861 105.393 50.1965 107.804C51.4015 109.009 52.9809 109.611 54.5606 109.611C56.1403 109.611 57.7197 109.009 58.9248 107.804L83.3641 83.3641C84.5217 82.2069 85.1719 80.6368 85.1719 79V29.625C85.1719 26.2163 82.4087 23.4531 79 23.4531Z" fill="#56AB2F"/>
</svg>
