<svg width="16" height="16" viewBox="0 0 16 16" fill="none" xmlns="http://www.w3.org/2000/svg">
<path d="M14.3151 7.34636C14.1984 7.15078 14.0023 7.04297 13.759 7.04297C13.3074 7.04459 12.7641 7.22365 12.3409 7.50997C11.9506 7.77408 11.3847 8.26357 10.9071 9.09816C10.8175 9.25473 10.6704 9.36092 10.513 9.38611C10.5125 9.34981 10.5127 9.30837 10.5127 9.26936C10.5127 9.18539 10.513 9.0857 10.5095 8.97572V2.97972C10.5095 2.38215 10.0235 1.89618 9.42595 1.89618C8.82839 1.89618 8.34242 2.38215 8.34242 2.97972V7.17841C8.34242 7.2529 8.28147 7.31385 8.20698 7.31385C8.13249 7.31385 8.07154 7.2529 8.07154 7.17841V1.08353C8.07154 0.485965 7.58557 0 6.988 0C6.39044 0 5.90447 0.485965 5.90447 1.08353V7.17841C5.90447 7.2529 5.84352 7.31385 5.76903 7.31385C5.69454 7.31385 5.63359 7.2529 5.63359 7.17841V2.30251C5.63359 1.7797 5.2083 1.35442 4.6855 1.35442C4.16269 1.35442 3.7374 1.7797 3.7374 2.30251V7.72018C3.7374 7.79467 3.67645 7.85562 3.60196 7.85562C3.52747 7.85562 3.46652 7.79467 3.46652 7.72018V4.33413C3.46652 3.81133 3.04123 3.38604 2.51572 3.38604C1.99291 3.38604 1.56763 3.81133 1.56763 4.33413L1.56817 11.7014C1.83038 15.4891 4.15375 16 6.39206 16C8.24653 16 9.91219 15.0801 10.7335 13.6097C10.8392 13.4391 11.1249 12.9899 11.4638 12.4574C12.3111 11.1265 13.0208 10.0083 13.1257 9.8095C13.3595 9.36688 13.6203 9.02096 13.8798 8.80913C14.1147 8.61734 14.2582 8.37274 14.375 8.15792C14.4351 8.04632 14.4877 7.63593 14.3151 7.34636Z" fill="white"/>
</svg>
