<svg width="22" height="22" viewBox="0 0 22 22" fill="none" xmlns="http://www.w3.org/2000/svg">
<path d="M15.5278 2.75C16.7571 2.75 17.9396 3.23583 18.8095 4.10758C19.6803 4.9775 20.1671 6.15083 20.1671 7.37917V14.6208C20.1671 17.1783 18.0862 19.25 15.5278 19.25H6.47207C3.91366 19.25 1.83374 17.1783 1.83374 14.6208V7.37917C1.83374 4.82167 3.90449 2.75 6.47207 2.75H15.5278ZM16.5646 7.51667C16.3721 7.50658 16.1887 7.57167 16.0503 7.7L11.9171 11C11.3854 11.4409 10.6237 11.4409 10.0837 11L5.95874 7.7C5.67366 7.48917 5.27949 7.51667 5.04207 7.76417C4.79457 8.01167 4.76707 8.40583 4.97699 8.68083L5.09707 8.8L9.26791 12.0542C9.78124 12.4575 10.4037 12.6775 11.0554 12.6775C11.7053 12.6775 12.3387 12.4575 12.8512 12.0542L16.9862 8.745L17.0596 8.67167C17.2787 8.40583 17.2787 8.02083 17.0495 7.755C16.9221 7.61842 16.747 7.535 16.5646 7.51667Z" fill="white" />
</svg>
