<svg width="22" height="22" viewBox="0 0 22 22" fill="none" xmlns="http://www.w3.org/2000/svg">
<path d="M10.986 1.83333C13.799 1.83333 16.0625 4.04688 16.0625 6.77967V8.18523C17.6413 8.67804 18.7916 10.1073 18.7916 11.8144V16.3399C18.7916 18.4532 17.0396 20.1667 14.8795 20.1667H7.12138C4.96039 20.1667 3.20831 18.4532 3.20831 16.3399V11.8144C3.20831 10.1073 4.3596 8.67804 5.93749 8.18523V6.77967C5.94681 4.04688 8.21026 1.83333 10.986 1.83333ZM10.9953 12.2689C10.5482 12.2689 10.185 12.6242 10.185 13.0614V15.0837C10.185 15.53 10.5482 15.8853 10.9953 15.8853C11.4517 15.8853 11.815 15.53 11.815 15.0837V13.0614C11.815 12.6242 11.4517 12.2689 10.9953 12.2689ZM11.0046 3.42745C9.11377 3.42745 7.57686 4.92137 7.56755 6.76145V7.98756H14.4324V6.77967C14.4324 4.93048 12.8955 3.42745 11.0046 3.42745Z" fill="white" />
</svg>
