<svg width="66" height="66" viewBox="0 0 66 66" fill="none" xmlns="http://www.w3.org/2000/svg">
<path fill-rule="evenodd" clip-rule="evenodd" d="M33 66C51.2253 66 66 51.2254 66 33C66 14.7746 51.2253 0 33 0C14.7747 0 0 14.7746 0 33C0 51.2254 14.7747 66 33 66ZM47.4142 31.5858L34.6863 18.8579C33.9053 18.0768 32.6389 18.0768 31.8579 18.8579C31.0768 19.6389 31.0768 20.9052 31.8579 21.6863L41.1716 31H20V35H41.1716L31.8579 44.3137C31.0768 45.0948 31.0768 46.3611 31.8579 47.1421C32.6389 47.9232 33.9053 47.9232 34.6863 47.1421L47.4142 34.4142C48.1953 33.6332 48.1953 32.3668 47.4142 31.5858Z" fill="white"/>
</svg>
