<svg width="318" height="60" viewBox="0 0 318 60" fill="none" xmlns="http://www.w3.org/2000/svg">
<path d="M30.4806 2.90642C30.4806 4.77944 29.8799 6.73858 28.6784 8.78384C27.4979 10.8291 25.8537 12.616 23.7458 14.1446C21.659 15.6516 19.4983 16.5989 17.2639 16.9864C15.9781 19.6345 15.0506 21.486 14.4815 22.5409L13.8175 23.6389C17.9912 24.6938 21.4482 26.2977 24.1885 28.4506C25.5797 29.5486 26.5177 30.8941 27.0026 32.4873C27.2555 33.3054 27.382 34.0051 27.382 34.5864C27.382 35.1677 27.266 35.6521 27.0342 36.0396C26.8234 36.4486 26.5704 36.7285 26.2753 36.8792C25.9802 37.0299 25.7694 37.1053 25.6429 37.1053C25.5165 37.1053 25.4532 37.0514 25.4532 36.9438C25.4532 36.8361 25.5692 36.5132 25.801 35.975C26.054 35.4583 26.1805 34.8447 26.1805 34.1343C26.1805 33.4238 26.0329 32.638 25.7378 31.7768C25.4427 30.9157 24.8946 30.1191 24.0936 29.3871C23.2926 28.6767 22.1754 28.0093 20.742 27.3849C19.3297 26.739 18.0966 26.2869 17.0426 26.0286C16.0097 25.7487 14.6185 25.4365 12.8689 25.0921C11.0772 27.654 9.21164 29.4086 7.27235 30.3559C6.11299 30.9372 5.08011 31.2278 4.1737 31.2278C3.28837 31.2278 2.49789 31.0448 1.80228 30.6789C0.600759 30.076 0 29.1611 0 27.9339C0 26.7067 0.790473 25.6303 2.37142 24.7045C4.16316 23.6281 6.58727 23.0899 9.64377 23.0899C10.7399 23.0899 11.7306 23.176 12.6159 23.3482C13.5645 21.8412 14.6712 19.7636 15.9359 17.1156C15.8095 17.1156 15.6935 17.1156 15.5881 17.1156C14.2601 17.1156 13.027 16.8895 11.8887 16.4374C10.7504 15.9853 9.84402 15.3717 9.16949 14.5967C8.28416 13.5848 7.84149 12.4438 7.84149 11.1736C7.84149 10.5062 7.99958 9.78494 8.31577 9.00989C8.65304 8.23485 9.38028 7.44904 10.4975 6.65247C11.6358 5.85589 13.0691 5.25308 14.7977 4.84403C15.0717 4.77944 15.3036 4.74715 15.4933 4.74715C15.683 4.74715 15.7989 4.80097 15.8411 4.90862C15.8832 5.01626 15.7989 5.11314 15.5881 5.19926C15.3773 5.28537 15.1349 5.34996 14.8609 5.39302C13.9545 5.50066 13.1113 5.81283 12.3314 6.32953C10.9823 7.21222 10.0443 8.56855 9.51729 10.3985C9.39082 10.8291 9.32758 11.2489 9.32758 11.658C9.32758 12.0455 9.40136 12.5191 9.54891 13.0789C9.69647 13.6386 10.0127 14.2199 10.4975 14.8227C10.9823 15.404 11.6358 15.8131 12.4579 16.0499C13.301 16.2867 14.0283 16.4051 14.6396 16.4051C15.2719 16.4051 15.8516 16.3728 16.3786 16.3082L19.0662 9.39742C20.9212 4.53186 23.1345 1.53932 25.7062 0.419816C26.3807 0.139939 27.0342 0 27.6665 0C28.32 0 28.9313 0.21529 29.5004 0.64587C30.0907 1.05492 30.4069 1.56085 30.449 2.16367C30.4701 2.42201 30.4806 2.6696 30.4806 2.90642ZM29.1526 2.93871C29.1526 2.12061 28.7838 1.71156 28.046 1.71156C26.9709 1.71156 25.664 2.6696 24.1252 4.58568C22.9237 6.11424 21.7644 7.96574 20.6471 10.1402C19.551 12.2931 18.5708 14.2845 17.7066 16.1145C20.6366 15.4471 23.2715 13.8109 25.6113 11.2059C27.9722 8.57931 29.1526 5.8236 29.1526 2.93871ZM11.6358 24.8983C10.6029 24.6615 9.53837 24.5431 8.44225 24.5431C7.34613 24.5431 6.21839 24.7045 5.05903 25.0275C2.63491 25.6734 1.21206 26.5883 0.790473 27.7724C0.706156 27.9877 0.663997 28.1922 0.663997 28.386C0.663997 28.9458 0.959107 29.3979 1.54933 29.7423C2.16063 30.1083 2.82462 30.2913 3.54132 30.2913C4.53204 30.2913 5.60709 30.0115 6.76645 29.4517C8.51603 28.5905 10.1391 27.0727 11.6358 24.8983Z" fill="white"/>
<path d="M30.225 16.1468C31.7637 16.1468 32.5331 17.1371 32.5331 19.1178C32.5331 20.022 32.3013 20.9908 31.8375 22.0242C31.2473 23.4236 30.362 24.6938 29.1815 25.8348C29.4556 26.373 29.9509 26.6422 30.6676 26.6422C31.2368 26.6422 31.7743 26.3515 32.2802 25.7702C32.9126 25.1028 33.3658 24.5216 33.6398 24.0264C33.9138 23.5097 34.1141 23.1329 34.2406 22.8961C34.367 22.6593 34.5251 22.3256 34.7148 21.895C34.9256 21.4429 35.0521 21.1738 35.0943 21.0877C35.1364 20.98 35.2102 20.9262 35.3156 20.9262C35.5264 20.9047 35.6318 20.98 35.6318 21.1523C35.6318 21.2168 35.6107 21.2922 35.5686 21.3783L35.3788 21.8304C35.2524 22.1318 35.1575 22.3471 35.0943 22.4763C35.031 22.6055 34.9151 22.8423 34.7465 23.1868C34.5989 23.5097 34.4619 23.768 34.3354 23.9618C34.23 24.1556 34.0719 24.4139 33.8611 24.7368C33.6714 25.0598 33.4923 25.3181 33.3236 25.5119C33.1761 25.7056 32.9863 25.9209 32.7545 26.1578C32.5226 26.3946 32.3013 26.5776 32.0905 26.7067C31.5635 27.0297 31.0681 27.1911 30.6044 27.1911C29.7401 27.1911 29.0656 26.9113 28.5808 26.3515C27.6111 27.0835 26.7153 27.4495 25.8932 27.4495C24.3544 27.4495 23.585 26.4592 23.585 24.4785C23.585 23.5743 23.8169 22.6055 24.2806 21.5721C24.913 20.065 25.7983 18.7841 26.9366 17.7291C28.096 16.6742 29.1921 16.1468 30.225 16.1468ZM30.5728 17.1479C30.0036 17.1479 29.3291 17.5354 28.5492 18.3104C27.7692 19.0855 27.0736 20.1404 26.4623 21.4752C25.7245 23.0253 25.3556 24.2955 25.3556 25.2858C25.3556 26.2762 25.7245 26.7713 26.4623 26.7713C26.9893 26.7713 27.5795 26.4807 28.233 25.8994C27.8957 25.4042 27.7271 24.8768 27.7271 24.317C27.7692 23.3913 28.1381 22.9284 28.8337 22.9284C29.1078 22.9284 29.3291 23.0253 29.4977 23.219C29.6874 23.4128 29.7823 23.5958 29.7823 23.768C29.7823 23.9187 29.7612 24.0802 29.7191 24.2524C30.0774 23.7142 30.4885 22.9499 30.9522 21.9596C31.4792 20.8616 31.7427 19.7852 31.7427 18.7302C31.7427 17.6753 31.3527 17.1479 30.5728 17.1479Z" fill="white"/>
<path d="M37.7806 26.8359C38.0547 26.879 38.2444 26.9005 38.3498 26.9005C39.193 26.9005 40.0256 26.3946 40.8477 25.3827C41.2903 24.823 42.0808 23.4128 43.2191 21.1523C43.2613 21.0446 43.335 20.9908 43.4404 20.9908C43.6301 20.9693 43.725 21.0446 43.725 21.2168C43.725 21.2599 43.6723 21.3891 43.5669 21.6044C43.4826 21.7981 43.3983 22.0027 43.314 22.2179C43.2296 22.4117 43.0926 22.7023 42.9029 23.0899C42.7132 23.4774 42.5446 23.7896 42.397 24.0264C42.2705 24.2632 42.1019 24.5538 41.8911 24.8983C41.6803 25.2428 41.4695 25.5119 41.2587 25.7056L40.5947 26.4161C40.2364 26.7821 39.8148 27.0404 39.33 27.1911C38.55 27.4495 37.7912 27.471 37.0534 27.2557C36.5686 27.471 36.1365 27.5787 35.757 27.5787C34.2604 27.5787 33.354 26.9759 33.0378 25.7702C32.9746 25.4904 32.943 25.1567 32.943 24.7691C32.943 24.3601 33.0694 23.9726 33.3224 23.6066C33.5964 23.2406 33.881 23.0468 34.1761 23.0253C35.2511 20.937 36.1681 19.0532 36.9269 17.3739C37.7701 15.544 38.7503 14.629 39.8675 14.629C40.1626 14.629 40.4472 14.7043 40.7212 14.855C41.0163 14.9842 41.1217 15.1349 41.0374 15.3071C40.9742 15.4794 40.8266 15.5117 40.5947 15.404C40.3629 15.2964 40.1626 15.2425 39.994 15.2425C39.8253 15.2425 39.6778 15.2748 39.5513 15.3394C38.8346 15.6839 38.4763 16.4266 38.4763 17.5677C38.4763 18.1705 38.5606 18.6657 38.7292 19.0532C38.8978 19.4407 39.0876 19.8605 39.2984 20.3126C39.7832 21.4321 40.0256 22.3471 40.0256 23.0576C40.0256 23.768 39.8043 24.4677 39.3616 25.1567C38.9189 25.8456 38.3919 26.4053 37.7806 26.8359ZM36.7056 26.6099C37.6331 25.8779 38.0968 24.6938 38.0968 23.0576C38.0968 22.3902 38.0231 21.4752 37.8755 20.3126C37.7279 19.1501 37.6542 18.3643 37.6542 17.9552C37.6542 17.5461 37.6647 17.2663 37.6858 17.1156C36.0838 20.388 35.093 22.3794 34.7136 23.0899C35.1563 23.0899 35.3776 23.4128 35.3776 24.0587C35.3776 25.3289 35.8203 26.1793 36.7056 26.6099ZM34.3342 25.7379C34.3342 25.8671 34.3447 26.0071 34.3658 26.1578C34.5344 26.739 34.9244 27.0297 35.5357 27.0297C35.7887 27.0297 35.9994 26.9866 36.1681 26.9005C35.3881 26.4053 34.9666 25.598 34.9033 24.4785C34.5239 24.866 34.3342 25.2858 34.3342 25.7379Z" fill="white"/>
<path d="M78.279 20.3694C78.279 19.1685 77.7293 18.0361 76.6301 16.9725C75.0498 15.4627 72.8685 14.7079 70.0859 14.7079C67.6469 14.7079 64.9502 15.2397 61.9959 16.3034C60.45 16.8524 59.1103 17.6072 57.9766 18.568C56.2246 20.0777 55.3487 21.5875 55.3487 23.0972C55.3487 25.1216 56.6369 26.9402 59.2133 28.5529C60.1752 29.1362 62.0989 30.0969 64.9845 31.4351C67.9045 32.739 70.0344 33.8026 71.3741 34.6261C73.4009 35.8614 74.7922 37.1824 75.548 38.5892C76.3381 39.996 76.7331 41.2999 76.7331 42.5008C76.7331 44.2164 76.1663 45.9664 75.0327 47.7506C73.0402 50.9416 70.1203 53.6866 66.2728 55.9856C61.8413 58.6619 56.4995 60.0001 50.2473 60.0001C44.2356 60.0001 39.4606 58.4732 35.9223 55.4194C33.1741 53.0862 31.8 50.0838 31.8 46.4124C31.8 44.0792 32.6416 41.5058 34.3249 38.6922C36.0425 35.8785 38.138 33.8884 40.6114 32.7218C41.1267 32.5159 41.5046 32.4473 41.745 32.5159C42.0199 32.5846 41.8138 32.9105 41.1267 33.4938C39.6495 34.6605 38.4644 35.9472 37.5712 37.354C35.6475 40.3735 34.6856 43.6503 34.6856 47.1844C34.6856 49.5177 35.3383 51.5593 36.6437 53.3092C38.9797 56.4316 43.0333 58.1987 48.8045 58.6104C49.4572 58.6791 50.4191 58.7134 51.6901 58.7134C52.9955 58.7134 54.7475 58.4732 56.946 57.9928C59.179 57.5468 61.326 56.7919 63.3872 55.7282C67.8186 53.395 70.6871 50.3755 71.9925 46.6698C72.4047 45.5718 72.6108 44.5081 72.6108 43.4787C72.6108 41.1455 71.5631 39.0867 69.4675 37.3025C68.3339 36.4104 66.0151 35.2266 62.5112 33.7512C59.0416 32.2414 56.7056 31.092 55.5032 30.3028C52.8581 28.5186 51.5355 26.4083 51.5355 23.9722C51.5355 21.8448 52.7207 19.7689 55.091 17.7445C58.4919 14.8623 63.3013 13.4211 69.5191 13.4211C72.439 13.4211 74.8094 13.8672 76.6301 14.7593C78.4851 15.6171 79.6187 16.921 80.031 18.6709C80.0997 19.014 80.134 19.3572 80.134 19.7003C80.134 21.0385 79.5157 22.2394 78.279 23.3031C77.4202 23.9893 76.2694 24.5383 74.8265 24.9501C74.2082 25.1216 73.8647 25.053 73.796 24.7442C73.7273 24.2981 74.1567 24.0236 75.0842 23.9207C76.7331 23.7148 77.7465 22.8913 78.1244 21.4502C78.2274 21.0728 78.279 20.7125 78.279 20.3694Z" fill="white"/>
<path d="M96.8998 41.3685C96.2814 41.9861 95.4055 43.3929 94.2718 45.5889C93.1382 47.7506 92.4511 49.3804 92.2107 50.4784C92.0046 51.5421 91.9015 52.4171 91.9015 53.1033C91.9015 53.7553 92.1591 54.0812 92.6744 54.0812C93.3271 54.0812 94.1344 53.4808 95.0963 52.2798C96.5047 50.5299 97.896 48.2481 99.2701 45.4345C99.4075 45.1257 99.5621 44.9541 99.7339 44.9198C100.009 44.8169 100.146 44.9198 100.146 45.2286C100.146 45.4002 100.095 45.6061 99.9915 45.8463C96.8311 52.2284 94.1688 55.4194 92.0046 55.4194C91.0083 55.4194 90.201 54.939 89.5827 53.9783C89.2735 53.4636 89.1189 52.7774 89.1189 51.9195C89.1189 51.0617 89.2907 50.0152 89.6342 48.78C86.886 53.2063 84.5157 55.4194 82.5233 55.4194C81.9736 55.4194 81.4755 55.2478 81.0289 54.9047C79.9983 54.1842 79.4831 52.9489 79.4831 51.199C79.4831 47.8364 80.943 44.4223 83.863 40.9568C85.5119 39.0353 87.5387 37.7829 89.9434 37.1996C90.5961 37.028 91.2144 36.9422 91.7984 36.9422C93.3787 36.9422 94.7184 37.4912 95.8177 38.5892C96.1612 38.9667 96.2643 39.3269 96.1269 39.6701C95.9894 40.0132 95.6975 40.1504 95.2509 40.0818C94.873 38.8466 94.0485 38.2289 92.7775 38.2289C91.3003 38.2289 89.4796 39.3956 87.3154 41.7288C86.0787 43.1013 84.9279 44.714 83.863 46.5668C82.5233 48.7971 81.8534 50.5814 81.8534 51.9195C81.8534 53.2577 82.2828 53.9268 83.1416 53.9268C85.2028 53.9268 87.8994 50.7701 91.2316 44.4566C91.8843 43.1871 92.434 42.3293 92.8806 41.8832C93.3271 41.4028 93.8939 41.1626 94.581 41.1626C94.7184 41.1626 95.0619 41.2141 95.6116 41.317C96.1956 41.42 96.625 41.4371 96.8998 41.3685Z" fill="white"/>
<path d="M114.812 38.4348C110.586 45.8463 108.474 50.6843 108.474 52.9489C108.474 53.841 108.8 54.2871 109.453 54.2871C111.205 54.2871 113.558 51.3191 116.512 45.383C116.718 44.9027 116.924 44.714 117.13 44.8169C117.337 44.9198 117.44 45.0571 117.44 45.2286C117.44 45.4002 117.371 45.6061 117.234 45.8463C115.413 49.5177 113.867 52.0568 112.596 53.4636C111.359 54.8361 110.105 55.5223 108.834 55.5223C107.598 55.5223 106.653 55.042 106 54.0812C105.657 53.6352 105.485 53.0347 105.485 52.2798C105.485 51.4906 105.657 50.5471 106 49.4491C106.344 48.3511 107.288 46.5668 108.834 44.0963C109.212 43.4787 109.401 42.9983 109.401 42.6552C109.401 42.2778 109.109 42.0891 108.525 42.0891C107.941 42.0891 106.825 42.8611 105.176 44.4052C102.702 46.6698 100.315 50.0667 98.0133 54.5959C97.8072 54.939 97.5667 55.1621 97.2919 55.265C97.0514 55.3336 96.5533 55.3851 95.7976 55.4194C95.0418 55.4537 94.5437 55.5395 94.3032 55.6767C94.8529 54.5787 95.935 52.3313 97.5495 48.9344C100.435 42.9297 102.325 39.4985 103.218 38.6407C103.63 38.2289 104.197 38.0231 104.918 38.0231C105.056 38.0231 105.399 38.0745 105.949 38.1775C106.533 38.2804 106.962 38.2976 107.237 38.2289C105.966 38.9152 103.888 42.1405 101.002 47.905C102.617 45.9149 104.077 44.3365 105.382 43.1699C106.722 41.969 108.319 40.871 110.174 39.8759C112.029 38.8466 113.386 38.3319 114.245 38.3319C114.451 38.3319 114.64 38.3662 114.812 38.4348Z" fill="white"/>
<path d="M115.222 51.199C115.222 48.3511 116.596 43.5817 119.344 36.8908H116.665C116.493 36.8908 116.373 36.805 116.304 36.6334C116.27 36.4275 116.287 36.2388 116.356 36.0673C116.459 35.8614 116.596 35.7584 116.768 35.7584H119.86C121.096 33.0478 122.247 30.7832 123.312 28.9646C124.377 27.1461 125.356 25.928 126.249 25.3104C127.142 24.6584 127.778 24.3325 128.156 24.3325C128.568 24.3325 128.86 24.3668 129.032 24.4354C129.822 24.8128 130.217 25.602 130.217 26.8029C130.217 27.9696 129.822 29.3935 129.032 31.0748C128.242 32.7561 127.469 34.3173 126.713 35.7584H129.186C129.358 35.7584 129.461 35.8614 129.495 36.0673C129.564 36.2388 129.547 36.4275 129.444 36.6334C129.375 36.805 129.255 36.8908 129.083 36.8908H126.094C124.205 40.0818 121.921 42.9126 119.241 45.383L118.056 50.6328C117.953 51.0789 117.901 51.525 117.901 51.971C117.901 52.3828 118.022 52.8117 118.262 53.2577C118.503 53.7038 118.88 53.9268 119.396 53.9268C119.98 53.9268 120.632 53.7209 121.354 53.3092C123.003 52.0739 124.823 49.4834 126.816 45.5375C126.953 45.2286 127.108 45.0399 127.28 44.9713C127.486 44.9027 127.606 44.9541 127.64 45.1257C127.675 45.263 127.623 45.5031 127.486 45.8463C126.352 48.2138 125.459 49.8951 124.806 50.8902C122.951 53.8753 120.976 55.3679 118.88 55.3679C117.816 55.3679 116.94 54.9733 116.252 54.1842C115.565 53.395 115.222 52.3999 115.222 51.199ZM125.579 35.7584C127.846 31.7096 128.98 28.896 128.98 27.3176C128.98 26.6314 128.86 26.2883 128.619 26.2883C128.242 26.2883 127.658 26.8373 126.867 27.9352C126.112 29.0332 124.823 31.641 123.003 35.7584H125.579ZM124.909 36.8908H122.487C122.075 37.8515 121.148 40.1333 119.705 43.7361C121.56 41.8146 123.295 39.5328 124.909 36.8908Z" fill="white"/>
<path d="M136.204 37.3025C138.712 37.3025 139.966 38.8809 139.966 42.0376C139.966 43.4787 139.588 45.0228 138.832 46.6698C137.87 48.9001 136.427 50.9245 134.504 52.743C134.95 53.6008 135.758 54.0298 136.926 54.0298C137.853 54.0298 138.729 53.5665 139.554 52.6401C140.584 51.5764 141.323 50.65 141.769 49.8608C142.216 49.0373 142.542 48.4368 142.748 48.0594C142.954 47.682 143.212 47.1501 143.521 46.4639C143.865 45.7433 144.071 45.3144 144.14 45.1772C144.208 45.0056 144.329 44.9198 144.5 44.9198C144.844 44.8855 145.016 45.0056 145.016 45.2801C145.016 45.383 144.981 45.5031 144.913 45.6404L144.603 46.361C144.397 46.8413 144.243 47.1844 144.14 47.3903C144.037 47.5962 143.848 47.9736 143.573 48.5226C143.332 49.0373 143.109 49.4491 142.903 49.7579C142.731 50.0667 142.474 50.4784 142.13 50.9931C141.821 51.5078 141.529 51.9195 141.254 52.2284C141.014 52.5372 140.704 52.8803 140.326 53.2577C139.949 53.6352 139.588 53.9268 139.244 54.1327C138.386 54.6474 137.578 54.9047 136.823 54.9047C135.414 54.9047 134.315 54.4587 133.525 53.5665C131.944 54.7332 130.485 55.3165 129.145 55.3165C126.637 55.3165 125.383 53.7381 125.383 50.5814C125.383 49.1402 125.761 47.5962 126.517 45.9492C127.547 43.5473 128.99 41.5058 130.845 39.8245C132.735 38.1432 134.521 37.3025 136.204 37.3025ZM136.771 38.898C135.843 38.898 134.744 39.5156 133.473 40.7509C132.202 41.9861 131.068 43.6674 130.072 45.7948C128.87 48.2653 128.269 50.2897 128.269 51.8681C128.269 53.4464 128.87 54.2356 130.072 54.2356C130.931 54.2356 131.893 53.7724 132.958 52.846C132.408 52.0568 132.133 51.2161 132.133 50.324C132.202 48.8486 132.803 48.1109 133.937 48.1109C134.384 48.1109 134.744 48.2653 135.019 48.5741C135.328 48.8829 135.483 49.1746 135.483 49.4491C135.483 49.6892 135.448 49.9466 135.38 50.2211C135.964 49.3633 136.634 48.1452 137.389 46.5668C138.248 44.8169 138.678 43.1013 138.678 41.42C138.678 39.7387 138.042 38.898 136.771 38.898Z" fill="white"/>
<path d="M148.518 54.3386C148.964 54.4072 149.273 54.4415 149.445 54.4415C150.819 54.4415 152.176 53.6352 153.516 52.0225C154.237 51.1304 155.525 48.8829 157.381 45.2801C157.449 45.1086 157.569 45.0228 157.741 45.0228C158.05 44.9885 158.205 45.1086 158.205 45.383C158.205 45.4517 158.119 45.6575 157.947 46.0007C157.81 46.3095 157.673 46.6354 157.535 46.9786C157.398 47.2874 157.174 47.7506 156.865 48.3682C156.556 48.9858 156.281 49.4834 156.041 49.8608C155.835 50.2382 155.56 50.7015 155.216 51.2505C154.873 51.7994 154.529 52.2284 154.186 52.5372L153.104 53.6695C152.52 54.2528 151.833 54.6645 151.042 54.9047C149.771 55.3165 148.535 55.3508 147.332 55.0077C146.542 55.3508 145.838 55.5223 145.22 55.5223C142.781 55.5223 141.304 54.5616 140.788 52.6401C140.685 52.194 140.634 51.6622 140.634 51.0446C140.634 50.3926 140.84 49.775 141.252 49.1917C141.699 48.6084 142.162 48.2996 142.643 48.2653C144.395 44.937 145.89 41.9347 147.126 39.2583C148.5 36.3418 150.098 34.8835 151.918 34.8835C152.399 34.8835 152.863 35.0036 153.31 35.2438C153.791 35.4496 153.962 35.6898 153.825 35.9643C153.722 36.2388 153.482 36.2903 153.104 36.1187C152.726 35.9472 152.399 35.8614 152.125 35.8614C151.85 35.8614 151.609 35.9129 151.403 36.0158C150.235 36.5648 149.651 37.7486 149.651 39.5671C149.651 40.5279 149.789 41.317 150.063 41.9347C150.338 42.5523 150.647 43.2214 150.991 43.9419C151.781 45.7262 152.176 47.1844 152.176 48.3167C152.176 49.4491 151.815 50.5642 151.094 51.6622C150.373 52.7602 149.514 53.6523 148.518 54.3386ZM146.766 53.9783C148.277 52.8117 149.033 50.9245 149.033 48.3167C149.033 47.2531 148.913 45.7948 148.672 43.9419C148.432 42.0891 148.311 40.8367 148.311 40.1847C148.311 39.5328 148.329 39.0867 148.363 38.8466C145.752 44.062 144.138 47.2359 143.519 48.3682C144.241 48.3682 144.601 48.8829 144.601 49.9123C144.601 51.9367 145.323 53.292 146.766 53.9783ZM142.901 52.5886C142.901 52.7945 142.918 53.0175 142.952 53.2577C143.227 54.1842 143.863 54.6474 144.859 54.6474C145.271 54.6474 145.615 54.5787 145.89 54.4415C144.619 53.6523 143.932 52.3656 143.828 50.5814C143.21 51.199 142.901 51.8681 142.901 52.5886Z" fill="white"/>
<path d="M261.614 34.072C262.183 35.0581 262.467 36.4709 262.467 38.3102V39.0249C262.467 40.8864 262.178 42.3158 261.602 43.313C261.033 44.3102 260.257 44.8088 259.274 44.8088C258.23 44.8088 257.429 44.3047 256.869 43.2964C256.309 42.288 256.03 40.8808 256.03 39.0748V38.3102C256.03 36.4709 256.301 35.0581 256.844 34.072C257.395 33.0858 258.196 32.5928 259.248 32.5928C260.266 32.5928 261.055 33.0858 261.614 34.072Z" fill="white"/>
<path fill-rule="evenodd" clip-rule="evenodd" d="M186.409 22.1052L178.08 38.6842L186.409 55.2631H309.671L318 38.6842L309.671 22.1052H186.409ZM207.98 41.734C207.879 43.8504 207.238 45.529 206.059 46.77C204.889 48.011 203.345 48.6315 201.429 48.6315C199.368 48.6315 197.744 47.8116 196.556 46.1717C195.377 44.5207 194.771 42.2493 194.737 39.3573V38.2603C194.737 35.3684 195.335 33.0581 196.531 31.3296C197.735 29.6011 199.359 28.7368 201.403 28.7368C203.32 28.7368 204.855 29.3628 206.008 30.6149C207.162 31.867 207.823 33.5955 207.993 35.8005H204.316C204.232 33.6731 203.261 32.6094 201.403 32.6094C199.47 32.6094 198.473 34.3767 198.414 37.9113V39.1412C198.414 41.1246 198.647 42.5595 199.113 43.4459C199.588 44.3324 200.36 44.7756 201.429 44.7756C202.353 44.7756 203.049 44.5318 203.515 44.0443C203.99 43.5567 204.249 42.7867 204.291 41.734H207.98ZM222.267 29.0027V41.5346C222.267 43.7396 221.72 45.4736 220.625 46.7368C219.531 48 218.009 48.6315 216.058 48.6315C214.116 48.6315 212.59 48 211.479 46.7368C210.368 45.4736 209.812 43.7451 209.812 41.5512V29.0027H213.501V41.7839C213.552 43.7784 214.405 44.7756 216.058 44.7756C216.881 44.7756 217.504 44.5263 217.929 44.0277C218.361 43.529 218.577 42.7091 218.577 41.5678V29.0027H222.267ZM232.367 41.6177C232.783 42.0055 232.991 42.5207 232.991 43.1634C232.991 43.7507 232.796 44.2216 232.406 44.5761C232.024 44.9307 231.502 45.108 230.841 45.108C229.866 45.108 229.132 44.8808 228.64 44.4266C228.157 43.9723 227.915 43.2299 227.915 42.1994H224.226C224.226 43.518 224.493 44.6592 225.027 45.6232C225.57 46.5872 226.337 47.3296 227.33 47.8504C228.322 48.3712 229.433 48.6315 230.663 48.6315C232.469 48.6315 233.894 48.1329 234.937 47.1357C235.98 46.1274 236.502 44.759 236.502 43.0304C236.502 41.3351 236.074 39.9889 235.217 38.9917C234.369 37.9944 232.957 37.2133 230.981 36.6482C229.997 36.3268 229.293 35.9944 228.869 35.6509C228.445 35.2964 228.233 34.8365 228.233 34.2714C228.233 33.7063 228.437 33.2354 228.844 32.8587C229.251 32.482 229.781 32.2936 230.434 32.2936C231.172 32.2936 231.757 32.5318 232.189 33.0083C232.63 33.4847 232.851 34.0775 232.851 34.7867H236.527C236.527 32.9141 235.963 31.4404 234.835 30.3656C233.716 29.2797 232.245 28.7368 230.421 28.7368C228.75 28.7368 227.385 29.2742 226.325 30.349C225.265 31.4238 224.735 32.7922 224.735 34.4543C224.735 35.3185 224.841 36.0664 225.053 36.698C225.265 37.3185 225.591 37.867 226.032 38.3435C226.473 38.8199 227.033 39.2354 227.711 39.59C228.398 39.9335 229.242 40.2603 230.243 40.5706C231.244 40.8808 231.952 41.2299 232.367 41.6177ZM251.081 32.8919H246.272V48.3656H242.583V32.8919H237.863V29.0027H251.081V32.8919ZM265.304 44.0941C265.872 42.6426 266.156 40.9695 266.156 39.0748V38.2271C266.147 36.3435 265.851 34.6814 265.265 33.241C264.689 31.7894 263.874 30.6759 262.823 29.9002C261.78 29.1246 260.588 28.7368 259.248 28.7368C257.883 28.7368 256.674 29.1357 255.622 29.9335C254.571 30.7202 253.761 31.8393 253.193 33.2908C252.624 34.7423 252.34 36.421 252.34 38.3268V39.1911C252.349 41.0637 252.641 42.7202 253.218 44.1606C253.795 45.59 254.609 46.6925 255.661 47.4681C256.721 48.2437 257.925 48.6315 259.274 48.6315C260.614 48.6315 261.809 48.2382 262.861 47.4515C263.921 46.6648 264.735 45.5457 265.304 44.0941ZM273.102 29.0027L276.804 42.0498L280.48 29.0027H285.353V48.3656H281.651V44.4432L282.032 34.2714L278.025 48.3656H275.57L271.575 34.3213L271.957 44.4432V48.3656H268.255V29.0027H273.102ZM295.517 41.6177C295.933 42.0055 296.141 42.5207 296.141 43.1634C296.141 43.7507 295.946 44.2216 295.555 44.5761C295.174 44.9307 294.652 45.108 293.991 45.108C293.015 45.108 292.282 44.8808 291.79 44.4266C291.306 43.9723 291.065 43.2299 291.065 42.1994H287.375C287.375 43.518 287.643 44.6592 288.177 45.6232C288.72 46.5872 289.487 47.3296 290.479 47.8504C291.472 48.3712 292.583 48.6315 293.813 48.6315C295.619 48.6315 297.044 48.1329 298.087 47.1357C299.13 46.1274 299.652 44.759 299.652 43.0304C299.652 41.3351 299.223 39.9889 298.367 38.9917C297.519 37.9944 296.107 37.2133 294.131 36.6482C293.147 36.3268 292.443 35.9944 292.019 35.6509C291.595 35.2964 291.383 34.8365 291.383 34.2714C291.383 33.7063 291.586 33.2354 291.993 32.8587C292.4 32.482 292.931 32.2936 293.584 32.2936C294.321 32.2936 294.907 32.5318 295.339 33.0083C295.78 33.4847 296.001 34.0775 296.001 34.7867H299.677C299.677 32.9141 299.113 31.4404 297.985 30.3656C296.866 29.2797 295.394 28.7368 293.571 28.7368C291.9 28.7368 290.535 29.2742 289.474 30.349C288.414 31.4238 287.884 32.7922 287.884 34.4543C287.884 35.3185 287.99 36.0664 288.202 36.698C288.414 37.3185 288.741 37.867 289.182 38.3435C289.623 38.8199 290.183 39.2354 290.861 39.59C291.548 39.9335 292.392 40.2603 293.393 40.5706C294.393 40.8808 295.102 41.2299 295.517 41.6177Z" fill="white"/>
</svg>
