<svg width="30" height="30" viewBox="0 0 30 30" fill="none" xmlns="http://www.w3.org/2000/svg">
<g clip-path="url(#clip0)">
<path d="M8.20089 0.93245C8.20089 0.416494 7.7844 0 7.26844 0H0.989945C0.47399 0 0.0574951 0.416494 0.0574951 0.93245V7.21406C0.0574951 7.73001 0.47399 8.14651 0.989945 8.14651H7.27155C7.78751 8.14651 8.204 7.73001 8.204 7.21406V0.93245H8.20089Z" fill="white"/>
<path d="M19.0702 0.93245C19.0702 0.416494 18.6537 0 18.1377 0H11.8592C11.3433 0 10.9268 0.416494 10.9268 0.93245V7.21406C10.9268 7.73001 11.3433 8.14651 11.8592 8.14651H18.1377C18.6537 8.14651 19.0702 7.73001 19.0702 7.21406V0.93245Z" fill="white"/>
<path d="M29.9394 0.93245C29.9394 0.416494 29.5229 0 29.007 0H22.7285C22.2125 0 21.796 0.416494 21.796 0.93245V7.21406C21.796 7.73001 22.2125 8.14651 22.7285 8.14651H29.0101C29.5261 8.14651 29.9425 7.73001 29.9425 7.21406V0.93245H29.9394Z" fill="white"/>
<path d="M8.20089 11.8608C8.20089 11.3448 7.7844 10.9283 7.26844 10.9283H0.989945C0.47399 10.9283 0.0574951 11.3448 0.0574951 11.8608V18.1393C0.0574951 18.6552 0.47399 19.0717 0.989945 19.0717H7.27155C7.78751 19.0717 8.204 18.6552 8.204 18.1393V11.8608H8.20089Z" fill="white"/>
<path d="M19.0702 11.8608C19.0702 11.3448 18.6537 10.9283 18.1377 10.9283H11.8592C11.3433 10.9283 10.9268 11.3448 10.9268 11.8608V18.1393C10.9268 18.6552 11.3433 19.0717 11.8592 19.0717H18.1377C18.6537 19.0717 19.0702 18.6552 19.0702 18.1393V11.8608Z" fill="white"/>
<path d="M29.9394 11.8608C29.9394 11.3448 29.5229 10.9283 29.007 10.9283H22.7285C22.2125 10.9283 21.796 11.3448 21.796 11.8608V18.1393C21.796 18.6552 22.2125 19.0717 22.7285 19.0717H29.0101C29.5261 19.0717 29.9425 18.6552 29.9425 18.1393V11.8608H29.9394Z" fill="white"/>
<path d="M7.26844 21.8535H0.989945C0.47399 21.8535 0.0574951 22.27 0.0574951 22.786V29.0676C0.0574951 29.5836 0.47399 30 0.989945 30H7.27155C7.78751 30 8.204 29.5836 8.204 29.0676V22.786C8.20089 22.2731 7.7844 21.8535 7.26844 21.8535Z" fill="white"/>
<path d="M18.1377 21.8535H11.8592C11.3433 21.8535 10.9268 22.27 10.9268 22.786V29.0676C10.9268 29.5836 11.3433 30 11.8592 30H18.1377C18.6537 30 19.0702 29.5836 19.0702 29.0676V22.786C19.0702 22.2731 18.6536 21.8535 18.1377 21.8535Z" fill="white"/>
<path d="M29.007 21.8535H22.7285C22.2125 21.8535 21.796 22.27 21.796 22.786V29.0676C21.796 29.5836 22.2125 30 22.7285 30H29.0101C29.5261 30 29.9425 29.5836 29.9425 29.0676V22.786C29.9394 22.2731 29.5229 21.8535 29.007 21.8535Z" fill="white"/>
</g>
<defs>
<clipPath id="clip0">
<rect width="30" height="30" fill="white"/>
</clipPath>
</defs>
</svg>
