<svg width="30" height="30" viewBox="0 0 30 30" fill="none" xmlns="http://www.w3.org/2000/svg">
<path d="M15.1371 0L0.22998 12.5806H29.77L15.1371 0Z" fill="white"/>
<path d="M11.1065 20.5602H7.62427V23.272H11.1065V20.5602Z" fill="white"/>
<path d="M21.8349 20.3157H17.9229C17.2635 20.3157 16.9153 20.8936 16.9153 21.553V29.992H23.1093V21.5605C23.0723 20.8788 22.5166 20.338 21.8349 20.3157Z" fill="white"/>
<path d="M2.97876 14.1291V28.525C2.97876 29.34 3.63817 29.9994 4.44576 29.9994C4.4754 29.9994 4.49762 29.9994 4.52726 29.9994H15.3668V21.5604C15.3668 20.049 16.4114 18.7746 17.9229 18.7746H21.8349C23.3686 18.7968 24.6207 20.0268 24.6578 21.5604V29.9994H25.4728C26.2878 30.0216 26.962 29.377 26.9842 28.5694C26.9842 28.5546 26.9842 28.5398 26.9842 28.5324V14.1291H2.97876ZM12.6476 23.798C12.6476 24.2277 12.2994 24.5685 11.8771 24.5685H6.84631C6.41658 24.5685 6.07576 24.2203 6.07576 23.798V19.9304C6.07576 19.5007 6.42399 19.1599 6.84631 19.1599H11.8771C12.3068 19.1599 12.6476 19.5081 12.6476 19.9304V23.798Z" fill="white"/>
</svg>
