<svg width="31" height="30" viewBox="0 0 31 30" fill="none" xmlns="http://www.w3.org/2000/svg">
<g clip-path="url(#clip0)">
<path d="M0.834642 15.917C2.79291 18.3711 8.61816 24.9152 15.5093 24.9152C22.4004 24.9152 28.2257 18.3713 30.1839 15.917C30.6051 15.3717 30.6051 14.6033 30.1839 14.083C28.2257 11.6289 22.4004 5.08482 15.5093 5.08482C8.61816 5.06003 2.79291 11.6041 0.834642 14.0582C0.388453 14.6035 0.388453 15.3717 0.834642 15.917ZM15.5093 9.02615C18.8061 9.02615 21.4585 11.6785 21.4585 14.9753C21.4585 18.2722 18.8061 20.9245 15.5093 20.9245C12.2125 20.9245 9.56011 18.2722 9.56011 14.9753C9.56011 11.6785 12.2125 9.02615 15.5093 9.02615Z" fill="white"/>
<path d="M15.5093 17.9499C17.1521 17.9499 18.4839 16.6181 18.4839 14.9753C18.4839 13.3325 17.1521 12.0007 15.5093 12.0007C13.8664 12.0007 12.5347 13.3325 12.5347 14.9753C12.5347 16.6181 13.8664 17.9499 15.5093 17.9499Z" fill="white"/>
</g>
<defs>
<clipPath id="clip0">
<rect width="30" height="30" fill="white" transform="translate(0.5)"/>
</clipPath>
</defs>
</svg>
