<svg width="470" height="470" viewBox="0 0 470 470" fill="none" xmlns="http://www.w3.org/2000/svg">
<g clip-path="url(#clip0)">
<path d="M235.754 273.141C251.43 257.16 261.156 236.285 263.301 214H198.398C197.25 214 196.121 213.719 195.105 213.176L168.398 198.934L141.699 213.176C140.684 213.719 139.551 214 138.398 214H73.5117C75.6562 236.285 85.3789 257.156 101.055 273.141C119.176 291.746 143.094 302 168.398 302C193.707 302 217.633 291.746 235.754 273.141V273.141Z" fill="white"/>
<path d="M120 304.602V324.035L132.082 331.785C153.344 345.559 180.641 345.855 202.199 332.547L216 323.938V304.738C185.762 319.801 150.195 319.75 120 304.602Z" fill="white"/>
<path d="M56 111H272V132H56V111Z" fill="white"/>
<path d="M122.512 166.062C115.488 166.062 110.238 169.762 110.238 173.062C110.238 176.363 115.488 180.062 122.512 180.062C129.539 180.062 134.785 176.367 134.785 173.062C134.785 169.758 129.539 166.062 122.512 166.062Z" fill="white"/>
<path d="M411.73 267.02L426.539 198.43L384.023 218.836C374.781 223.301 364.008 223.301 354.77 218.836L312.109 198.359L326.25 266.727L411.73 267.02Z" fill="white"/>
<path d="M69.5625 97H267.219C267.098 95.3047 266.941 93.4609 266.738 91.7852C260.879 44.1094 219.699 8 170.953 8H165.953C140.82 8.00781 116.676 17.7695 98.6016 35.2266C81.5625 51.4805 71.207 73.5117 69.5625 97V97Z" fill="white"/>
<path d="M209.629 344.563C183.516 360.723 150.414 360.344 124.676 343.59L111.391 335H63.3008C30.4336 334.91 3.08203 360.227 0.632812 393H255V381.735C255.008 365.422 259.055 349.367 266.785 335H225.062L209.629 344.563Z" fill="white"/>
<path d="M264 146H73V200H136.652L165.109 184.824C167.168 183.727 169.641 183.727 171.699 184.824L200.152 200H264V146ZM122.512 194.059C107.781 194.059 96.2383 184.836 96.2383 173.059C96.2383 161.281 107.781 152.059 122.512 152.059C137.246 152.059 148.785 161.281 148.785 173.059C148.785 184.836 137.246 194.059 122.512 194.059ZM214.293 194.059C199.562 194.059 188.02 184.836 188.02 173.059C188.02 161.281 199.562 152.059 214.293 152.059C229.027 152.059 240.566 161.281 240.566 173.059C240.566 184.836 229.027 194.059 214.293 194.059Z" fill="white"/>
<path d="M264.395 439.531C258.813 429.562 255.672 418.414 255.227 407H0V443H266.336C265.672 441 265.023 440.766 264.406 439.676C264.398 439.668 264.398 439.539 264.395 439.531V439.531Z" fill="white"/>
<path d="M414.227 281.027L323.965 280.719L282.805 334.91C273.816 348.875 269.023 365.125 269 381.734V404.199C269.039 414.109 271.613 423.844 276.484 432.477C276.484 432.484 276.586 432.566 276.594 432.574C286.773 450.684 305.902 461.922 326.676 462H412.117C432.918 461.926 452.078 450.691 462.301 432.574C462.301 432.566 462.406 432.406 462.41 432.398C467.313 423.805 469.926 414.094 470 404.199V382.09C469.938 365.266 464.988 348.82 455.75 334.758L414.227 281.027Z" fill="white"/>
<path d="M214.293 166.062C207.27 166.062 202.02 169.762 202.02 173.062C202.02 176.363 207.27 180.062 214.293 180.062C221.316 180.062 226.566 176.367 226.566 173.062C226.566 169.758 221.32 166.062 214.293 166.062Z" fill="white"/>
</g>
<defs>
<clipPath id="clip0">
<rect width="470" height="470" fill="white"/>
</clipPath>
</defs>
</svg>
