<svg width="60" height="56" viewBox="0 0 60 56" fill="none" xmlns="http://www.w3.org/2000/svg">
<g filter="url(#filter0_d)">
<circle cx="30" cy="26" r="17" fill="#6A36FF"/>
</g>
<path d="M36.7011 22.2633H23.2989C23.1339 22.2633 23 22.3972 23 22.5622V29.4377C23 29.6027 23.1339 29.7367 23.2989 29.7367H36.7011C36.8661 29.7367 37 29.6027 37 29.4377V22.5622C37 22.3972 36.8662 22.2633 36.7011 22.2633ZM36.1032 26.6206C36.1032 26.733 36.0199 26.8279 35.9084 26.8427C34.9728 26.9676 34.2338 27.7085 34.1115 28.6445C34.097 28.7563 34.002 28.8399 33.8893 28.8399H26.1107C25.9982 28.8399 25.903 28.7563 25.8885 28.6445C25.7662 27.7085 25.0271 26.9676 24.0914 26.8427C23.9801 26.8279 23.8968 26.733 23.8968 26.6206V25.3792C23.8968 25.2668 23.9801 25.1719 24.0914 25.157C25.0271 25.0322 25.7662 24.2913 25.8885 23.3552C25.903 23.2437 25.9982 23.1601 26.1107 23.1601H33.8893C34.002 23.1601 34.0972 23.2437 34.1115 23.3553C34.2338 24.2914 34.9729 25.0323 35.9084 25.1571C36.0199 25.1721 36.1032 25.267 36.1032 25.3794V26.6206Z" fill="white"/>
<path d="M30 23.3594C28.9268 23.3594 28.0569 24.5417 28.0569 26C28.0569 27.4584 28.9268 28.6407 30 28.6407C31.0733 28.6407 31.9431 27.4584 31.9431 26C31.9431 24.5417 31.0733 23.3594 30 23.3594ZM30.882 27.4739C30.882 27.5977 30.7816 27.6981 30.6578 27.6981H29.5509C29.4269 27.6981 29.3267 27.5977 29.3267 27.4739V27.3838C29.3267 27.2599 29.4269 27.1596 29.5509 27.1596H29.6949L29.6945 25.0101L29.4831 25.1331C29.4211 25.1693 29.3458 25.1733 29.2802 25.1448C29.2146 25.1159 29.1666 25.0575 29.1513 24.9874L29.1231 24.8581C29.1016 24.7599 29.148 24.6594 29.2367 24.6122L29.7703 24.3281C29.8027 24.3107 29.8389 24.3018 29.8756 24.3018H30.2535C30.3773 24.3018 30.4777 24.4021 30.4777 24.526V27.1596H30.6575C30.7816 27.1596 30.8817 27.2599 30.8817 27.3838V27.4739H30.882Z" fill="white"/>
<defs>
<filter id="filter0_d" x="0" y="0" width="60" height="60" filterUnits="userSpaceOnUse" color-interpolation-filters="sRGB">
<feFlood flood-opacity="0" result="BackgroundImageFix"/>
<feColorMatrix in="SourceAlpha" type="matrix" values="0 0 0 0 0 0 0 0 0 0 0 0 0 0 0 0 0 0 127 0"/>
<feMorphology radius="2" operator="erode" in="SourceAlpha" result="effect1_dropShadow"/>
<feOffset dy="4"/>
<feGaussianBlur stdDeviation="7.5"/>
<feColorMatrix type="matrix" values="0 0 0 0 0.415686 0 0 0 0 0.211765 0 0 0 0 1 0 0 0 0.35 0"/>
<feBlend mode="normal" in2="BackgroundImageFix" result="effect1_dropShadow"/>
<feBlend mode="normal" in="SourceGraphic" in2="effect1_dropShadow" result="shape"/>
</filter>
</defs>
</svg>
