<svg width="60" height="56" viewBox="0 0 60 56" fill="none" xmlns="http://www.w3.org/2000/svg">
<g filter="url(#filter0_d)">
<circle cx="30" cy="26" r="17" fill="#FFBB36"/>
</g>
<path d="M31.3854 28.3406C31.3854 27.942 31.2736 27.626 31.05 27.3927C30.8312 27.1545 30.4569 26.9357 29.9271 26.7364C29.3972 26.5371 28.9403 26.3403 28.5562 26.1458C28.1722 25.9465 27.8417 25.7205 27.5646 25.4677C27.2924 25.2101 27.0785 24.9087 26.9229 24.5635C26.7722 24.2184 26.6969 23.8076 26.6969 23.3312C26.6969 22.5097 26.9594 21.8364 27.4844 21.3114C28.0094 20.7864 28.7069 20.4802 29.5771 20.3927V18.8323H30.7437V20.4146C31.6042 20.5361 32.2774 20.8958 32.7635 21.4937C33.2496 22.0868 33.4927 22.8573 33.4927 23.8052H31.3854C31.3854 23.2219 31.2639 22.7868 31.0208 22.5C30.7826 22.2083 30.4618 22.0625 30.0583 22.0625C29.6597 22.0625 29.351 22.1767 29.1323 22.4052C28.9135 22.6288 28.8042 22.9399 28.8042 23.3385C28.8042 23.708 28.9111 24.0045 29.125 24.2281C29.3389 24.4517 29.7351 24.6802 30.3135 24.9135C30.8969 25.1469 31.3757 25.368 31.75 25.5771C32.1243 25.7812 32.4403 26.0146 32.6979 26.2771C32.9556 26.5347 33.1524 26.8312 33.2885 27.1667C33.4246 27.4972 33.4927 27.8837 33.4927 28.326C33.4927 29.1524 33.2351 29.8232 32.7198 30.3385C32.2045 30.8538 31.4948 31.1576 30.5906 31.25V32.701H29.4312V31.2573C28.4347 31.1503 27.6618 30.7979 27.1125 30.2C26.5681 29.5972 26.2958 28.7976 26.2958 27.801H28.4031C28.4031 28.3795 28.5392 28.8243 28.8115 29.1354C29.0885 29.4417 29.4847 29.5948 30 29.5948C30.4278 29.5948 30.7656 29.483 31.0135 29.2594C31.2615 29.0309 31.3854 28.7246 31.3854 28.3406Z" fill="white"/>
<defs>
<filter id="filter0_d" x="0" y="0" width="60" height="60" filterUnits="userSpaceOnUse" color-interpolation-filters="sRGB">
<feFlood flood-opacity="0" result="BackgroundImageFix"/>
<feColorMatrix in="SourceAlpha" type="matrix" values="0 0 0 0 0 0 0 0 0 0 0 0 0 0 0 0 0 0 127 0"/>
<feMorphology radius="2" operator="erode" in="SourceAlpha" result="effect1_dropShadow"/>
<feOffset dy="4"/>
<feGaussianBlur stdDeviation="7.5"/>
<feColorMatrix type="matrix" values="0 0 0 0 1 0 0 0 0 0.733333 0 0 0 0 0.211765 0 0 0 0.35 0"/>
<feBlend mode="normal" in2="BackgroundImageFix" result="effect1_dropShadow"/>
<feBlend mode="normal" in="SourceGraphic" in2="effect1_dropShadow" result="shape"/>
</filter>
</defs>
</svg>
