<svg width="32" height="32" viewBox="0 0 32 32" fill="#888C9F" xmlns="http://www.w3.org/2000/svg" >
<path d="M16 0C7.17725 0 0 7.17725 0 16C0 24.8228 7.17725 32 16 32C24.8228 32 32 24.8228 32 16C32 7.17725 24.8228 0 16 0ZM16 6.66675C16.7361 6.66675 17.3333 7.26392 17.3333 8C17.3333 8.73608 16.7361 9.33325 16 9.33325C15.2639 9.33325 14.6667 8.73608 14.6667 8C14.6667 7.26392 15.2639 6.66675 16 6.66675ZM19 25.3333H13C12.2627 25.3333 11.6667 24.7361 11.6667 24C11.6667 23.2639 12.2627 22.6667 13 22.6667H14.6667V14.6667H13.6667C12.9294 14.6667 12.3333 14.0693 12.3333 13.3333C12.3333 12.5974 12.9294 12 13.6667 12H16C16.7373 12 17.3333 12.5974 17.3333 13.3333V22.6667H19C19.7373 22.6667 20.3333 23.2639 20.3333 24C20.3333 24.7361 19.7373 25.3333 19 25.3333Z" />
</svg>
