<svg width="32" height="32" viewBox="0 0 32 32" fill="none" xmlns="http://www.w3.org/2000/svg">
<path d="M31.6377 15.4749H21.3365C21.1367 15.4749 20.9745 15.637 20.9745 15.8365V20.3038C20.9745 20.7025 20.6506 21.0275 20.2508 21.0275H11.7488C11.3498 21.0275 11.0251 20.7028 11.0251 20.3038V15.8365C11.0251 15.6367 10.8633 15.4749 10.6631 15.4749H0.361681C0.161813 15.4749 0 15.637 0 15.8365V30.6598C0 30.8597 0.161813 31.0215 0.361681 31.0215H31.6377C31.8375 31.0215 32 30.8597 32 30.6598V15.8365C32 15.637 31.8379 15.4749 31.6377 15.4749Z" fill="#888C9F"/>
<path d="M18.6201 19.2287C18.7856 19.2287 18.9193 19.095 18.9193 18.9299V16.1602C18.9193 15.9948 18.7856 15.8611 18.6201 15.8611H13.3799C13.2144 15.8611 13.0807 15.9951 13.0807 16.1602V18.9299C13.0807 19.0954 13.2144 19.2287 13.3799 19.2287H18.6201Z" fill="#888C9F"/>
<path d="M31.6377 4.73199H21.6532V2.06389C21.6532 1.46429 21.1671 0.978516 20.5682 0.978516H11.4322C10.8326 0.978516 10.3468 1.46462 10.3468 2.06389V4.73199H0.361681C0.161813 4.73199 0 4.89413 0 5.094V13.4031C0 13.6029 0.161813 13.7647 0.361681 13.7647H31.6377C31.8375 13.7647 32 13.6029 32 13.4031V5.094C32 4.89413 31.8379 4.73199 31.6377 4.73199ZM12.5179 3.14926H19.4825V4.73199H12.5179V3.14926Z" fill="#888C9F"/>
</svg>
