<svg width="32" height="32" viewBox="0 0 32 32" fill="none" xmlns="http://www.w3.org/2000/svg">
<path d="M28.6284 17.7324H14.6971V3.26455C14.6971 2.91602 14.5484 2.58272 14.288 2.34969C14.0272 2.11733 13.6769 2.00386 13.3328 2.0462C5.73206 2.90552 0 9.31297 0 16.951C0 25.2278 6.73363 31.9601 15.0098 31.9601C22.4015 31.9601 28.7782 26.4468 29.8427 19.135C29.8932 18.7834 29.7892 18.4251 29.5558 18.1561C29.3231 17.8872 28.9844 17.7324 28.6284 17.7324Z" fill="#888C9F"/>
<path d="M17.3601 0.0413721C17.1711 0.028501 16.9885 0.0948889 16.8524 0.222923C16.7155 0.351295 16.638 0.530136 16.638 0.717784V15.8925L31.3226 15.8881C31.5062 15.8881 31.6819 15.8136 31.809 15.6822C31.9367 15.5501 32.0054 15.3726 31.9997 15.1893C31.7422 7.08561 25.4483 0.573492 17.3601 0.0413721Z" fill="#888C9F"/>
</svg>
