<svg width="60" height="56" viewBox="0 0 60 56" fill="none" xmlns="http://www.w3.org/2000/svg">
<g filter="url(#filter0_d)">
<circle cx="30" cy="26" r="17" fill="#36FFF3"/>
</g>
<path d="M35.6083 23.6418H24.3917C24.2272 23.6418 24.0938 23.7753 24.0938 23.9397V32.4291C24.0938 32.5935 24.2272 32.727 24.3917 32.727H35.6085C35.7729 32.727 35.9064 32.5935 35.9064 32.4291V23.9397C35.9062 23.7753 35.7731 23.6418 35.6083 23.6418ZM31.9114 26.8191C31.9114 26.9426 31.8114 27.0425 31.688 27.0425H28.312C28.1886 27.0425 28.0886 26.9426 28.0886 26.8191V25.851C28.0886 25.7275 28.1886 25.6276 28.312 25.6276H31.688C31.8114 25.6276 31.9114 25.7275 31.9114 25.851V26.8191Z" fill="white"/>
<path d="M36.7021 19.2729H23.2979C23.1334 19.2729 23 19.4064 23 19.5708V22.4006C23 22.565 23.1334 22.6985 23.2979 22.6985H36.7021C36.8666 22.6985 37 22.565 37 22.4006V19.5708C37 19.4064 36.8666 19.2729 36.7021 19.2729Z" fill="white"/>
<defs>
<filter id="filter0_d" x="0" y="0" width="60" height="60" filterUnits="userSpaceOnUse" color-interpolation-filters="sRGB">
<feFlood flood-opacity="0" result="BackgroundImageFix"/>
<feColorMatrix in="SourceAlpha" type="matrix" values="0 0 0 0 0 0 0 0 0 0 0 0 0 0 0 0 0 0 127 0"/>
<feMorphology radius="2" operator="erode" in="SourceAlpha" result="effect1_dropShadow"/>
<feOffset dy="4"/>
<feGaussianBlur stdDeviation="7.5"/>
<feColorMatrix type="matrix" values="0 0 0 0 0.211765 0 0 0 0 1 0 0 0 0 0.952941 0 0 0 0.35 0"/>
<feBlend mode="normal" in2="BackgroundImageFix" result="effect1_dropShadow"/>
<feBlend mode="normal" in="SourceGraphic" in2="effect1_dropShadow" result="shape"/>
</filter>
</defs>
</svg>
