<svg width="211" height="57" viewBox="0 0 211 57" fill="none" xmlns="http://www.w3.org/2000/svg">
<g filter="url(#filter0_d)">
<path d="M37.3066 33.4592L41.5514 8.93359L48.3397 8.95043C50.698 8.95043 52.4947 9.52314 53.73 10.6686C54.9653 11.8028 55.5099 13.4198 55.3639 15.5198C55.173 18.0128 53.8704 19.8208 51.456 20.9437C52.3207 21.3031 52.9551 21.9319 53.3594 22.8303C53.7637 23.7175 53.9209 24.8124 53.8311 26.115C53.6626 28.3946 52.8485 30.1914 51.3886 31.5052C49.94 32.8079 47.9916 33.4592 45.5436 33.4592H37.3066ZM43.9939 22.7966L42.8484 29.3491L45.6783 29.3828C46.7451 29.3604 47.5817 28.973 48.1881 28.2206C48.8058 27.4569 49.1258 26.3733 49.1483 24.9696C49.1483 23.622 48.5812 22.9033 47.447 22.8135L43.9939 22.7966ZM44.6003 19.1919L46.8911 19.2256C48.1151 19.2031 49.0416 18.7876 49.6705 17.9791C50.2993 17.1706 50.5688 16.1374 50.479 14.8797C50.3667 13.7455 49.6929 13.1447 48.4577 13.0773L45.6783 13.0605L44.6003 19.1919Z" fill="white"/>
<path d="M74.7688 13.0605H68.8901L65.3527 33.4592H60.5015L64.0388 13.0605H58.2443L58.9686 8.93359H75.4931L74.7688 13.0605Z" fill="white"/>
<path d="M82.1635 33.7961C80.0074 33.7512 78.2949 33.0437 77.026 31.6737C75.7682 30.3037 75.0832 28.4002 74.9709 25.9634C74.926 25.1212 74.9597 24.2677 75.072 23.403L75.6952 19.3267C76.0209 17.1481 76.6554 15.2166 77.5987 13.5321C78.542 11.8477 79.7155 10.5956 81.1192 9.77581C82.5229 8.95605 84.1063 8.56301 85.8693 8.5967C88.0479 8.64161 89.7548 9.38839 90.9901 10.837C92.2366 12.2744 92.9047 14.2452 92.9946 16.7494C93.017 17.6927 92.9665 18.5855 92.843 19.4277L92.2871 23.1841C91.7818 26.553 90.642 29.1807 88.8677 31.0673C87.1046 32.9426 84.8699 33.8523 82.1635 33.7961ZM88.0086 19.2593C88.1433 18.1026 88.2107 17.2099 88.2107 16.581C88.1546 14.0768 87.2506 12.791 85.4988 12.7236C84.1512 12.6675 83.0619 13.1784 82.2309 14.2565C81.4112 15.3233 80.8384 17.0021 80.5128 19.293L79.9232 23.4199C79.7885 24.5316 79.7379 25.4019 79.7716 26.0308C79.8278 28.389 80.7542 29.6074 82.551 29.686C83.8312 29.731 84.8811 29.2593 85.7009 28.2711C86.5207 27.2829 87.0934 25.6658 87.419 23.4199L88.0086 19.2593Z" fill="white"/>
<path d="M111.473 25.2728C111.17 27.9342 110.187 30.0398 108.525 31.5895C106.874 33.1279 104.78 33.8635 102.242 33.7961C100.064 33.7512 98.3792 33.0325 97.1889 31.64C95.9985 30.2475 95.3697 28.316 95.3023 25.8455C95.2798 25.0033 95.3247 24.1554 95.437 23.302L96.0603 19.2424C96.5881 15.7725 97.7279 13.1166 99.4797 11.275C101.243 9.43331 103.427 8.54055 106.032 8.5967C108.312 8.63038 110.064 9.38839 111.288 10.8707C112.512 12.3418 113.124 14.481 113.124 17.2885L108.256 17.2716L108.289 15.604C108.256 13.7174 107.374 12.7461 105.645 12.6899C104.308 12.645 103.253 13.1335 102.478 14.1554C101.703 15.1661 101.181 16.8112 100.911 19.0908L100.305 23.3188C100.148 24.6664 100.064 25.5479 100.052 25.9634C99.9401 28.389 100.794 29.6411 102.613 29.7197C103.747 29.7759 104.651 29.4783 105.325 28.827C105.999 28.1644 106.47 26.9909 106.74 25.3065L111.473 25.2728Z" fill="white"/>
<path d="M125.622 28.4395H119.104L116.964 33.4592H111.709L123.399 8.93359H127.829L131.046 33.4592H126.044L125.622 28.4395ZM120.872 24.3126H125.286L124.595 15.6209L120.872 24.3126Z" fill="white"/>
<path d="M154.747 8.93359L150.502 33.4592H145.651L149.188 13.0605H144.825L142.433 24.599C141.726 27.6535 140.721 29.8826 139.418 31.2863C138.115 32.69 136.465 33.4143 134.466 33.4592H132.899L133.388 29.3491L133.893 29.3323C135.083 29.2312 136.055 28.5687 136.807 27.3447C137.571 26.1206 138.144 24.161 138.525 21.4659L138.795 19.6635L140.884 8.93359H154.747Z" fill="white"/>
<path d="M162.984 33.7961C160.827 33.7512 159.115 33.0437 157.846 31.6737C156.588 30.3037 155.903 28.4002 155.791 25.9634C155.746 25.1212 155.78 24.2677 155.892 23.403L156.515 19.3267C156.841 17.1481 157.475 15.2166 158.419 13.5321C159.362 11.8477 160.535 10.5956 161.939 9.77581C163.343 8.95605 164.926 8.56301 166.689 8.5967C168.868 8.64161 170.575 9.38839 171.81 10.837C173.057 12.2744 173.725 14.2452 173.815 16.7494C173.837 17.6927 173.787 18.5855 173.663 19.4277L173.107 23.1841C172.602 26.553 171.462 29.1807 169.688 31.0673C167.925 32.9426 165.69 33.8523 162.984 33.7961ZM168.829 19.2593C168.963 18.1026 169.031 17.2099 169.031 16.581C168.975 14.0768 168.071 12.791 166.319 12.7236C164.971 12.6675 163.882 13.1784 163.051 14.2565C162.231 15.3233 161.658 17.0021 161.333 19.293L160.743 23.4199C160.608 24.5316 160.558 25.4019 160.592 26.0308C160.648 28.389 161.574 29.6074 163.371 29.686C164.651 29.731 165.701 29.2593 166.521 28.2711C167.341 27.2829 167.913 25.6658 168.239 23.4199L168.829 19.2593Z" fill="white"/>
</g>
<g filter="url(#filter1_d)">
<path d="M196.884 33.7681H191.101L193.285 21.4008H184.813L182.629 33.7681H176.826L181.921 4.86473H187.725L185.662 16.5571H194.134L196.217 4.86473H202L196.884 33.7681Z" fill="white"/>
<path d="M196.884 33.7681H191.101L193.285 21.4008H184.813L182.629 33.7681H176.826L181.921 4.86473H187.725L185.662 16.5571H194.134L196.217 4.86473H202L196.884 33.7681Z" fill="url(#paint0_linear)"/>
</g>
<g filter="url(#filter2_d)">
<path d="M26.4421 27.4708H18.2701L15.5883 33.7681H9L23.6547 3H29.2083L33.2415 33.7681H26.97L26.4421 27.4708ZM20.4873 22.2935H26.0198L25.154 11.3894L20.4873 22.2935Z" fill="white"/>
<path d="M26.4421 27.4708H18.2701L15.5883 33.7681H9L23.6547 3H29.2083L33.2415 33.7681H26.97L26.4421 27.4708ZM20.4873 22.2935H26.0198L25.154 11.3894L20.4873 22.2935Z" fill="url(#paint1_linear)"/>
</g>
<path d="M65.7267 39.5632L63.4004 54.0783H60.7418L62.6804 42.0056H60.2895L58.9786 48.8345C58.5909 50.6423 58.0401 51.9615 57.3262 52.7923C56.6123 53.623 55.7076 54.0517 54.6122 54.0783H53.7537L54.0214 51.6458L54.2983 51.6358C54.9507 51.576 55.483 51.1839 55.8953 50.4595C56.3138 49.7351 56.6277 48.5753 56.8369 46.9802L56.9846 45.9135L58.1293 39.5632H65.7267Z" fill="white"/>
<path d="M70.2409 54.2777C69.0593 54.2511 68.1207 53.8324 67.4253 53.0216C66.736 52.2107 66.3606 51.0842 66.2991 49.642C66.2745 49.1436 66.2929 48.6384 66.3545 48.1267L66.696 45.7142C66.8745 44.4248 67.2222 43.2817 67.7392 42.2848C68.2561 41.2878 68.8992 40.5468 69.6685 40.0616C70.4378 39.5765 71.3055 39.3439 72.2718 39.3638C73.4657 39.3904 74.4011 39.8323 75.0781 40.6897C75.7612 41.5404 76.1274 42.7068 76.1766 44.1889C76.1889 44.7471 76.1612 45.2755 76.0935 45.774L75.7889 47.9971C75.512 49.9909 74.8873 51.5461 73.9149 52.6627C72.9487 53.7726 71.724 54.3109 70.2409 54.2777ZM73.4441 45.6743C73.518 44.9897 73.5549 44.4614 73.5549 44.0892C73.5242 42.6071 73.0287 41.8461 72.0687 41.8062C71.3302 41.773 70.7332 42.0754 70.2778 42.7134C69.8285 43.3448 69.5147 44.3384 69.3362 45.6942L69.0131 48.1367C68.9392 48.7946 68.9116 49.3097 68.93 49.6819C68.9608 51.0776 69.4685 51.7987 70.4532 51.8452C71.1548 51.8718 71.7302 51.5926 72.1795 51.0078C72.6287 50.4229 72.9426 49.4659 73.121 48.1367L73.4441 45.6743Z" fill="white"/>
<path d="M86.3034 49.2333C86.1373 50.8084 85.5988 52.0546 84.6879 52.9717C83.7833 53.8822 82.6355 54.3176 81.2446 54.2777C80.0507 54.2511 79.1276 53.8257 78.4752 53.0016C77.8229 52.1775 77.4783 51.0344 77.4413 49.5722C77.429 49.0738 77.4536 48.572 77.5152 48.0669L77.8567 45.6643C78.146 43.6107 78.7706 42.0389 79.7307 40.9489C80.6969 39.8589 81.8939 39.3306 83.3217 39.3638C84.571 39.3837 85.5311 39.8323 86.2019 40.7096C86.8727 41.5803 87.2081 42.8464 87.2081 44.5079L84.5402 44.4979L84.5587 43.511C84.5402 42.3944 84.0571 41.8195 83.1094 41.7863C82.377 41.7597 81.7985 42.0488 81.3739 42.6536C80.9492 43.2518 80.6631 44.2254 80.5154 45.5746L80.183 48.0769C80.0969 48.8744 80.0507 49.3961 80.0446 49.642C79.983 51.0776 80.4507 51.8186 81.4477 51.8651C82.0693 51.8984 82.5647 51.7222 82.934 51.3368C83.3032 50.9447 83.5617 50.2501 83.7094 49.2532L86.3034 49.2333Z" fill="white"/>
<path d="M92.5807 49.0339H88.1866L88.5743 46.6812H92.9685L92.5807 49.0339Z" fill="white"/>
<path d="M103.621 49.2333C103.455 50.8084 102.917 52.0546 102.006 52.9717C101.101 53.8822 99.9535 54.3176 98.5627 54.2777C97.3687 54.2511 96.4456 53.8257 95.7933 53.0016C95.1409 52.1775 94.7963 51.0344 94.7593 49.5722C94.747 49.0738 94.7717 48.572 94.8332 48.0669L95.1748 45.6643C95.464 43.6107 96.0887 42.0389 97.0487 40.9489C98.0149 39.8589 99.2119 39.3306 100.64 39.3638C101.889 39.3837 102.849 39.8323 103.52 40.7096C104.191 41.5803 104.526 42.8464 104.526 44.5079L101.858 44.4979L101.877 43.511C101.858 42.3944 101.375 41.8195 100.427 41.7863C99.695 41.7597 99.1166 42.0488 98.6919 42.6536C98.2673 43.2518 97.9811 44.2254 97.8334 45.5746L97.5011 48.0769C97.4149 48.8744 97.3687 49.3961 97.3626 49.642C97.3011 51.0776 97.7688 51.8186 98.7658 51.8651C99.3873 51.8984 99.8828 51.7222 100.252 51.3368C100.621 50.9447 100.88 50.2501 101.027 49.2532L103.621 49.2333Z" fill="white"/>
<path d="M111.376 51.1075H107.803L106.631 54.0783H103.751L110.157 39.5632H112.585L114.348 54.0783H111.607L111.376 51.1075ZM108.773 48.665H111.191L110.813 43.5209L108.773 48.665Z" fill="white"/>
<path d="M124.844 54.0783H122.204L123.201 47.8675H119.333L118.336 54.0783H115.687L118.013 39.5632H120.663L119.721 45.435H123.589L124.54 39.5632H127.18L124.844 54.0783Z" fill="white"/>
<path d="M137.159 42.0056H133.937L131.999 54.0783H129.34L131.279 42.0056H128.103L128.5 39.5632H137.556L137.159 42.0056Z" fill="white"/>
<path d="M141.212 54.2777C140.03 54.2511 139.091 53.8324 138.396 53.0216C137.707 52.2107 137.331 51.0842 137.27 49.642C137.245 49.1436 137.264 48.6384 137.325 48.1267L137.667 45.7142C137.845 44.4248 138.193 43.2817 138.71 42.2848C139.227 41.2878 139.87 40.5468 140.639 40.0616C141.408 39.5765 142.276 39.3439 143.242 39.3638C144.436 39.3904 145.372 39.8323 146.049 40.6897C146.732 41.5404 147.098 42.7068 147.147 44.1889C147.16 44.7471 147.132 45.2755 147.064 45.774L146.76 47.9971C146.483 49.9909 145.858 51.5461 144.886 52.6627C143.919 53.7726 142.695 54.3109 141.212 54.2777ZM144.415 45.6743C144.489 44.9897 144.526 44.4614 144.526 44.0892C144.495 42.6071 143.999 41.8461 143.039 41.8062C142.301 41.773 141.704 42.0754 141.248 42.7134C140.799 43.3448 140.485 44.3384 140.307 45.6942L139.984 48.1367C139.91 48.7946 139.882 49.3097 139.901 49.6819C139.931 51.0776 140.439 51.7987 141.424 51.8452C142.125 51.8718 142.701 51.5926 143.15 51.0078C143.599 50.4229 143.913 49.4659 144.092 48.1367L144.415 45.6743Z" fill="white"/>
<path d="M157.274 49.2333C157.108 50.8084 156.569 52.0546 155.659 52.9717C154.754 53.8822 153.606 54.3176 152.215 54.2777C151.021 54.2511 150.098 53.8257 149.446 53.0016C148.794 52.1775 148.449 51.0344 148.412 49.5722C148.4 49.0738 148.424 48.572 148.486 48.0669L148.827 45.6643C149.117 43.6107 149.741 42.0389 150.701 40.9489C151.668 39.8589 152.865 39.3306 154.292 39.3638C155.542 39.3837 156.502 39.8323 157.173 40.7096C157.843 41.5803 158.179 42.8464 158.179 44.5079L155.511 44.4979L155.529 43.511C155.511 42.3944 155.028 41.8195 154.08 41.7863C153.348 41.7597 152.769 42.0488 152.345 42.6536C151.92 43.2518 151.634 44.2254 151.486 45.5746L151.154 48.0769C151.068 48.8744 151.021 49.3961 151.015 49.642C150.954 51.0776 151.421 51.8186 152.418 51.8651C153.04 51.8984 153.535 51.7222 153.905 51.3368C154.274 50.9447 154.532 50.2501 154.68 49.2532L157.274 49.2333Z" fill="white"/>
<defs>
<filter id="filter0_d" x="37.3066" y="8.5942" width="139.513" height="28.2061" filterUnits="userSpaceOnUse" color-interpolation-filters="sRGB">
<feFlood flood-opacity="0" result="BackgroundImageFix"/>
<feColorMatrix in="SourceAlpha" type="matrix" values="0 0 0 0 0 0 0 0 0 0 0 0 0 0 0 0 0 0 127 0"/>
<feOffset dx="3" dy="3"/>
<feColorMatrix type="matrix" values="0 0 0 0 0 0 0 0 0 0 0 0 0 0 0 0 0 0 0.4 0"/>
<feBlend mode="normal" in2="BackgroundImageFix" result="effect1_dropShadow"/>
<feBlend mode="normal" in="SourceGraphic" in2="effect1_dropShadow" result="shape"/>
</filter>
<filter id="filter1_d" x="176.826" y="4.86473" width="28.1739" height="31.9034" filterUnits="userSpaceOnUse" color-interpolation-filters="sRGB">
<feFlood flood-opacity="0" result="BackgroundImageFix"/>
<feColorMatrix in="SourceAlpha" type="matrix" values="0 0 0 0 0 0 0 0 0 0 0 0 0 0 0 0 0 0 127 0"/>
<feOffset dx="3" dy="3"/>
<feColorMatrix type="matrix" values="0 0 0 0 0 0 0 0 0 0 0 0 0 0 0 0 0 0 0.4 0"/>
<feBlend mode="normal" in2="BackgroundImageFix" result="effect1_dropShadow"/>
<feBlend mode="normal" in="SourceGraphic" in2="effect1_dropShadow" result="shape"/>
</filter>
<filter id="filter2_d" x="9" y="3" width="27.2415" height="33.7681" filterUnits="userSpaceOnUse" color-interpolation-filters="sRGB">
<feFlood flood-opacity="0" result="BackgroundImageFix"/>
<feColorMatrix in="SourceAlpha" type="matrix" values="0 0 0 0 0 0 0 0 0 0 0 0 0 0 0 0 0 0 127 0"/>
<feOffset dx="3" dy="3"/>
<feColorMatrix type="matrix" values="0 0 0 0 0 0 0 0 0 0 0 0 0 0 0 0 0 0 0.4 0"/>
<feBlend mode="normal" in2="BackgroundImageFix" result="effect1_dropShadow"/>
<feBlend mode="normal" in="SourceGraphic" in2="effect1_dropShadow" result="shape"/>
</filter>
<linearGradient id="paint0_linear" x1="14.6238" y1="7.76116" x2="118.438" y2="36.7551" gradientUnits="userSpaceOnUse">
<stop stop-color="white"/>
<stop offset="1" stop-color="white" stop-opacity="0"/>
</linearGradient>
<linearGradient id="paint1_linear" x1="39.3892" y1="6.0833" x2="148.1" y2="35.8692" gradientUnits="userSpaceOnUse">
<stop stop-color="white"/>
<stop offset="1" stop-color="white" stop-opacity="0"/>
</linearGradient>
</defs>
</svg>
