<svg width="29" height="29" viewBox="0 0 29 29" fill="none" xmlns="http://www.w3.org/2000/svg">
<path d="M27.2031 11.069C27.1835 11.0465 27.167 11.0246 27.1439 11.0027L26.1276 10.022C26.9705 9.83081 27.8778 9.12472 27.8778 8.40028C27.8778 7.55629 26.7065 7.25681 25.7068 7.25681C24.6616 7.25681 24.5402 7.97296 24.5278 8.479L21.9058 5.95116C21.3731 5.42381 20.3628 5.00892 19.6076 5.00892H14.5009H14.4997H9.39184C8.6372 5.00892 7.62747 5.42381 7.09419 5.95116L4.47278 8.479C4.45917 7.97296 4.33784 7.25681 3.29377 7.25681C2.29292 7.25681 1.12219 7.55629 1.12219 8.40028C1.12219 9.12472 2.03012 9.83081 2.87295 10.022L1.85671 11.0027C1.83362 11.0246 1.81764 11.0465 1.79752 11.069C0.710247 11.9982 0 13.7217 0 14.9723V18.6886C0 19.5906 0.355716 20.4091 0.930424 21.0193V22.4605C0.930424 23.3033 1.63594 23.9905 2.50362 23.9905H4.4059C5.27359 23.9905 5.97851 23.3045 5.97851 22.4605V22.0918H14.4997H14.5009H23.0215V22.4605C23.0215 23.3045 23.7258 23.9905 24.5947 23.9905H26.4964C27.3647 23.9905 28.069 23.3033 28.069 22.4605V21.0193C28.6443 20.4091 28.9994 19.5906 28.9994 18.6886V14.9723C29.0006 13.7217 28.2903 11.9982 27.2031 11.069ZM8.05717 7.07451C8.4259 6.76734 9.07045 6.53414 9.39184 6.53414H14.4997H14.5009H19.6088C19.9301 6.53414 20.5747 6.76734 20.9434 7.07451L24.3816 10.4067H14.5009H14.4997H4.61957L8.05717 7.07451ZM1.1796 14.41C1.1796 13.495 1.89577 12.7522 2.78003 12.7522C3.66369 12.7522 6.55144 14.4473 6.55144 15.3623C6.55144 16.2774 3.66369 16.0655 2.78003 16.0655C1.89577 16.0655 1.1796 15.3256 1.1796 14.41ZM5.9791 20.4624H5.67429H5.36947L3.5613 20.4654C3.05939 20.3091 2.70545 20.1268 2.45509 19.9309C2.32843 19.8321 2.23136 19.7291 2.1556 19.6267C2.07925 19.5231 2.02361 19.4213 1.98751 19.3195C1.7626 18.6839 2.22722 18.0997 2.22722 18.0997H5.31324L7.37059 20.4612L5.9791 20.4624ZM18.9376 20.4636H14.5009H14.4997H10.063C9.13793 20.4636 8.38684 19.7125 8.38684 18.788H14.4997H14.5009H20.6138C20.6138 19.7137 19.8627 20.4636 18.9376 20.4636ZM19.327 17.6446H14.5009H14.4997H9.67357C8.66739 17.6446 7.8506 16.404 7.8506 14.8741H14.4997H14.5009H21.15C21.15 16.4046 20.3332 17.6446 19.327 17.6446ZM27.0137 19.3207C26.977 19.4225 26.9213 19.5243 26.845 19.6273C26.7698 19.7297 26.6728 19.8327 26.5455 19.9315C26.2957 20.1274 25.9412 20.3109 25.4393 20.466L23.6311 20.463H23.3263H23.0215H21.6288L23.6873 18.1015H26.7728C26.7728 18.1009 27.238 18.6839 27.0137 19.3207ZM26.2206 16.0655C25.3375 16.0655 22.4497 16.2762 22.4497 15.3623C22.4497 14.4485 25.3375 12.7522 26.2206 12.7522C27.1048 12.7522 27.821 13.495 27.821 14.41C27.821 15.3245 27.1048 16.0655 26.2206 16.0655Z" fill="white"/>
</svg>
