<svg width="46" height="46" viewBox="0 0 46 46" fill="none" xmlns="http://www.w3.org/2000/svg">
<rect width="46" height="46" rx="12" fill="url(#paint0_linear)"/>
<g clip-path="url(#clip0)">
<path d="M22.6999 20.9624C22.1616 20.9639 21.7197 21.3887 21.697 21.9265C21.6743 22.4644 22.0791 22.9248 22.6155 22.9712C23.1519 23.0178 23.6299 22.6338 23.6999 22.1001C23.6929 22.0649 23.6885 22.0295 23.6875 21.9937C23.6873 21.9514 23.6934 21.9092 23.7063 21.8687C23.6526 21.3535 23.218 20.9622 22.6999 20.9624Z" fill="white"/>
<path d="M34.625 12.1875H11.375C11.01 12.1865 10.6596 12.3311 10.4016 12.5891C10.1435 12.8472 9.999 13.1975 9.99997 13.5625V30.3125C9.999 30.6775 10.1435 31.0278 10.4016 31.2859C10.6596 31.5439 11.01 31.6885 11.375 31.6875H34.625C34.99 31.6885 35.3403 31.5439 35.5984 31.2859C35.8564 31.0278 36.001 30.6775 36 30.3125V13.5625C36.001 13.1975 35.8564 12.8472 35.5984 12.5891C35.3403 12.3311 34.99 12.1865 34.625 12.1875V12.1875ZM34.25 29.4375C34.2492 29.7134 34.0259 29.9368 33.75 29.9375H12.3125C12.0366 29.9368 11.8132 29.7134 11.8125 29.4375V14.5C11.8132 14.2241 12.0366 14.0007 12.3125 14H33.75C34.0259 14.0007 34.2492 14.2241 34.25 14.5V29.4375Z" fill="white"/>
<path d="M29.125 32.75H32.875V33.8125H29.125V32.75Z" fill="white"/>
<path d="M13.75 32.75H17.5V33.8125H13.75V32.75Z" fill="white"/>
<path d="M22.6999 25.3814C24.3782 25.3789 25.8061 24.1577 26.0688 22.5H24.6374C24.3747 23.4785 23.4245 24.1084 22.4209 23.9695C21.4172 23.8306 20.6741 22.9666 20.6867 21.9534C20.6994 20.9402 21.4643 20.095 22.4712 19.9815C23.478 19.8679 24.4118 20.5215 24.6499 21.5064H26.0749C25.8247 19.7029 24.2009 18.415 22.3879 18.582C20.5752 18.749 19.2138 20.312 19.2973 22.1306C19.3808 23.9492 20.8794 25.3811 22.6999 25.3814V25.3814Z" fill="white"/>
<path d="M12.8125 28.9375H33.1875V15H12.8125V28.9375ZM22.6999 17.5625C24.9507 17.5662 26.8381 19.2625 27.0813 21.5H30.25C30.5261 21.5 30.75 21.7239 30.75 22C30.75 22.2761 30.5261 22.5 30.25 22.5H27.0749C26.7903 24.8474 24.7031 26.5518 22.3462 26.3616C19.989 26.1716 18.2021 24.155 18.2973 21.7922C18.3923 19.4294 20.3352 17.5627 22.6999 17.5625V17.5625Z" fill="white"/>
</g>
<defs>
<linearGradient id="paint0_linear" x1="0" y1="23" x2="46" y2="23" gradientUnits="userSpaceOnUse">
<stop stop-color="#56AB2F"/>
<stop offset="1" stop-color="#A8E063"/>
</linearGradient>
<clipPath id="clip0">
<rect width="26" height="26" fill="white" transform="translate(10 10)"/>
</clipPath>
</defs>
</svg>
