<svg width="46" height="46" viewBox="0 0 46 46" fill="none" xmlns="http://www.w3.org/2000/svg">
<rect width="46" height="46" rx="12" fill="#FF8743"/>
<g clip-path="url(#clip0)">
<path d="M31.2138 15.2648H28.4656V14.8325C28.4656 12.9798 26.9834 11.5285 25.1616 11.5285H20.9003C19.0475 11.5285 17.5962 13.0107 17.5962 14.8325V15.2648H14.848C12.1616 15.2648 10.0309 17.3955 10.0309 20.0511V20.6378H36V20.0511C36 17.3955 33.8694 15.2648 31.2138 15.2648ZM26.2114 15.2648H19.7886V14.8325C19.7886 14.215 20.2518 13.7209 20.9003 13.7209H25.1307C25.7483 13.7209 26.2423 14.1841 26.2423 14.8325L26.2114 15.2648Z" fill="white"/>
<path d="M10 21.9038V29.7162C10 32.3409 12.1615 34.4715 14.7862 34.4715H31.1829C33.8385 34.4715 35.9691 32.3409 35.9691 29.6853V21.9038H10Z" fill="white"/>
</g>
<defs>
<clipPath id="clip0">
<rect width="26" height="26" fill="white" transform="translate(10 10)"/>
</clipPath>
</defs>
</svg>
