<svg width="30" height="30" viewBox="0 0 30 30" fill="none" xmlns="http://www.w3.org/2000/svg">
<path d="M1.82556 26.0613H26.1602C27.1674 26.0613 27.9858 25.2429 27.9858 24.2358V20.1161H19.2505C18.5963 20.1161 17.9574 19.9884 17.358 19.7328C16.7799 19.4893 16.2596 19.1364 15.8154 18.6922C15.3712 18.248 15.0183 17.7277 14.7748 17.1496C14.5223 16.5502 14.3915 15.9113 14.3915 15.2571V14.7429C14.3915 14.0887 14.5193 13.4498 14.7748 12.8504C15.0183 12.2723 15.3712 11.752 15.8154 11.3078C16.2597 10.8636 16.7799 10.5106 17.358 10.2672C17.9574 10.0147 18.5963 9.88387 19.2505 9.88387H27.9858V5.7642C27.9858 4.7571 27.1674 3.93864 26.1602 3.93864H1.82556C0.818458 3.93864 0 4.7571 0 5.7642V24.2358C0 25.2429 0.818458 26.0613 1.82556 26.0613Z" fill="white"/>
<path d="M30 13.0786C30 12.321 29.3884 11.7094 28.6308 11.7094H27.9858H19.2505C17.574 11.7094 16.217 13.0664 16.217 14.7429V15.2571C16.217 16.9336 17.574 18.2905 19.2505 18.2905H27.9858H28.6308C29.3884 18.2905 30 17.679 30 16.9214V13.0786ZM19.7465 16.6111C18.855 16.6111 18.1339 15.89 18.1339 14.9985C18.1339 14.107 18.855 13.3859 19.7465 13.3859C20.6379 13.3859 21.359 14.107 21.359 14.9985C21.359 15.89 20.6379 16.6111 19.7465 16.6111Z" fill="white"/>
</svg>
