<svg width="46" height="46" viewBox="0 0 46 46" fill="none" xmlns="http://www.w3.org/2000/svg">
<rect width="46" height="46" rx="12" fill="url(#paint0_linear)"/>
<g clip-path="url(#clip0)">
<path d="M30.0301 35.543C29.5099 36.0652 28.6943 36.1499 28.0782 35.7454L20.5249 30.7318C18.4364 29.3481 16.6471 27.5587 15.2634 25.4702L10.2497 17.9169C9.84577 17.3008 9.93018 16.4853 10.4522 15.9651L16.197 10.2203C16.3367 10.0793 16.527 10 16.7256 10C16.9243 10 17.1147 10.0793 17.2545 10.2203L21.341 14.3071C21.482 14.4468 21.5613 14.6373 21.5613 14.8357C21.5613 15.0343 21.482 15.2246 21.341 15.3646L18.5339 18.1717C17.8678 18.8378 17.764 19.8812 18.286 20.6654L18.9062 21.599C20.3444 23.7749 22.2072 25.6378 24.3832 27.076L25.3168 27.6962C26.1009 28.2182 27.1444 28.1144 27.8105 27.448L30.6176 24.6409C30.7573 24.5002 30.9478 24.4209 31.1465 24.4209C31.3449 24.4209 31.5354 24.5002 31.6751 24.6409L35.7619 28.7277C35.9029 28.8674 35.9822 29.0579 35.9822 29.2566C35.9822 29.455 35.9029 29.6454 35.7619 29.7852L33.2029 32.3442C33.1962 32.3508 33.1896 32.3574 33.1896 32.3638L33.1702 32.3834L30.0301 35.543Z" fill="white"/>
</g>
<defs>
<linearGradient id="paint0_linear" x1="0" y1="0" x2="46" y2="46" gradientUnits="userSpaceOnUse">
<stop stop-color="#34DE3B"/>
<stop offset="1" stop-color="#34DE78"/>
</linearGradient>
<clipPath id="clip0">
<rect width="26" height="26" fill="white" transform="matrix(-1 0 0 1 36 10)"/>
</clipPath>
</defs>
</svg>
