<svg width="23" height="23" viewBox="0 0 23 23" fill="none" xmlns="http://www.w3.org/2000/svg">
<g clip-path="url(#clip0)">
<path d="M17.7195 22.5957C17.2593 23.0577 16.5379 23.1326 15.9929 22.7748L9.31116 18.3396C7.46363 17.1156 5.88072 15.5327 4.65671 13.6852L0.221521 7.00344C-0.135801 6.45843 -0.0611343 5.73702 0.400635 5.27683L5.48256 0.194903C5.60618 0.0701562 5.77447 0 5.9502 0C6.12593 0 6.29444 0.0701562 6.41806 0.194903L10.033 3.81009C10.1578 3.93371 10.2279 4.10222 10.2279 4.27772C10.2279 4.45345 10.1578 4.62174 10.033 4.74558L7.54981 7.2288C6.96058 7.81802 6.86877 8.7411 7.33054 9.43477L7.87916 10.2606C9.15144 12.1855 10.7993 13.8334 12.7242 15.1057L13.5501 15.6543C14.2438 16.1161 15.1668 16.0243 15.7561 15.4348L18.2393 12.9516C18.3629 12.8271 18.5314 12.7569 18.7071 12.7569C18.8826 12.7569 19.0511 12.8271 19.1748 12.9516L22.79 16.5668C22.9147 16.6904 22.9849 16.8589 22.9849 17.0346C22.9849 17.2101 22.9147 17.3787 22.79 17.5023L20.5262 19.766C20.5204 19.7719 20.5145 19.7777 20.5145 19.7834L20.4974 19.8007L17.7195 22.5957Z" fill="white"/>
</g>
<defs>
<clipPath id="clip0">
<rect width="23" height="23" fill="white" transform="matrix(-1 0 0 1 23 0)"/>
</clipPath>
</defs>
</svg>
