<svg width="46" height="46" viewBox="0 0 46 46" fill="none" xmlns="http://www.w3.org/2000/svg">
<rect width="46" height="46" rx="12" fill="url(#paint0_linear)"/>
<g clip-path="url(#clip0)">
<path d="M19.75 14.1391L17.9133 16.5H19.75V14.1391Z" fill="white"/>
<path d="M29.1602 20.8856L31.8354 19.7221C29.7953 15.7961 27.4711 14.1201 24.8572 13.3647V16.5929C26.9729 17.4467 28.0728 18.8702 29.1602 20.8856Z" fill="white"/>
<path d="M34.6875 19.4946L25.4547 23.5107C28.4261 25.1106 27.9962 24.8813 28.0524 24.9152C28.0594 24.9194 28.0672 24.9198 28.0742 24.9245C28.0812 24.9291 28.1745 25.0215 28.1875 25.0391C28.2577 25.1358 28.2875 25.2561 28.2706 25.3744C28.2649 25.4052 28.2557 25.4352 28.2432 25.464C28.2386 25.4864 28.2319 25.5083 28.2232 25.5294C28.2195 25.5364 28.213 25.5406 28.2089 25.5471C27.0152 27.5286 24.3288 29.4471 21.8133 29.4471C17.8929 29.4448 14.5036 25.7054 15.3333 21.6071H11.4955C10.9422 23.6718 11.0971 25.8624 11.9356 27.8286C13.8118 31.938 18.3976 34.6842 22.8464 34.3518C29.4791 33.8675 33.1261 28.2316 33.3722 28.063C33.4706 27.9973 33.59 27.9708 33.7069 27.9888C33.8374 28.0101 33.8188 28.0148 35.8923 29.1295L34.6875 19.4946Z" fill="white"/>
<path d="M10 12.7857V19.2857C10.0002 19.9789 10.5102 20.5664 11.1965 20.6642C11.3223 20.6851 10.9179 20.6786 17.5442 20.6786C17.8815 20.6786 18.2073 20.801 18.4611 21.0231L21.1429 23.3714V21.6071C21.1429 21.0943 21.5586 20.6786 22.0714 20.6786H22.5357C23.305 20.6786 23.9286 20.055 23.9286 19.2857V12.7857C23.9349 12.42 23.7947 12.067 23.5391 11.8054C23.2836 11.5437 22.934 11.3952 22.5682 11.3929H11.3929C10.6236 11.3929 10 12.0165 10 12.7857H10ZM16.5975 16.6792L19.8475 12.5006C19.9692 12.3438 20.1772 12.2817 20.3649 12.3461C20.5527 12.4105 20.6787 12.5872 20.6786 12.7857V16.5H21.6071C21.8636 16.5 22.0714 16.7079 22.0714 16.9643C22.0714 17.2207 21.8636 17.4286 21.6071 17.4286H20.6786V18.8214C20.6786 19.0778 20.4707 19.2857 20.2143 19.2857C19.9579 19.2857 19.75 19.0778 19.75 18.8214V17.4286H16.9643C16.7869 17.4287 16.6249 17.3277 16.547 17.1684C16.469 17.0091 16.4886 16.8192 16.5975 16.6792ZM15.3904 13.7482C15.0049 13.3178 14.4102 13.1408 13.8522 13.2904C13.2443 13.4253 12.8053 13.9551 12.7857 14.5774C12.7968 14.7433 12.7186 14.9025 12.5805 14.995C12.4424 15.0876 12.2654 15.0995 12.1162 15.0261C11.967 14.9528 11.8683 14.8055 11.8571 14.6396C11.9087 12.112 15.0853 11.6594 16.1555 13.224C16.5846 13.8885 16.5873 14.7421 16.1625 15.4094C15.6179 16.3087 14.5375 16.7094 13.5889 17.566C13.3222 17.7899 13.0945 18.0567 12.9152 18.3553H16.0357C16.2921 18.3553 16.5 18.5632 16.5 18.8196C16.5 19.076 16.2921 19.2839 16.0357 19.2839H12.3214C12.065 19.2839 11.8571 19.076 11.8571 18.8196C11.8571 17.5901 13.1813 16.6463 14.1934 15.9512C14.6491 15.6924 15.0485 15.3451 15.3681 14.9298C15.6048 14.5737 15.6132 14.1126 15.3894 13.7482H15.3904Z" fill="white"/>
</g>
<defs>
<linearGradient id="paint0_linear" x1="23" y1="0" x2="23" y2="46" gradientUnits="userSpaceOnUse">
<stop stop-color="#2496FF"/>
<stop offset="1" stop-color="#243AFF"/>
</linearGradient>
<clipPath id="clip0">
<rect width="26" height="26" fill="white" transform="translate(10 10)"/>
</clipPath>
</defs>
</svg>
