<svg width="14" height="15" viewBox="0 0 14 15" fill="none" xmlns="http://www.w3.org/2000/svg">
<g clip-path="url(#clip0)">
<path d="M7 0.5C3.13397 0.5 0 3.63397 0 7.5C0 11.366 3.13397 14.5 7 14.5C10.866 14.5 14 11.366 14 7.5C14 3.63397 10.866 0.5 7 0.5ZM11.8125 8.81785H2.18751C2.06092 8.81785 1.95827 8.7152 1.95827 8.58847V6.41139C1.95827 6.2848 2.06092 6.18215 2.18751 6.18215H11.8125C11.9391 6.18215 12.0419 6.2848 12.0419 6.41139V8.58847C12.0417 8.71505 11.9391 8.81785 11.8125 8.81785Z" fill="#2174E8"/>
</g>
<defs>
<clipPath id="clip0">
<rect width="14" height="14" fill="white" transform="translate(0 0.5)"/>
</clipPath>
</defs>
</svg>
