<svg width="20" height="20" viewBox="0 0 20 20" fill="none" xmlns="http://www.w3.org/2000/svg">
<path d="M19.1694 3.33984H5.23912C4.99515 3.33984 4.72679 3.46183 4.55602 3.68139L0.164675 9.48772C-0.0548918 9.80488 -0.0548918 10.1952 0.164675 10.5124L4.53162 16.3187C4.7024 16.5383 4.94636 16.6603 5.21472 16.6603H19.145C19.633 16.6603 19.9989 16.2943 19.9989 15.8064V4.19372C20.0233 3.70579 19.633 3.33984 19.1694 3.33984ZM14.8513 11.3418C15.1928 11.659 15.2172 12.1957 14.8757 12.5373C14.5585 12.8788 14.0218 12.9032 13.6803 12.5617C13.6559 12.5617 13.6559 12.5373 13.6559 12.5373L12.3141 11.1955L10.9723 12.5373C10.6307 12.8544 10.094 12.8544 9.77684 12.5129C9.45968 12.1713 9.45968 11.6834 9.77684 11.3418L11.1186 10L9.77684 8.65825C9.45968 8.3167 9.45968 7.77998 9.80123 7.46283C10.1428 7.14567 10.6307 7.14567 10.9723 7.46283L12.3141 8.80463L13.6559 7.46283C13.973 7.12128 14.5097 7.09688 14.8513 7.43843C15.1928 7.77998 15.2172 8.2923 14.8757 8.63385C14.8757 8.65825 14.8513 8.65825 14.8513 8.65825L13.5339 10L14.8513 11.3418Z" fill="#2496FF"/>
</svg>
