<svg width="46" height="46" viewBox="0 0 46 46" fill="none" xmlns="http://www.w3.org/2000/svg">
<rect width="46" height="46" rx="12" fill="url(#paint0_linear)"/>
<g clip-path="url(#clip0)">
<path d="M35.7336 21.9008C35.4961 18.3092 33.7152 14.9551 30.8954 12.7289C28.0755 10.5027 24.3949 9.58255 20.833 10.1762C14.4809 11.2745 9.82075 17.1516 10.266 23.6224C10.4738 26.7391 11.7798 29.6183 13.9763 31.8148C13.4123 32.6459 12.9077 33.1802 11.572 34.2487C11.3049 34.4565 11.1861 34.783 11.2752 35.1095C11.3346 35.4361 11.572 35.7032 11.8688 35.7922C12.3141 35.9407 12.9671 36 13.7092 36C15.2823 36 17.2711 35.6438 18.8146 34.8424C20.8627 35.5548 23.0592 35.7329 25.226 35.347C31.5781 34.2191 36.1788 28.3122 35.7336 21.9008ZM17.0633 25.0768C15.9057 25.0768 14.9855 24.1567 14.9855 22.9991C14.9855 21.8414 15.9057 20.9213 17.0633 20.9213C18.2209 20.9213 19.1411 21.8414 19.1411 22.9991C19.1411 24.1567 18.2209 25.0768 17.0633 25.0768ZM22.9998 25.0768C21.8422 25.0768 20.922 24.1567 20.922 22.9991C20.922 21.8414 21.8422 20.9213 22.9998 20.9213C24.1574 20.9213 25.0776 21.8414 25.0776 22.9991C25.0776 24.1567 24.1574 25.0768 22.9998 25.0768ZM28.9363 25.0768C27.7787 25.0768 26.8585 24.1567 26.8585 22.9991C26.8585 21.8414 27.7787 20.9213 28.9363 20.9213C30.0939 20.9213 31.0141 21.8414 31.0141 22.9991C31.0141 24.1567 30.0939 25.0768 28.9363 25.0768Z" fill="white"/>
</g>
<defs>
<linearGradient id="paint0_linear" x1="0" y1="0" x2="46" y2="46" gradientUnits="userSpaceOnUse">
<stop stop-color="#34DE3B"/>
<stop offset="1" stop-color="#34DE78"/>
</linearGradient>
<clipPath id="clip0">
<rect width="26" height="26" fill="white" transform="translate(10 10)"/>
</clipPath>
</defs>
</svg>
