<svg width="48" height="48" viewBox="0 0 48 48" fill="none" xmlns="http://www.w3.org/2000/svg">
<rect width="48" height="48" rx="24" fill="url(#paint0_linear)"/>
<g clip-path="url(#clip0)">
<path d="M11.458 20.4796C11.4567 19.8126 11.9243 19.2367 12.5773 19.1013L20.6179 17.4764C22.8395 17.0254 25.1292 17.0254 27.3508 17.4764L35.3914 19.1013C36.0441 19.237 36.5118 19.8128 36.5107 20.4796L36.5107 27.8309C36.5115 28.0105 36.4405 28.183 36.3134 28.3101C36.1863 28.4372 36.0137 28.5083 35.8341 28.5075L30.6047 28.5074C30.425 28.5082 30.2524 28.437 30.1255 28.3101C29.9984 28.183 29.9274 28.0105 29.9281 27.8307L29.9281 24.2386C29.9281 23.3863 29.3268 22.6522 28.4911 22.4845L27.497 22.284C25.1846 21.812 22.8008 21.812 20.4884 22.284L19.4942 22.4845C18.6585 22.6523 18.0573 23.3863 18.0575 24.2388L18.0575 27.8309C18.0581 28.0104 17.987 28.183 17.8599 28.3101C17.7329 28.437 17.5603 28.5082 17.3808 28.5075L12.1513 28.5075C11.9716 28.5083 11.799 28.4372 11.6719 28.3101C11.545 28.1832 11.4738 28.0106 11.4747 27.8309L11.4747 24.5563C11.4747 24.5478 11.4747 24.5394 11.4706 24.5353L11.4704 24.5103L11.458 20.4796Z" fill="white"/>
</g>
<defs>
<linearGradient id="paint0_linear" x1="0" y1="0" x2="48" y2="48" gradientUnits="userSpaceOnUse">
<stop stop-color="#DE3434"/>
<stop offset="1" stop-color="#DE3434"/>
</linearGradient>
<clipPath id="clip0">
<rect width="27.1304" height="27.1304" transform="matrix(-1 0 0 1 37.5654 10.4346)" fill="white"/>
</clipPath>
</defs>
</svg>
