<svg width="31" height="30" viewBox="0 0 31 30" fill="none" xmlns="http://www.w3.org/2000/svg">
<g clip-path="url(#clip0)">
<path d="M21.1756 14.7929C21.1631 14.4886 21.1003 14.1843 20.9936 13.8988C20.9309 13.7356 20.8493 13.5756 20.7552 13.4282C20.6422 13.2524 20.5135 13.0642 20.3535 12.923L13.1595 5.73207C12.0582 4.63083 10.2699 4.63083 9.16556 5.73207C8.06432 6.8333 8.06432 8.62164 9.16556 9.72601L11.5374 12.0979H3.53388C1.97459 12.0979 0.710205 13.3623 0.710205 14.9216C0.710205 16.4809 1.97459 17.7453 3.53388 17.7453H11.5374L9.01182 20.274C7.91059 21.3753 7.91059 23.1637 9.01182 24.268C9.56401 24.8202 10.2856 25.0963 11.0072 25.0963C11.7288 25.0963 12.4536 24.8201 13.0026 24.268L20.3505 16.9201C20.7835 16.4589 21.0846 15.9005 21.1568 15.2636C21.1756 15.1067 21.1819 14.9498 21.1756 14.7929Z" fill="white"/>
<path d="M27.466 0C25.9067 0 24.6423 1.26438 24.6423 2.82368V27.1763C24.6423 28.7357 25.9067 30 27.466 30C29.0253 30 30.2897 28.7357 30.2897 27.1763V2.82368C30.2897 1.26438 29.0253 0 27.466 0Z" fill="white"/>
</g>
<defs>
<clipPath id="clip0">
<rect width="30" height="30" fill="white" transform="translate(0.5)"/>
</clipPath>
</defs>
</svg>
