<svg width="482" height="482" viewBox="0 0 482 482" fill="none" xmlns="http://www.w3.org/2000/svg">
<g clip-path="url(#clip0)">
<path d="M464.075 172.394L428.747 168.81C418.212 150.355 404.32 134.032 387.787 120.682L389.323 105.322C391.371 85.354 391.883 79.21 391.371 74.09C390.042 61.893 379.572 52.759 367.307 53.098H366.283C342.219 53.098 301.771 71.53 288.971 77.674C277.598 76.048 266.148 75.023 254.667 74.602C186.571 74.602 124.107 105.322 89.2914 154.986C75.8594 168.418 54.0834 168.418 40.6514 154.986C27.2194 141.554 27.2194 119.778 40.6514 106.346C45.7414 99.56 44.3654 89.932 37.5794 84.842C32.1184 80.746 24.6084 80.746 19.1474 84.842C-6.30161 110.179 -6.39261 151.35 18.9444 176.8C31.1964 189.106 47.8614 196 65.2274 195.946H68.2994C64.0054 207.631 61.4194 219.875 60.6194 232.298C60.6194 234.858 60.6194 237.418 60.6194 239.978C61.0014 269.666 70.2754 298.558 87.2434 322.922C72.0844 349.309 75.8164 382.483 96.4594 404.842C110.366 419.833 129.774 428.521 150.219 428.906H152.267C171.644 428.96 190.316 421.637 204.491 408.426L211.659 401.258C234.945 405.76 258.807 406.451 282.315 403.306L286.923 407.402C315.42 434.365 359.531 435.901 389.835 410.986C411.973 392.598 420.519 362.486 411.339 335.21C417.703 327.364 423.357 318.969 428.235 310.122L463.563 306.538C474.067 305.482 482.048 296.615 481.995 286.058V192.874C482.076 182.492 474.376 173.692 464.075 172.394ZM329.419 236.394C312.736 236.394 299.211 222.869 299.211 206.186C299.211 189.503 312.736 175.978 329.419 175.978C346.102 175.978 359.627 189.503 359.627 206.186C359.627 222.869 346.102 236.394 329.419 236.394Z" fill="white"/>
</g>
<defs>
<clipPath id="clip0">
<rect width="481.995" height="481.995" fill="white"/>
</clipPath>
</defs>
</svg>
