<svg width="31" height="30" viewBox="0 0 31 30" fill="none" xmlns="http://www.w3.org/2000/svg">
<g clip-path="url(#clip0)">
<path d="M17.4631 17.8947H20.9402C20.6904 17.218 20.0056 16.6562 19.2016 16.6562C18.3976 16.6562 17.7129 17.218 17.4631 17.8947Z" fill="white"/>
<path d="M19.2017 15.4532C20.6737 15.4532 21.9047 16.5414 22.1847 17.8947H22.7364L21.5302 14.6593C21.4229 14.3826 21.1534 14.203 20.8567 14.2105H10.2C9.90332 14.203 9.63385 14.3826 9.52655 14.6593L8.32031 17.8947H16.2189C16.4987 16.5414 17.7296 15.4532 19.2017 15.4532Z" fill="white"/>
<path d="M21.4971 25.8647V26.4052C21.4971 26.8013 21.907 27.218 22.3031 27.218H23.4029C23.7989 27.218 24.0535 26.8013 24.0535 26.4052V25.6132C23.8279 25.7034 23.6568 25.8647 23.4029 25.8647H21.4971Z" fill="white"/>
<path d="M10.4444 21.6541H8.5647V22.5564H10.4444V21.6541Z" fill="white"/>
<path d="M23.9223 8.58519C23.7906 8.4709 23.6775 8.30519 23.6775 8.13098V0H19.8429V3.42767C19.8429 3.66158 19.7448 3.87436 19.5327 3.97308C19.3268 4.07173 19.082 4.0382 18.9103 3.88774L15.7812 1.24451L0.642822 14.1724L1.32763 15.0831L2.50733 13.9488C2.66621 13.7821 2.91297 13.7338 3.1229 13.8285C3.34485 13.9229 3.45192 14.1408 3.45192 14.382V30H27.2113V14.3511C27.2113 14.1123 27.3901 13.8962 27.6088 13.8003C27.8336 13.7044 28.0935 13.7465 28.2765 13.9085L29.5894 15.108L30.3571 14.159L23.9223 8.58519ZM25.2564 23.5017V26.4052C25.2564 27.4646 24.4622 28.4211 23.4028 28.4211H22.303C21.2437 28.4211 20.294 27.4646 20.294 26.4052V25.8647H10.3692V26.4052C10.3692 27.4646 9.54914 28.4211 8.48951 28.4211H7.38989C6.33057 28.4211 5.40681 27.4646 5.40681 26.4052V20.547C5.41801 19.7856 5.7623 19.0675 6.34884 18.582L6.89771 18.1298L8.38914 14.1926C8.66681 13.4427 9.40019 13.0075 10.2 13.0075H20.8567C21.6564 13.0075 22.3804 13.4427 22.6582 14.1926L24.1662 18.2219L24.4816 18.5334C24.9871 19.0198 25.2677 19.6944 25.2564 20.3959V23.5017Z" fill="white"/>
<path d="M6.60986 25.6132V26.4052C6.60986 26.8013 6.99392 27.218 7.38994 27.218H8.48956C8.88565 27.218 9.16625 26.8013 9.16625 26.4052V25.8647H7.38994C7.13618 25.8647 6.83543 25.703 6.60986 25.6132Z" fill="white"/>
<path d="M22.0987 21.6541H20.1438V22.5564H22.0987V21.6541Z" fill="white"/>
<path d="M23.2724 19.0977H7.74272L7.12723 19.545C6.81813 19.8072 6.60986 20.1416 6.60986 20.547V23.8317C6.60986 24.2277 6.99392 24.6617 7.38994 24.6617H23.4029C23.7989 24.6617 24.0535 24.2277 24.0535 23.8317V20.3956C24.0647 20.0352 23.9194 19.6875 23.655 19.4423L23.2724 19.0977ZM11.7226 23.2331C11.7226 23.5653 11.4533 23.8346 11.1211 23.8346H7.96325C7.63107 23.8346 7.36174 23.5653 7.36174 23.2331V21.0526C7.36174 20.7205 7.63107 20.4511 7.96325 20.4511H11.1211C11.4533 20.4511 11.7226 20.7205 11.7226 21.0526V23.2331ZM17.409 23.7594H13.3838C13.0517 23.7594 12.7823 23.4901 12.7823 23.1579C12.7823 22.8257 13.0517 22.5564 13.3838 22.5564H17.409C17.7412 22.5564 18.0105 22.8257 18.0105 23.1579C18.0105 23.4901 17.7412 23.7594 17.409 23.7594ZM17.409 21.6541H13.3838C13.0517 21.6541 12.7823 21.3848 12.7823 21.0526C12.7823 20.7205 13.0517 20.4511 13.3838 20.4511H17.409C17.7412 20.4511 18.0105 20.7205 18.0105 21.0526C18.0105 21.3848 17.7412 21.6541 17.409 21.6541ZM23.3016 23.2331C23.3016 23.5653 23.0323 23.8346 22.7001 23.8346H19.5422C19.21 23.8346 18.9407 23.5653 18.9407 23.2331V21.0526C18.9407 20.7205 19.21 20.4511 19.5422 20.4511H22.7001C23.0323 20.4511 23.3016 20.7205 23.3016 21.0526V23.2331Z" fill="white"/>
</g>
<defs>
<clipPath id="clip0">
<rect width="30" height="30" fill="white" transform="translate(0.5)"/>
</clipPath>
</defs>
</svg>
