<svg width="14" height="15" viewBox="0 0 14 15" fill="none" xmlns="http://www.w3.org/2000/svg">
<g clip-path="url(#clip0)">
<path d="M13.8539 5.57324L7.21981 0.585636C7.08971 0.487731 6.91029 0.487731 6.78019 0.585636L0.146055 5.57324C0.0201982 5.66778 -0.0310227 5.83227 0.0188811 5.98154C0.0687849 6.13082 0.208545 6.2315 0.365866 6.2315H1.3657V14.122C1.3657 14.3241 1.52946 14.4879 1.73156 14.4879H4.91458C5.11668 14.4879 5.28044 14.3241 5.28044 14.122V10.183H8.71956V14.122C8.71956 14.3241 8.88332 14.4879 9.08543 14.4879H12.2684C12.4705 14.4879 12.6343 14.3241 12.6343 14.122V6.2315H13.6341C13.7915 6.2315 13.9312 6.13082 13.9811 5.98154C14.031 5.83227 13.9798 5.66778 13.8539 5.57324Z" fill="white"/>
</g>
<defs>
<clipPath id="clip0">
<rect width="14" height="14" fill="white" transform="translate(0 0.5)"/>
</clipPath>
</defs>
</svg>
