<svg width="18" height="18" viewBox="0 0 18 18" fill="none" xmlns="http://www.w3.org/2000/svg">
<path d="M9.0003 0C4.02905 0 0 4.02783 0 9.0003C0 13.9703 4.02905 18 9.0003 18C13.9697 18 17.9994 13.9703 17.9994 9.0003C17.9994 4.02783 13.9703 0 9.0003 0ZM9.0003 16.5318C4.83779 16.5318 1.46694 13.1604 1.46694 8.99969C1.46694 4.8384 4.83779 1.46572 9.0003 1.46572C13.1592 1.46572 16.5325 4.839 16.5325 8.99969C16.5331 13.1604 13.1592 16.5318 9.0003 16.5318Z" fill="#2496FF"/>
<path d="M10.257 6.75H7.72715V6.75427L7.5 6.75427V8.22486H8.625V13.4771H7.5V14.8825H7.72715V14.8922H10.257V14.8825H11.0846V13.4771H10.257V6.75Z" fill="#2496FF"/>
<path d="M8.97473 5.79217C9.82491 5.79217 10.3399 5.22661 10.3399 4.52635C10.3234 3.81208 9.8243 3.26358 9.00886 3.26358C8.19464 3.26358 7.66138 3.81147 7.66138 4.52635C7.66077 5.22661 8.17697 5.79217 8.97473 5.79217Z" fill="#2496FF"/>
</svg>
