<svg width="14" height="15" viewBox="0 0 14 15" fill="none" xmlns="http://www.w3.org/2000/svg">
<g clip-path="url(#clip0)">
<path d="M11.376 5.73614H10.9134V4.41327C10.9134 2.25558 9.15784 0.5 7 0.5C4.84216 0.5 3.08658 2.25558 3.08658 4.41327V5.73614H2.62399C2.46072 5.73614 2.32821 5.86864 2.32821 6.03191V14.2042C2.32821 14.3675 2.46072 14.5 2.62399 14.5H11.376C11.5393 14.5 11.6718 14.3675 11.6718 14.2042V6.03191C11.6718 5.86864 11.5394 5.73614 11.376 5.73614ZM7 2.15354C8.24611 2.15354 9.25988 3.16717 9.25988 4.41327V5.73614H4.74012V4.41327C4.74012 3.16731 5.7539 2.15354 7 2.15354Z" fill="white"/>
</g>
<defs>
<clipPath id="clip0">
<rect width="14" height="14" fill="white" transform="translate(0 0.5)"/>
</clipPath>
</defs>
</svg>
