<svg width="15" height="15" viewBox="0 0 15 15" fill="none" xmlns="http://www.w3.org/2000/svg">
<g clip-path="url(#clip0)">
<path d="M14.4026 2.98942L12.5423 1.35461C12.4852 1.30413 12.4094 1.27846 12.3345 1.28377C12.2586 1.28879 12.1878 1.32364 12.1376 1.38086L5.39042 9.06022L2.99136 5.88484C2.94561 5.82432 2.87748 5.78431 2.80219 5.77398C2.72704 5.7628 2.65031 5.78316 2.58979 5.8292L0.613803 7.32187C0.487454 7.41739 0.462356 7.59723 0.557871 7.72358L5.00004 13.6031C5.05196 13.6718 5.13227 13.7136 5.21832 13.7168C5.22177 13.7168 5.22535 13.7168 5.22879 13.7168C5.31111 13.7168 5.38971 13.6815 5.44435 13.6193L14.4285 3.39414C14.5332 3.27524 14.5216 3.09382 14.4026 2.98942Z" fill="white"/>
</g>
<defs>
<clipPath id="clip0">
<rect width="14.0001" height="14" fill="white" transform="translate(0.499878 0.5)"/>
</clipPath>
</defs>
</svg>
