<svg width="30" height="30" viewBox="0 0 30 30" fill="none" xmlns="http://www.w3.org/2000/svg">
<path d="M24.6892 7.43921C21.7605 7.43921 19.3779 9.80353 19.3779 12.7095V17.25C19.3779 20.1787 21.7605 22.5608 24.6892 22.5608C27.6174 22.5608 30 20.1787 30 17.25V12.75C30 9.8214 27.6175 7.43921 24.6892 7.43921ZM27.5676 17.25C27.5676 18.8372 26.2764 20.1284 24.6892 20.1284C23.102 20.1284 21.8105 18.8372 21.8105 17.25V12.7095C21.8105 11.1446 23.1021 9.87167 24.6892 9.87167C26.2764 9.87167 27.5676 11.1629 27.5676 12.75V17.25Z" fill="white"/>
<path d="M20.5946 13.7634H1.21623C0.544453 13.7634 0 14.3079 0 14.9797V20.2499C0 20.9217 0.544453 21.4662 1.21623 21.4662C1.88801 21.4662 2.43246 20.9217 2.43246 20.2495V16.1959H20.5946C21.2664 16.1959 21.8109 15.6514 21.8109 14.9797C21.8108 14.3079 21.2664 13.7634 20.5946 13.7634Z" fill="white"/>
<path d="M5.35136 13.7634C4.67959 13.7634 4.13513 14.3079 4.13513 14.9797V19.0337C4.13513 19.7055 4.67959 20.2499 5.35136 20.2499C6.02314 20.2499 6.56759 19.7055 6.56759 19.0337V14.9797C6.56753 14.3079 6.02308 13.7634 5.35136 13.7634Z" fill="white"/>
<path d="M9.56755 13.7634C8.89577 13.7634 8.35132 14.3079 8.35132 14.9797V20.0472C8.35132 20.719 8.89577 21.2634 9.56755 21.2634C10.2393 21.2634 10.7838 20.719 10.7838 20.0472V14.9797C10.7838 14.3079 10.2393 13.7634 9.56755 13.7634Z" fill="white"/>
</svg>
