<svg width="14" height="14" viewBox="0 0 14 14" fill="none" xmlns="http://www.w3.org/2000/svg">
<g clip-path="url(#clip0)">
<path d="M13.2223 0H9.72228C9.50751 0 9.33338 0.174125 9.33338 0.388901V1.16667C9.33338 1.38144 9.50751 1.55557 9.72228 1.55557H11.3447L7.89175 5.0085C7.73986 5.16039 7.73986 5.40659 7.89175 5.55847L8.44161 6.10834C8.5935 6.26022 8.8397 6.26022 8.99158 6.10834L12.4445 2.65541V4.2778C12.4445 4.49258 12.6186 4.6667 12.8334 4.6667H13.6112C13.826 4.6667 14.0001 4.49258 14.0001 4.2778V0.777802C14 0.348214 13.6518 0 13.2223 0Z" fill="#8A8A8E" fill-opacity="0.4"/>
<path d="M12.8766 9.1894C12.0191 9.1894 11.1775 9.05534 10.38 8.79178C9.98885 8.65926 9.50881 8.78077 9.2703 9.02573L7.6965 10.2141C5.87129 9.23956 4.7464 8.11541 3.78481 6.30354L4.93934 4.76963C5.23935 4.46961 5.3457 4.03247 5.21657 3.62385C4.95224 2.821 4.81779 1.97943 4.81779 1.12343C4.81782 0.503964 4.31422 0 3.69443 0H1.12335C0.503563 0 0 0.503964 0 1.12335C0 8.22365 5.77638 14 12.8766 14C13.4964 14 14 13.496 14 12.8766V10.3127C14 9.69336 13.4964 9.1894 12.8766 9.1894Z" fill="#8A8A8E" fill-opacity="0.4"/>
</g>
<defs>
<clipPath id="clip0">
<rect width="14" height="14" fill="white"/>
</clipPath>
</defs>
</svg>
