<?xml version="1.0"?>
<svg xmlns="http://www.w3.org/2000/svg" id="outline" viewBox="0 0 512 512" fill="white" width="512" height="512"><path d="M34.34277,197.65674a8.00051,8.00051,0,0,0,9.00977,1.60693L48,197.11871V464H32V424H16v48a8.00008,8.00008,0,0,0,8,8H88a8.00008,8.00008,0,0,0,8-8V424H80v40H64V189.73407l79.46753-36.67731,82.50488,50.56763L161.99243,424H136a7.99975,7.99975,0,0,0-7.42773,5.02881l-16,40A7.99957,7.99957,0,0,0,120,480H464a8.00008,8.00008,0,0,0,8-8V419.314l13.65723-13.65722A8.00035,8.00035,0,0,0,488,400V360a8.00008,8.00008,0,0,0-8-8H440V336h.001A8.001,8.001,0,0,0,448,328V296a7.99927,7.99927,0,0,0-3.2002-6.3999l-27.33105-20.49829,5.3916-8.98609a7.99979,7.99979,0,0,0-2.67969-10.93652L175.46118,99.18988l-7.5227-60.18207A8.00105,8.00105,0,0,0,160,32H120a7.9995,7.9995,0,0,0-6.53613,3.38672l-96,136a8.00057,8.00057,0,0,0,.8789,10.27ZM308.97534,340.05249,333.34717,424H192.74023ZM182.165,411.90161,204.20117,336h83.0586ZM208.84619,320l18.58057-64H284.573l18.58081,64ZM232.072,240l11.14966-38.4043a13.306,13.306,0,0,1,25.55664.00049L279.92773,240ZM131.81641,464l9.59961-24H370.584l9.59961,24ZM424,408H400V388l24-17.99976Zm32,56H400V424h24v24h16V424h16Zm16-96v28.68652L460.686,408H440V368Zm-52.7998-14.3999-32,24A7.99927,7.99927,0,0,0,384,384v46.45947l-.57227-1.43066A7.99975,7.99975,0,0,0,376,424H350.00757l-50.981-175.60034,88.6687,54.34509L424,326.948V352A7.9984,7.9984,0,0,0,419.2002,353.6001ZM432,300v13.05176L402.78467,293.5752l6.40845-10.68067ZM170.70508,115.04114,405.0625,258.67969,389.29492,284.959l-96.896-59.38769-8.25538-28.43555a29.28622,29.28622,0,0,0-52.15771-8.5921L154.9375,141.3205ZM124.14551,48h28.792l6.78223,54.25195L138.4082,137.76953l-96.69629,44.6294-7.29-7.291Z"/><circle cx="256" cy="216" r="8"/></svg>
