<svg width="30" height="30" viewBox="0 0 30 30" fill="none" xmlns="http://www.w3.org/2000/svg">
<path d="M27.2642 26.1321V24.2453H29.1509V22.3585H27.8931V17.327C27.9108 16.8237 27.5171 16.4013 27.0137 16.3836C26.9924 16.3829 26.971 16.3829 26.9497 16.3836H13.4277C12.9243 16.366 12.502 16.7597 12.4843 17.263C12.4835 17.2844 12.4835 17.3057 12.4843 17.327V22.3585H11.2264V24.2453H13.1132V26.1321H7.13836V21.195C9.93711 20.4402 12.0126 16.5094 12.0126 11.6352C12.0126 6.22641 9.46541 1.98113 6.19497 1.98113C2.92453 1.98113 0.377358 6.22641 0.377358 11.6352C0.377358 16.5094 2.45283 20.4402 5.25157 21.195V26.1321H0V28.0189H30V26.1321H27.2642ZM25.3774 26.1321H15V24.2453H25.3774V26.1321Z" fill="white"/>
</svg>
