<svg width="32" height="32" viewBox="0 0 32 32" fill="none" xmlns="http://www.w3.org/2000/svg">
<path d="M14.492 22.1744C14.4147 22.0991 14.084 21.8146 13.812 21.5496C12.1013 19.9961 9.30133 15.9435 8.44667 13.8224C8.30933 13.5003 8.01867 12.6859 8 12.2507C8 11.8338 8.096 11.4363 8.29067 11.057C8.56267 10.5842 8.99067 10.2049 9.496 9.99712C9.84667 9.86333 10.896 9.6555 10.9147 9.6555C12.0627 9.44768 13.928 9.33337 15.9893 9.33337C17.9533 9.33337 19.7427 9.44768 20.908 9.61784C20.9267 9.63732 22.2307 9.84515 22.6773 10.0725C23.4933 10.4894 24 11.3038 24 12.1754L24 12.2507C23.98 12.8184 23.4733 14.0121 23.4547 14.0121C22.5987 16.0189 19.936 19.978 18.1667 21.5691C18.1667 21.5691 17.712 22.0173 17.428 22.2121C17.02 22.516 16.5147 22.6667 16.0093 22.6667C15.4453 22.6667 14.92 22.4966 14.492 22.1744Z" fill="white"/>
</svg>
