<svg width="16" height="16" viewBox="0 0 16 16" fill="none" xmlns="http://www.w3.org/2000/svg">
<g opacity="0.5" clip-path="url(#clip0)">
<path d="M9.79049 2.25102L2.29102 9.75049L6.25357 13.713L13.753 6.21358L9.79049 2.25102Z" fill="white"/>
<path d="M15.7614 3.18864L12.8349 0.2206C12.5443 -0.0699778 12.0877 -0.0699778 11.8179 0.199844C11.8179 0.199844 11.8179 0.199844 11.7971 0.2206L10.5103 1.50744L14.4746 5.4925L15.7614 4.20566C16.052 3.91508 16.052 3.45846 15.7614 3.18864Z" fill="white"/>
<path d="M1.70951 10.6191L0.0698224 15.0193C-0.0754663 15.3929 0.111334 15.808 0.484933 15.9533C0.650977 16.0156 0.837777 16.0156 1.00382 15.9533L5.40399 14.2929L1.70951 10.6191Z" fill="white"/>
</g>
<defs>
<clipPath id="clip0">
<rect width="16" height="16" fill="white"/>
</clipPath>
</defs>
</svg>
