<svg width="20" height="20" viewBox="0 0 20 20" fill="none" xmlns="http://www.w3.org/2000/svg">
<g opacity="0.5" clip-path="url(#clip0)">
<path d="M12.2379 2.8139L2.86353 12.1882L7.81672 17.1414L17.1911 7.76709L12.2379 2.8139Z" fill="white"/>
<path d="M19.7016 3.9858L16.0435 0.27575C15.6802 -0.0874723 15.1095 -0.0874723 14.7722 0.249805C14.7722 0.249805 14.7722 0.249805 14.7462 0.27575L13.1377 1.8843L18.0931 6.86563L19.7016 5.25708C20.0649 4.89386 20.0649 4.32308 19.7016 3.9858Z" fill="white"/>
<path d="M2.13725 13.2739L0.0876442 18.7741C-0.0939666 19.2411 0.139533 19.76 0.606533 19.9416C0.814088 20.0195 1.04759 20.0195 1.25514 19.9416L6.75536 17.8661L2.13725 13.2739Z" fill="white"/>
</g>
<defs>
<clipPath id="clip0">
<rect width="20" height="20" fill="white"/>
</clipPath>
</defs>
</svg>
