<svg width="30" height="30" viewBox="0 0 30 30" fill="none" xmlns="http://www.w3.org/2000/svg">
<rect width="30" height="30" rx="15" fill="white" fill-opacity="0.15"/>
<path d="M18.978 5.83258C22.0855 5.83258 24.1663 8.01425 24.1663 11.2592V18.7493C24.1663 21.9852 22.0855 24.1659 18.978 24.1659H11.0305C7.92301 24.1659 5.83301 21.9852 5.83301 18.7493V11.2592C5.83301 8.01425 7.92301 5.83258 11.0305 5.83258H18.978ZM17.7588 12.2227C17.4472 11.9101 16.943 11.9101 16.6222 12.2227L14.9997 13.8534L13.368 12.2227C13.0472 11.9101 12.543 11.9101 12.2313 12.2227C11.9197 12.5343 11.9197 13.0477 12.2313 13.3584L13.863 14.991L12.2313 16.6135C11.9197 16.9343 11.9197 17.4385 12.2313 17.7492C12.3872 17.9051 12.598 17.9885 12.7997 17.9885C13.0105 17.9885 13.2122 17.9051 13.368 17.7492L14.9997 16.1277L16.6313 17.7492C16.7872 17.9152 16.9888 17.9885 17.1905 17.9885C17.4013 17.9885 17.603 17.9051 17.7588 17.7492C18.0705 17.4385 18.0705 16.9343 17.7588 16.6227L16.1272 14.991L17.7588 13.3584C18.0705 13.0477 18.0705 12.5343 17.7588 12.2227Z" fill="#FF7A7A"/>
</svg>
