<svg width="30" height="30" viewBox="0 0 30 30" fill="none" xmlns="http://www.w3.org/2000/svg">
<rect width="30" height="30" rx="15" fill="white" fill-opacity="0.15"/>
<path d="M15.6573 5.8334C16.3505 5.8334 16.9782 6.2184 17.3248 6.78674C17.4934 7.06174 17.6058 7.4009 17.5777 7.7584C17.559 8.0334 17.6433 8.3084 17.7932 8.56507C18.271 9.34424 19.3295 9.63757 20.1539 9.19757C21.0813 8.6659 22.2523 8.98674 22.7863 9.89424L23.4139 10.9759C23.9573 11.8834 23.6575 13.0476 22.7207 13.5701C21.9244 14.0376 21.6434 15.0734 22.1212 15.8617C22.2711 16.1092 22.4397 16.3201 22.702 16.4484C23.0299 16.6226 23.2828 16.8976 23.4608 17.1726C23.8074 17.7409 23.7793 18.4376 23.4421 19.0517L22.7863 20.1517C22.4397 20.7384 21.7933 21.1051 21.1282 21.1051C20.8003 21.1051 20.4349 21.0134 20.1352 20.8301C19.8916 20.6742 19.6106 20.6192 19.3108 20.6192C18.3834 20.6192 17.6058 21.3801 17.5777 22.2876C17.5777 23.3417 16.7159 24.1667 15.6386 24.1667H14.3645C13.2778 24.1667 12.416 23.3417 12.416 22.2876C12.3973 21.3801 11.6197 20.6192 10.6923 20.6192C10.3831 20.6192 10.1021 20.6742 9.86791 20.8301C9.56813 21.0134 9.19341 21.1051 8.8749 21.1051C8.20041 21.1051 7.55402 20.7384 7.20741 20.1517L6.56102 19.0517C6.21441 18.4559 6.19567 17.7409 6.54229 17.1726C6.69217 16.8976 6.97321 16.6226 7.29172 16.4484C7.55402 16.3201 7.72265 16.1092 7.8819 15.8617C8.3503 15.0734 8.06926 14.0376 7.27299 13.5701C6.34556 13.0476 6.04579 11.8834 6.57976 10.9759L7.20741 9.89424C7.75075 8.98674 8.91238 8.6659 9.84917 9.19757C10.6642 9.63757 11.7228 9.34424 12.2005 8.56507C12.3504 8.3084 12.4347 8.0334 12.416 7.7584C12.3973 7.4009 12.5003 7.06174 12.6783 6.78674C13.0249 6.2184 13.6526 5.85174 14.3364 5.8334H15.6573ZM15.0109 12.4151C13.5401 12.4151 12.3504 13.5701 12.3504 15.0092C12.3504 16.4484 13.5401 17.5942 15.0109 17.5942C16.4817 17.5942 17.6433 16.4484 17.6433 15.0092C17.6433 13.5701 16.4817 12.4151 15.0109 12.4151Z" fill="#7AE7FF"/>
</svg>
