<svg width="30" height="30" viewBox="0 0 30 30" fill="none" xmlns="http://www.w3.org/2000/svg">
<rect width="30" height="30" rx="15" fill="white" fill-opacity="0.15"/>
<path d="M18.9785 5.83325C22.086 5.83325 24.1668 8.01492 24.1668 11.2599V18.75C24.1668 21.9849 22.086 24.1666 18.9785 24.1666H11.031C7.9235 24.1666 5.8335 21.9849 5.8335 18.75V11.2599C5.8335 8.01492 7.9235 5.83325 11.031 5.83325H18.9785ZM18.8318 12.2499C18.5202 11.9383 18.0068 11.9383 17.6952 12.2499L13.9093 16.0358L12.3052 14.4316C11.9935 14.1199 11.4802 14.1199 11.1685 14.4316C10.8568 14.7433 10.8568 15.2474 11.1685 15.5683L13.3502 17.7408C13.506 17.8966 13.7077 17.9699 13.9093 17.9699C14.1202 17.9699 14.3218 17.8966 14.4777 17.7408L18.8318 13.3866C19.1435 13.0749 19.1435 12.5708 18.8318 12.2499Z" fill="#7DFF7A"/>
</svg>
