<svg width="30" height="30" viewBox="0 0 30 30" fill="none" xmlns="http://www.w3.org/2000/svg">
<rect width="30" height="30" rx="15" fill="white" fill-opacity="0.15"/>
<path d="M18.978 5.8326C22.0855 5.8326 24.1663 8.01426 24.1663 11.2593V18.7493C24.1663 21.9852 22.0855 24.1659 18.978 24.1659H11.0305C7.92301 24.1659 5.83301 21.9852 5.83301 18.7493V11.2593C5.83301 8.01426 7.92301 5.8326 11.0305 5.8326H18.978ZM14.9905 13.6068C14.5505 13.6068 14.193 13.9726 14.193 14.4135V18.4652C14.193 18.9052 14.5505 19.2627 14.9905 19.2627C15.4397 19.2627 15.7972 18.9052 15.7972 18.4652V14.4135C15.7972 13.9726 15.4397 13.6068 14.9905 13.6068ZM15.0088 10.701C14.5597 10.701 14.2022 11.0585 14.2022 11.5077C14.2022 11.9468 14.5597 12.3052 14.9905 12.3052C15.4488 12.3052 15.8063 11.9468 15.8063 11.5077C15.8063 11.0585 15.4488 10.701 15.0088 10.701Z" fill="#FFCA7A"/>
</svg>
