<svg width="15" height="15" viewBox="0 0 15 15" fill="none" xmlns="http://www.w3.org/2000/svg">
<g clip-path="url(#clip0)">
<path d="M9.45219 12.5549H8.7114V4.868C8.7114 4.7088 8.58219 4.57959 8.42298 4.57959H5.54793C5.38873 4.57959 5.25952 4.7088 5.25952 4.868V5.83202C5.25952 5.99123 5.38873 6.12044 5.54793 6.12044H6.36213V12.5549H5.62134C5.46213 12.5549 5.33292 12.6841 5.33292 12.8433V14.2116C5.33292 14.3708 5.46213 14.5 5.62134 14.5H9.45204C9.61125 14.5 9.74045 14.3708 9.74045 14.2116V12.8433C9.7406 12.6841 9.61168 12.5549 9.45219 12.5549Z" fill="white"/>
<path d="M7.50003 3.87847C8.43146 3.87847 9.18926 3.12066 9.18926 2.18923C9.18926 1.25781 8.43146 0.5 7.50003 0.5C6.5686 0.5 5.81079 1.25781 5.81079 2.18923C5.81079 3.12066 6.5686 3.87847 7.50003 3.87847Z" fill="white"/>
</g>
<defs>
<clipPath id="clip0">
<rect width="14" height="14" fill="white" transform="translate(0.5 0.5)"/>
</clipPath>
</defs>
</svg>
