<svg width="14" height="15" viewBox="0 0 14 15" fill="none" xmlns="http://www.w3.org/2000/svg">
<g clip-path="url(#clip0)">
<path d="M10.291 0.863129C8.24602 0.863129 6.58201 2.52714 6.58201 4.57215V5.82556H0.285944C0.210287 5.82556 0.137348 5.85573 0.0837168 5.90936C0.0300852 5.96328 -9.15527e-05 6.03593 -9.15527e-05 6.11188L0.00577217 13.8513C0.00577217 14.0092 0.133916 14.137 0.291808 14.137L8.57482 14.1312C8.73271 14.1312 8.86057 14.003 8.86057 13.8451V6.10587C8.86057 6.02964 8.83011 5.95642 8.7759 5.90279C8.72256 5.84944 8.6499 5.81984 8.57453 5.81984C8.57396 5.81984 8.5731 5.81984 8.57224 5.81984L8.14906 5.82312V4.57201C8.14906 3.39097 9.10999 2.43003 10.291 2.43003C11.4721 2.43003 12.4327 3.39097 12.4327 4.57201V5.53938C12.4327 5.69741 12.5609 5.82541 12.7188 5.82541H13.714C13.8719 5.82541 14.0001 5.69741 14.0001 5.53938V4.57201C13.9999 2.52714 12.336 0.863129 10.291 0.863129Z" fill="#858585"/>
</g>
<defs>
<clipPath id="clip0">
<rect width="14.0001" height="14" fill="white" transform="translate(-9.15527e-05 0.5)"/>
</clipPath>
</defs>
</svg>
