<svg width="68" height="68" viewBox="0 0 68 68" fill="none" xmlns="http://www.w3.org/2000/svg">
<g clip-path="url(#clip0)">
<path d="M13.5055 14.2772V14.5365C15.2873 14.5574 19.6009 14.0945 23.338 9.99203C20.4072 8.89927 18.7442 5.80079 19.453 2.75452C15.7351 5.41682 13.5223 9.70376 13.5055 14.2772Z" fill="#D13126"/>
<path d="M43.9451 24.3888C44.6109 24.0077 45.0222 23.2989 45.0222 22.5322C45.0222 21.7648 44.6109 21.056 43.9451 20.6749V24.3888Z" fill="#D13126"/>
<path d="M36.2076 0H25.5207C23.2244 0 21.3631 1.86129 21.3631 4.1576C21.3631 6.4539 23.2244 8.31519 25.5207 8.31519H45.492C44.9734 3.71214 41.0078 0 36.2076 0Z" fill="#D13126"/>
<path d="M11.4267 20.6227C10.7092 20.9736 10.2539 21.7033 10.2539 22.502C10.2539 23.3012 10.7092 24.0303 11.4267 24.3818V20.6227Z" fill="#D13126"/>
<path d="M38.9893 43.9518H36.3967L28.7995 48.7033V61.4731H37.1658C35.9848 59.1924 35.3689 56.6618 35.3689 54.0935C35.3683 50.2572 36.7278 46.773 38.9893 43.9518Z" fill="#D13126"/>
<path d="M12.3774 43.9518C7.22677 43.9518 2.96303 48.1685 2.96303 53.318V61.4731H26.7207V48.6882L19.5174 43.9518H12.3774Z" fill="#D13126"/>
<path d="M51.3502 40.1937C43.6719 40.1931 37.4471 46.4179 37.4465 54.0963C37.4465 61.7752 43.6713 68 51.3496 68C59.0285 68 65.2528 61.7752 65.2528 54.0968C65.2441 46.422 59.0251 40.203 51.3502 40.1937ZM57.1655 56.4245H50.5196C49.9297 56.4082 49.4553 55.9332 49.439 55.3433V46.6204C49.439 46.0461 49.9048 45.581 50.4784 45.581C51.0527 45.581 51.5178 46.0461 51.5178 46.6204V54.3457H57.1655C57.7397 54.3457 58.2049 54.8108 58.2049 55.3851C58.2049 55.9593 57.7397 56.4245 57.1655 56.4245Z" fill="white"/>
<path d="M35.0359 39.3434C30.6504 41.6832 25.4134 41.7963 20.9298 39.6491V42.3763L27.8007 46.8929L35.0359 42.3612V39.3434Z" fill="#D13126"/>
<path fill-rule="evenodd" clip-rule="evenodd" d="M12.8965 24.2219C12.896 28.0251 14.3878 31.6764 17.0512 34.3903C19.742 37.1535 23.3056 38.6755 27.0636 38.6755C30.8221 38.6755 34.3858 37.1535 37.0765 34.3903C39.7475 31.6793 41.2486 28.028 41.2573 24.2219V9.96558H25.1147C20.7564 15.4595 15.4556 16.1869 12.9905 16.1869C12.958 16.1869 12.8965 16.1834 12.8965 16.1834V24.2219ZM23.7327 21.3463C24.1906 20.8885 24.1906 20.1461 23.7327 19.6883C23.2749 19.2304 22.5326 19.2304 22.0747 19.6883L20.8312 20.9318L19.5876 19.6883C19.1298 19.2305 18.3875 19.2305 17.9296 19.6883C17.4717 20.1462 17.4717 20.8885 17.9296 21.3464L19.1731 22.5899L17.9296 23.8334C17.4717 24.2912 17.4717 25.0336 17.9296 25.4914C18.3874 25.9493 19.1298 25.9493 19.5876 25.4914L20.8312 24.2479L22.0747 25.4915C22.5326 25.9493 23.2749 25.9493 23.7328 25.4915C24.1906 25.0336 24.1906 24.2913 23.7328 23.8334L22.4892 22.5899L23.7327 21.3463ZM37.8017 19.6883C38.2596 20.1461 38.2596 20.8885 37.8017 21.3463L36.5582 22.5899L37.8017 23.8334C38.2596 24.2913 38.2596 25.0336 37.8017 25.4915C37.3439 25.9493 36.6015 25.9493 36.1437 25.4915L34.9001 24.2479L33.6566 25.4914C33.1987 25.9493 32.4564 25.9493 31.9986 25.4914C31.5407 25.0336 31.5407 24.2912 31.9986 23.8334L33.2421 22.5899L31.9986 21.3464C31.5407 20.8885 31.5407 20.1462 31.9986 19.6883C32.4564 19.2305 33.1988 19.2305 33.6566 19.6883L34.9001 20.9318L36.1437 19.6883C36.6015 19.2304 37.3439 19.2304 37.8017 19.6883Z" fill="#D13126"/>
</g>
<defs>
<clipPath id="clip0">
<rect width="68" height="68" fill="white"/>
</clipPath>
</defs>
</svg>
