<svg width="86" height="54" viewBox="0 0 86 54" fill="none" xmlns="http://www.w3.org/2000/svg">
<path d="M5.98577 24.782C5.98577 24.3141 5.79049 23.9521 5.39993 23.6959C5.00936 23.4341 4.46032 23.3033 3.75278 23.3033C3.13015 23.3033 2.63487 23.4258 2.26695 23.6708C1.90469 23.9159 1.72356 24.2584 1.72356 24.6984H0.144338C0.144338 23.9075 0.478295 23.2615 1.14621 22.7602C1.81979 22.2534 2.68864 22 3.75278 22C4.9471 22 5.88105 22.2339 6.55463 22.7018C7.2282 23.1696 7.56499 23.8212 7.56499 24.6566C7.56499 25.1356 7.40933 25.5728 7.09801 25.9683C6.7867 26.3581 6.33953 26.6672 5.75652 26.8956C6.42444 27.0961 6.91689 27.3996 7.23386 27.8062C7.5565 28.2128 7.71782 28.6695 7.71782 29.1763C7.71782 30.0563 7.35839 30.7469 6.63953 31.2481C5.92067 31.7494 4.95842 32 3.75278 32C3.23769 32 2.73958 31.9387 2.25846 31.8162C1.78299 31.6937 1.37262 31.5043 1.02734 31.2481C0.342448 30.7524 0 30.0674 0 29.193H1.57073C1.59903 29.672 1.79714 30.0451 2.16506 30.3124C2.53864 30.5798 3.06788 30.7135 3.75278 30.7135C4.52258 30.7135 5.11408 30.5798 5.52728 30.3124C5.94048 30.0451 6.14708 29.6664 6.14708 29.1763C6.14708 28.1014 5.41974 27.55 3.96504 27.5221H2.63204V26.2523H3.95655C5.30936 26.2245 5.98577 25.7343 5.98577 24.782Z" fill="white"/>
<path d="M15.7498 29.5355H11.3347L10.4008 31.8663H8.7961L12.863 22.1337H14.2724L18.2799 31.8663H16.6837L15.7498 29.5355ZM11.8442 28.274H15.2488L13.5592 24.0217L11.8442 28.274Z" fill="white"/>
<path d="M22.1176 27.6725H21.2176V31.8663H19.6469V22.1337H21.2176V26.386H22.0667L25.3695 22.1337H27.2628L23.3657 26.9039L27.5345 31.8663H25.5053L22.1176 27.6725Z" fill="white"/>
<path d="M30.5656 28.2072V31.8663H28.9949V22.1337H32.9599C34.1146 22.1337 35.0344 22.4121 35.7193 22.9691C36.4042 23.5205 36.7467 24.264 36.7467 25.1997C36.7467 26.1465 36.4155 26.8844 35.7533 27.4135C35.091 27.9426 34.1542 28.2072 32.9429 28.2072H30.5656ZM30.5656 26.9373H32.9599C33.6618 26.9373 34.2052 26.7898 34.5901 26.4946C34.975 26.1994 35.1674 25.7733 35.1674 25.2164C35.1674 24.6817 34.975 24.2501 34.5901 23.9215C34.2052 23.5873 33.6759 23.4174 33.0024 23.4119H30.5656V26.9373Z" fill="white"/>
<path d="M46.0607 28.8087C46.0607 29.7221 45.738 30.4573 45.0928 31.0142C44.4475 31.5711 43.5673 31.8552 42.4522 31.8663H38.4702V22.1337H40.041V25.7928H42.3588C43.5249 25.7928 44.4333 26.0657 45.0843 26.6115C45.7352 27.1573 46.0607 27.8897 46.0607 28.8087ZM42.3928 30.5965C43.0437 30.5965 43.556 30.4322 43.9296 30.1036C44.3032 29.7694 44.4899 29.3322 44.4899 28.792C44.4899 28.2852 44.3116 27.8758 43.9551 27.5639C43.6041 27.2464 43.1173 27.0794 42.4947 27.0627H40.041V30.5965H42.3928ZM49.0408 31.8663H47.4616V22.1337H49.0408V31.8663Z" fill="white"/>
<path d="M58.8897 23.4119H55.5021V31.8663H53.9313V23.4119H50.5606V22.1337H58.8897V23.4119Z" fill="white"/>
<path d="M68 28.8087C68 29.7221 67.6774 30.4573 67.0321 31.0142C66.3868 31.5711 65.5066 31.8552 64.3916 31.8663H60.4095V22.1337H61.9803V25.7928H64.2982C65.4642 25.7928 66.3727 26.0657 67.0236 26.6115C67.6745 27.1573 68 27.8897 68 28.8087ZM64.3321 30.5965C64.9831 30.5965 65.4953 30.4322 65.8689 30.1036C66.2425 29.7694 66.4293 29.3322 66.4293 28.792C66.4293 28.2852 66.251 27.8758 65.8944 27.5639C65.5434 27.2464 65.0566 27.0794 64.434 27.0627H61.9803V30.5965H64.3321Z" fill="white"/>
<path d="M79.9594 25.2275L83.287 20H85.8377L81.258 26.9459L86 34H83.4493L79.9826 28.6764L76.5507 34H74L78.7072 26.9459L74.1043 20H76.6435L79.9594 25.2275Z" fill="white"/>
</svg>
