<svg width="67" height="67" viewBox="0 0 67 67" fill="none" xmlns="http://www.w3.org/2000/svg">
<path d="M30.3411 62.0814L41.6057 59.063C44.7491 58.2208 47.1686 55.6161 47.9151 52.2481L52.6447 30.923L51.9741 30.6201C51.9614 30.6139 51.9487 30.6077 51.9364 30.6013C50.8763 30.0318 49.6273 29.9281 48.4884 30.316C47.3283 30.7236 46.3898 31.5953 45.8974 32.7223L44.0035 36.8972C43.8582 37.2171 43.5273 37.4116 43.177 37.3828C42.8263 37.3541 42.5319 37.1086 42.4404 36.7689L36.1166 13.2327C35.6853 11.6285 34.1406 10.6437 32.6726 11.0371C31.2369 11.4218 30.3973 12.9805 30.7592 14.5484C31.3962 16.9259 32.0884 19.5144 32.7479 21.9778C34.2399 27.5492 35.5274 32.358 35.6542 32.8239C35.7121 33.0365 35.6824 33.2634 35.5723 33.454C35.4617 33.6444 35.2799 33.7831 35.0669 33.8392L35.0642 33.8399C34.8523 33.8986 34.6262 33.8702 34.435 33.7617C34.2442 33.653 34.1044 33.4725 34.0468 33.2609C33.9191 32.7918 32.6323 27.9857 31.1397 22.4116C30.4954 20.0071 29.8198 17.4821 29.1957 15.1511C29.1893 15.1326 29.1837 15.1153 29.1787 15.0965C29.1664 15.0507 29.1555 15.0065 29.1446 14.9603C28.6202 13.0034 28.1359 11.196 27.7395 9.71634C27.3106 8.11207 25.7681 7.13769 24.2992 7.53128L24.2175 7.55317C22.7486 7.94677 21.8739 9.55775 22.3041 11.1631L28.6161 34.7199C28.7351 35.1639 28.4712 35.621 28.0272 35.7399C27.5827 35.859 27.1261 35.595 27.0071 35.151L21.5112 14.6398C21.081 13.0344 19.5607 12.0421 18.0918 12.4357C16.6144 12.8315 15.7944 14.451 16.2246 16.0563L21.7205 36.5675C21.8395 37.0115 21.5756 37.4686 21.1316 37.5876C20.6872 37.7067 20.2305 37.4427 20.1116 36.9987L16.8719 24.9081C16.4416 23.3022 14.8831 22.3721 13.4138 22.7658L13.337 22.7864C11.8717 23.179 11.0172 24.772 11.4425 26.3734C13.1975 32.9845 16.3281 44.6303 19.1319 55.0546C20.5207 60.2197 25.5479 63.3657 30.3411 62.0814Z" fill="white" fill-opacity="0.5"/>
</svg>
