<svg width="279" height="556" viewBox="0 0 279 556" fill="none" xmlns="http://www.w3.org/2000/svg">
<g opacity="0.05">
<path d="M142.463 317.872C141.646 327.519 148.181 378.582 151.553 398.604C153.158 408.09 157.56 423.544 155.976 431.75C153.715 443.186 153.061 457.986 154.306 466.604C155.092 471.837 157.563 495.974 154.027 504.802C152.177 509.432 148.786 533.157 148.786 533.157C139.952 555.507 144.937 554.407 144.937 554.407C147.672 557.771 152.357 554.672 152.357 554.672C155.925 556.951 158.397 554.13 158.397 554.13C161.46 556.671 165.031 553.817 165.031 553.817C168.879 555.82 172.447 552.128 172.447 552.128C174.658 553.243 175.198 551.834 175.198 551.834C181.83 551.408 171.498 530.141 171.498 530.141C169.024 511.041 173.953 500.41 173.953 500.41C190.099 452.429 190.919 439.697 184.465 421.615C182.647 416.395 182.188 414.328 183.024 412.062C184.957 406.831 183.548 385.793 185.907 377.44C190.457 361.328 194.945 320.467 197.284 301.401C200.428 275.72 186.149 241.287 186.149 241.287C183.021 227.274 187.606 177.348 187.606 177.348C194.009 187.332 193.764 204.956 193.764 204.956C192.748 223.439 208.665 251.688 208.665 251.688C216.313 263.362 219.209 274.438 219.209 275.259C219.209 278.623 218.475 286.763 218.475 286.763L218.768 293.853C218.9 295.659 219.914 301.876 219.75 304.88C218.556 323.372 221.487 319.893 221.487 319.893C223.961 319.893 226.68 305.012 226.68 305.012C226.68 308.85 225.744 320.337 227.809 324.671C230.28 329.839 232.098 323.784 232.13 322.569C232.784 299.025 234.196 305.193 234.196 305.193C235.57 324.293 237.259 328.608 240.287 327.115C242.581 326.018 240.483 304.193 240.483 304.193C244.412 317.158 247.391 319.222 247.391 319.222C253.875 323.784 249.865 311.183 248.965 308.688C244.167 295.43 244.019 290.835 244.019 290.835C250.013 302.749 254.531 302.307 254.531 302.307C260.377 300.437 249.422 283.567 243.003 275.486C239.727 271.368 235.503 265.855 234.276 262.581C232.278 257.035 230.77 239.206 230.77 239.206C230.165 218.168 224.975 209.03 224.975 209.03C216.1 194.796 214.43 168.245 214.43 168.245L214.038 123.418C210.927 92.84 188.443 92.6191 188.443 92.6191C165.717 89.229 162.554 81.8723 162.554 81.8723C157.741 74.9306 160.492 61.6239 160.492 61.6239C164.485 58.3686 166.026 49.7265 166.026 49.7265C172.657 44.6307 172.332 37.1743 169.269 37.2551C166.811 37.3198 167.368 35.2799 167.368 35.2799C171.514 1.71387 141.778 0 141.778 0H137.238C137.238 0 107.488 1.71387 111.63 35.2718C111.63 35.2718 112.186 37.3144 109.707 37.247C106.652 37.1662 106.367 44.6226 112.974 49.7184C112.974 49.7184 114.512 58.3578 118.509 61.6158C118.509 61.6158 121.259 74.9225 116.446 81.8643C116.446 81.8643 113.294 89.221 90.5575 92.611C90.5575 92.611 68.0359 92.832 64.9729 123.409L64.548 168.237C64.548 168.237 62.9103 194.788 54.0012 209.022C54.0012 209.022 48.8353 218.163 48.2383 239.198C48.2383 239.198 46.7243 257.027 44.7344 262.573C43.5216 265.83 39.2996 271.344 35.9973 275.478C29.5219 283.543 18.6389 300.377 24.4609 302.299C24.4609 302.299 29.0028 302.741 34.9728 290.827C34.9728 290.827 34.8491 295.389 30.0597 308.68C29.1185 311.143 25.1143 323.744 31.6006 319.214C31.6006 319.214 34.6043 317.147 38.509 304.185C38.509 304.185 36.4141 326.01 38.7456 327.107C41.7924 328.602 43.4543 324.285 44.8285 305.185C44.8285 305.185 46.2376 299.016 46.8911 322.561C46.9233 323.776 48.7009 329.831 51.1829 324.663C53.2778 320.329 52.3366 308.86 52.3366 305.004C52.3366 305.004 55.0231 319.885 57.5347 319.885C57.5347 319.885 60.4901 323.364 59.2773 304.872C59.081 301.851 60.1378 295.651 60.2696 293.845L60.5546 286.755C60.5546 286.755 59.8178 278.633 59.8178 275.251C59.8178 274.413 62.7167 263.354 70.362 251.68C70.362 251.68 86.2629 223.418 85.2383 204.948C85.2383 204.948 85.0178 187.324 91.4207 177.34C91.4207 177.34 95.9654 227.263 92.8863 241.278C92.8863 241.278 78.5827 275.712 81.7371 301.393C84.0605 320.51 88.5406 361.317 93.1014 377.431C95.484 385.769 94.0749 406.802 95.9842 412.054C96.8447 414.336 96.3929 416.438 94.5428 421.607C88.1238 439.689 88.9413 452.424 105.087 500.402C105.087 500.402 110.057 511.033 107.545 530.133C107.545 530.133 97.2293 551.4 103.837 551.826C103.837 551.826 104.353 553.235 106.588 552.12C106.588 552.12 110.156 555.811 114.012 553.809C114.012 553.809 117.583 556.666 120.636 554.122C120.636 554.122 123.083 556.943 126.651 554.663C126.651 554.663 131.336 557.83 134.119 554.399C134.119 554.399 139.064 555.499 130.26 533.148C130.26 533.148 126.888 509.453 125.03 504.794C121.485 495.969 123.989 471.781 124.745 466.596C125.963 457.929 125.309 443.165 123.083 431.742C121.453 423.555 125.866 408.098 127.496 398.596C130.844 378.593 137.405 327.527 136.585 317.864L139.296 318.818C141.237 318.823 142.463 317.872 142.463 317.872Z" fill="url(#paint0_linear)"/>
</g>
<defs>
<linearGradient id="paint0_linear" x1="-4.42859" y1="12.3949" x2="234.545" y2="603.877" gradientUnits="userSpaceOnUse">
<stop stop-color="white"/>
<stop offset="1" stop-color="#2496FF"/>
</linearGradient>
</defs>
</svg>
