<svg width="14" height="14" viewBox="0 0 14 14" fill="none" xmlns="http://www.w3.org/2000/svg">
<path d="M11.6314 2.44186C10.6058 0.87907 8.91279 0 7.00814 0C5.11977 0 3.42674 0.87907 2.3686 2.44186C1.31046 3.97209 1.06628 5.92558 1.71744 7.63488C1.89651 8.0907 2.17325 8.56279 2.53139 8.98605L6.65 13.8372C6.74767 13.9349 6.84535 14 6.99186 14C7.13837 14 7.23604 13.9349 7.33372 13.8372L11.4686 8.98605C11.8267 8.56279 12.1198 8.10698 12.2826 7.63488C12.9337 5.92558 12.6895 3.97209 11.6314 2.44186ZM7.00814 8.20465C5.60814 8.20465 4.45232 7.04884 4.45232 5.64884C4.45232 4.24884 5.60814 3.09302 7.00814 3.09302C8.40814 3.09302 9.56395 4.24884 9.56395 5.64884C9.56395 7.04884 8.42442 8.20465 7.00814 8.20465Z" fill="#FFD914"/>
</svg>
