<svg width="266" height="526" viewBox="0 0 266 526" fill="none" xmlns="http://www.w3.org/2000/svg">
    <path d="M0 120C0 118.343 1.34315 117 3 117V159C1.34315 159 0 157.657 0 156V120Z" fill="#5A5A5A"/>
    <path d="M0 169C0 167.343 1.34315 166 3 166V208C1.34315 208 0 206.657 0 205V169Z" fill="#5A5A5A"/>
    <path d="M266 192C266 193.657 264.657 195 263 195L263 130C264.657 130 266 131.343 266 133L266 192Z" fill="#5A5A5A"/>
    <path d="M46.3333 0C22.401 0 3 19.9135 3 44.478V80.3514C4.16547 81.5721 4.88406 83.244 4.88406 85.0882V106.36C4.88406 108.204 4.16547 109.876 3 111.097V481.522C3 506.087 22.401 526 46.3333 526H219.667C243.599 526 263 506.087 263 481.522V44.4779C263 19.9135 243.599 0 219.667 0H46.3333Z" fill="#2E2E2E"/>
    <path d="M46.3333 0C22.401 0 3 19.9135 3 44.478V80.3514C4.16547 81.5721 4.88406 83.244 4.88406 85.0882V106.36C4.88406 108.204 4.16547 109.876 3 111.097V481.522C3 506.087 22.401 526 46.3333 526H219.667C243.599 526 263 506.087 263 481.522V44.4779C263 19.9135 243.599 0 219.667 0H46.3333Z" fill="url(#paint0_linear)"/>
    <path d="M46.3333 0C22.401 0 3 19.9135 3 44.478V80.3514C4.16547 81.5721 4.88406 83.244 4.88406 85.0882V106.36C4.88406 108.204 4.16547 109.876 3 111.097V481.522C3 506.087 22.401 526 46.3333 526H219.667C243.599 526 263 506.087 263 481.522V44.4779C263 19.9135 243.599 0 219.667 0H46.3333Z" fill="url(#paint1_linear)"/>
    <path d="M5 44.478C5 20.9686 23.5544 2 46.3333 2H219.667C242.446 2 261 20.9685 261 44.4779V481.522C261 505.031 242.446 524 219.667 524H46.3333C23.5544 524 5 505.031 5 481.522V111.839C6.1809 110.335 6.88406 108.427 6.88406 106.36V85.0882C6.88406 83.0214 6.1809 81.1133 5 79.6091V44.478Z" stroke="white" stroke-opacity="0.25" stroke-width="4"/>
    <path d="M3.5 44.478C3.5 20.1772 22.6893 0.5 46.3333 0.5H219.667C243.311 0.5 262.5 20.1772 262.5 44.4779V481.522C262.5 505.823 243.311 525.5 219.667 525.5H46.3333C22.6894 525.5 3.5 505.823 3.5 481.522V111.293C4.67012 109.997 5.38406 108.263 5.38406 106.36V85.0882C5.38406 83.186 4.67012 81.4519 3.5 80.1551V44.478Z" stroke="white" stroke-opacity="0.25"/>
    <rect x="10" y="6" width="246" height="513" rx="36" fill="black"/>
    <defs>
        <linearGradient id="paint0_linear" x1="133" y1="0" x2="133" y2="526" gradientUnits="userSpaceOnUse">
            <stop offset="0.0710949" stop-opacity="0.58"/>
            <stop offset="0.0964611" stop-color="#505050"/>
            <stop offset="0.913569" stop-color="#919191"/>
            <stop offset="0.93125" stop-opacity="0.42"/>
        </linearGradient>
        <linearGradient id="paint1_linear" x1="-106" y1="256.5" x2="218" y2="558.5" gradientUnits="userSpaceOnUse">
            <stop stop-color="#161616"/>
            <stop offset="0.682292" stop-color="white" stop-opacity="0.5"/>
            <stop offset="1" stop-color="white" stop-opacity="0"/>
        </linearGradient>
    </defs>
</svg>