<svg width="26" height="26" viewBox="0 0 26 26" fill="none" xmlns="http://www.w3.org/2000/svg">
<g clip-path="url(#clip0)">
<path d="M25.7336 11.9008C25.4961 8.30922 23.7152 4.95509 20.8954 2.7289C18.0755 0.50271 14.3949 -0.417449 10.833 0.176202C4.48091 1.27446 -0.179255 7.1516 0.265983 13.6224C0.473761 16.7391 1.77979 19.6183 3.9763 21.8148C3.41233 22.6459 2.90773 23.1802 1.57202 24.2487C1.30487 24.4565 1.18614 24.783 1.27519 25.1095C1.33456 25.4361 1.57202 25.7032 1.86884 25.7922C2.31408 25.9407 2.9671 26 3.70916 26C5.28233 26 7.27106 25.6438 8.81456 24.8424C10.8627 25.5548 13.0592 25.7329 15.226 25.347C21.5781 24.2191 26.1788 18.3122 25.7336 11.9008ZM7.06329 15.0768C5.90567 15.0768 4.98551 14.1567 4.98551 12.9991C4.98551 11.8414 5.90567 10.9213 7.06329 10.9213C8.22091 10.9213 9.14107 11.8414 9.14107 12.9991C9.14107 14.1567 8.22091 15.0768 7.06329 15.0768ZM12.9998 15.0768C11.8422 15.0768 10.922 14.1567 10.922 12.9991C10.922 11.8414 11.8422 10.9213 12.9998 10.9213C14.1574 10.9213 15.0776 11.8414 15.0776 12.9991C15.0776 14.1567 14.1574 15.0768 12.9998 15.0768ZM18.9363 15.0768C17.7787 15.0768 16.8585 14.1567 16.8585 12.9991C16.8585 11.8414 17.7787 10.9213 18.9363 10.9213C20.0939 10.9213 21.0141 11.8414 21.0141 12.9991C21.0141 14.1567 20.0939 15.0768 18.9363 15.0768Z" fill="#2496FF"/>
</g>
<defs>
<clipPath id="clip0">
<rect width="26" height="26" fill="white"/>
</clipPath>
</defs>
</svg>
