<svg width="46" height="46" viewBox="0 0 46 46" fill="none" xmlns="http://www.w3.org/2000/svg">
<rect width="46" height="46" rx="12" fill="url(#paint0_linear)"/>
<g clip-path="url(#clip0)">
<path d="M23.0018 10C19.2875 10 16.2512 13.0363 16.2512 16.7506C16.2512 20.4649 19.2875 23.5012 23.0018 23.5012C26.7161 23.5012 29.7524 20.4649 29.7524 16.7506C29.7524 13.0363 26.7161 10 23.0018 10Z" fill="white"/>
<path d="M34.5869 28.896C34.41 28.4538 34.1743 28.0411 33.909 27.6579C32.5529 25.6534 30.46 24.3268 28.1017 24.0026C27.807 23.9731 27.4827 24.032 27.2468 24.2089C26.0087 25.1227 24.5348 25.5944 23.0019 25.5944C21.469 25.5944 19.9951 25.1227 18.757 24.2089C18.5212 24.032 18.1969 23.9436 17.9021 24.0026C15.5439 24.3268 13.4214 25.6534 12.0949 27.6579C11.8296 28.0411 11.5937 28.4833 11.4169 28.896C11.3285 29.0729 11.358 29.2792 11.4464 29.4561C11.6822 29.8688 11.977 30.2815 12.2423 30.6353C12.655 31.1954 13.0972 31.6965 13.5983 32.1681C14.011 32.5808 14.4826 32.964 14.9543 33.3473C17.2831 35.0865 20.0836 36.0003 22.9725 36.0003C25.8614 36.0003 28.6618 35.0865 30.9906 33.3473C31.4623 32.9935 31.9339 32.5808 32.3466 32.1681C32.8183 31.6965 33.2899 31.1953 33.7027 30.6353C33.9974 30.252 34.2628 29.8688 34.4986 29.4561C34.6459 29.2792 34.6754 29.0728 34.5869 28.896Z" fill="white"/>
</g>
<defs>
<linearGradient id="paint0_linear" x1="23" y1="0" x2="23" y2="46" gradientUnits="userSpaceOnUse">
<stop stop-color="#2496FF"/>
<stop offset="1" stop-color="#243AFF"/>
</linearGradient>
<clipPath id="clip0">
<rect width="26" height="26" fill="white" transform="translate(10 10)"/>
</clipPath>
</defs>
</svg>
