<svg width="46" height="46" viewBox="0 0 46 46" fill="none" xmlns="http://www.w3.org/2000/svg">
<rect width="46" height="46" rx="12" fill="#FF4747"/>
<path d="M34.6271 20.9476L23.7367 11.6727C23.3178 11.3135 22.6998 11.3135 22.2812 11.6727L11.3909 20.948C10.705 21.534 10.6211 22.564 11.203 23.2534L11.208 23.2593C11.7956 23.9464 12.8286 24.0274 13.5161 23.4405L21.7224 16.4346C22.4619 15.7982 23.5557 15.7982 24.2951 16.4346L32.5015 23.4405L32.5057 23.444C33.1959 24.0182 34.2197 23.9296 34.8012 23.2454C35.3826 22.5613 35.3051 21.5365 34.6271 20.948V20.9476Z" fill="white"/>
<path d="M25.5141 23.9398C24.813 23.9398 24.0338 24.2366 23.2607 24.7976C23.1087 24.9079 22.9025 24.9067 22.7518 24.7943C21.9789 24.2175 21.1965 23.9126 20.4895 23.9126C19.2644 23.9126 18.3408 24.7701 18.079 26.1504C17.6648 28.3104 19.0292 31.196 23.0084 32.7839C25.8796 31.6125 28.5122 29.1126 27.9389 26.1538C27.6627 24.7879 26.7339 23.9398 25.5141 23.9398Z" fill="white"/>
<path d="M29.6113 10.9482C28.8703 10.9491 28.27 11.5495 28.2693 12.2905V14.406L30.9532 16.6926V12.2905C30.9526 11.5495 30.3523 10.9491 29.6113 10.9482Z" fill="white"/>
<path d="M31.9427 24.0936L23.7357 17.0879C23.3159 16.7273 22.6956 16.7273 22.276 17.0879L14.0654 24.0936C14.0092 24.1415 13.9375 24.1868 13.8839 24.229V32.8619C13.8839 34.0512 14.8682 35.0073 16.0578 35.0073H29.9601C31.1493 35.0073 32.134 34.0512 32.134 32.8619V24.2284C32.0803 24.1881 32.0132 24.1457 31.9595 24.1004L31.9427 24.0936ZM23.306 33.5901C23.2974 33.5938 23.289 33.5968 23.2805 33.5997C23.1051 33.6653 22.912 33.6653 22.7367 33.5997C22.7291 33.5971 22.7214 33.5943 22.714 33.5914C18.2609 31.8242 16.7537 28.5 17.2352 25.9895C17.5735 24.2066 18.8511 23.0538 20.4895 23.0538C21.3139 23.0538 22.1614 23.3469 23.0124 23.9254C23.8524 23.372 24.7123 23.0809 25.5141 23.0809C27.1427 23.0809 28.4251 24.2212 28.7809 25.9857L28.7814 25.9885C29.2638 28.4727 27.7576 31.7868 23.306 33.5901Z" fill="white"/>
</svg>
