<svg width="16" height="16" viewBox="0 0 16 16" fill="none" xmlns="http://www.w3.org/2000/svg">
<path fill-rule="evenodd" clip-rule="evenodd" d="M10.7605 11.7016C9.80692 12.3571 8.65195 12.7408 7.40737 12.7408C4.13457 12.7408 1.48145 10.0876 1.48145 6.81484C1.48145 3.54204 4.13457 0.888916 7.40737 0.888916C10.6802 0.888916 13.3333 3.54204 13.3333 6.81484C13.3333 8.41644 12.6979 9.86965 11.6655 10.9361L14.4222 14.1008C14.6371 14.3476 14.6113 14.7219 14.3646 14.9369C14.1178 15.1519 13.7435 15.1261 13.5285 14.8793L10.7605 11.7016ZM12.1481 6.81484C12.1481 9.43308 10.0256 11.5556 7.40737 11.5556C4.78913 11.5556 2.66663 9.43308 2.66663 6.81484C2.66663 4.1966 4.78913 2.0741 7.40737 2.0741C10.0256 2.0741 12.1481 4.1966 12.1481 6.81484Z" fill="#858585"/>
</svg>
