<svg width="26" height="26" viewBox="0 0 26 26" fill="none" xmlns="http://www.w3.org/2000/svg">
<g clip-path="url(#clip0)">
<path d="M20.0301 25.543C19.5099 26.0652 18.6943 26.1499 18.0782 25.7454L10.5249 20.7318C8.43644 19.3481 6.64706 17.5587 5.26339 15.4702L0.249704 7.91693C-0.154226 7.30083 -0.0698185 6.48532 0.452181 5.96511L6.19697 0.220326C6.33672 0.079307 6.52695 0 6.7256 0C6.92425 0 7.11474 0.079307 7.25448 0.220326L11.341 4.30706C11.482 4.4468 11.5613 4.63729 11.5613 4.83569C11.5613 5.03434 11.482 5.22457 11.341 5.36457L8.53385 8.17168C7.86777 8.83776 7.76399 9.88124 8.28599 10.6654L8.90616 11.599C10.3444 13.7749 12.2072 15.6378 14.3832 17.076L15.3168 17.6962C16.1009 18.2182 17.1444 18.1144 17.8105 17.448L20.6176 14.6409C20.7573 14.5002 20.9478 14.4209 21.1465 14.4209C21.3449 14.4209 21.5354 14.5002 21.6751 14.6409L25.7619 18.7277C25.9029 18.8674 25.9822 19.0579 25.9822 19.2566C25.9822 19.455 25.9029 19.6454 25.7619 19.7852L23.2029 22.3442C23.1962 22.3508 23.1896 22.3574 23.1896 22.3638L23.1702 22.3834L20.0301 25.543Z" fill="#2496FF"/>
</g>
<defs>
<clipPath id="clip0">
<rect width="26" height="26" fill="white" transform="matrix(-1 0 0 1 26 0)"/>
</clipPath>
</defs>
</svg>
