<svg width="9" height="7" viewBox="0 0 9 7" fill="none" xmlns="http://www.w3.org/2000/svg">
<path d="M6.93538 0.532839C7.68083 0.872473 8.36051 1.36482 8.93839 1.98339C8.97358 2.02106 8.97352 2.07938 8.93884 2.11752L8.174 2.95882C8.13432 3.00246 8.06574 3.00239 8.02517 2.95957C7.56844 2.47744 7.03372 2.093 6.44831 1.82628C5.83062 1.54485 5.16858 1.4 4.5 1.4C3.83142 1.4 3.16939 1.54485 2.5517 1.82628C1.96629 2.093 1.43157 2.47745 0.974834 2.95957C0.934271 3.00239 0.865687 3.00246 0.826011 2.95882L0.0611569 2.11752C0.02648 2.07938 0.0264247 2.02106 0.0616155 1.98339C0.639486 1.36482 1.31917 0.872476 2.06462 0.532842C2.83673 0.181058 3.66428 0 4.5 0C5.33573 -2.3602e-06 6.16327 0.181058 6.93538 0.532839Z" fill="black"/>
<path d="M1.41182 3.4685C1.37641 3.50596 1.37649 3.56431 1.41116 3.60245L2.17601 4.44374C2.21569 4.48738 2.28424 4.48728 2.32533 4.44497C2.60443 4.15755 2.92856 3.9276 3.28231 3.76642C3.66837 3.59053 4.08214 3.5 4.5 3.5C4.91787 3.5 5.33164 3.59053 5.7177 3.76643C6.07145 3.9276 6.39558 4.15756 6.67468 4.44497C6.71577 4.48728 6.78432 4.48738 6.824 4.44374L7.58885 3.60245C7.62352 3.56431 7.6236 3.50596 7.58819 3.4685C7.18774 3.04482 6.71857 2.70709 6.20477 2.47299C5.6643 2.22675 5.08501 2.1 4.5 2.1C3.915 2.1 3.33572 2.22675 2.79524 2.47299C2.28143 2.70709 1.81227 3.04483 1.41182 3.4685Z" fill="black"/>
<path d="M6.23885 5.08737C6.27352 5.04923 6.27367 4.99082 6.23771 4.95388C6.01489 4.72493 5.7563 4.54169 5.47416 4.41314C5.16531 4.27243 4.8343 4.2 4.5 4.2C4.16571 4.2 3.83469 4.27243 3.52585 4.41314C3.24371 4.54169 2.98512 4.72493 2.7623 4.95388C2.72634 4.99083 2.72649 5.04923 2.76116 5.08738L4.42601 6.91861C4.46568 6.96225 4.53432 6.96225 4.57399 6.91861L6.23885 5.08737Z" fill="black"/>
</svg>
