<svg width="20" height="20" viewBox="0 0 20 20" fill="none" xmlns="http://www.w3.org/2000/svg">
<mask id="path-1-inside-1" fill="white">
<path fill-rule="evenodd" clip-rule="evenodd" d="M10 20C15.5228 20 20 15.5228 20 10C20 4.47715 15.5228 0 10 0C4.47715 0 0 4.47715 0 10C0 15.5228 4.47715 20 10 20ZM16.4599 13.0301C17.1173 12.5501 17.4595 11.9073 17.4865 11.1018H15.2105C15.2285 11.7863 14.794 12.1285 13.907 12.1285C13.3982 12.1285 13.0425 11.9741 12.8399 11.6653C12.6373 11.3564 12.536 10.8431 12.536 10.1252L12.5428 9.56803C12.6013 8.44115 13.0358 7.87771 13.8462 7.87771C14.2875 7.87771 14.6297 7.97371 14.8728 8.16569C15.1159 8.35768 15.233 8.62479 15.224 8.96703H17.5C17.4235 8.12813 17.061 7.46661 16.4127 6.98247C15.7688 6.49416 14.9133 6.25 13.8462 6.25C13.1303 6.25 12.5 6.39608 11.9552 6.68823C11.4104 6.98038 10.9894 7.40401 10.6923 7.9591C10.3951 8.51002 10.2465 9.15275 10.2465 9.88731V10.0939C10.2465 11.2625 10.5662 12.164 11.2055 12.7984C11.8494 13.4328 12.7499 13.75 13.907 13.75C14.9516 13.75 15.8026 13.51 16.4599 13.0301ZM7.22085 7.98414H9.72647V6.35643H2.5V7.98414H4.93134V13.6498H7.22085V7.98414Z"/>
</mask>
<path fill-rule="evenodd" clip-rule="evenodd" d="M10 20C15.5228 20 20 15.5228 20 10C20 4.47715 15.5228 0 10 0C4.47715 0 0 4.47715 0 10C0 15.5228 4.47715 20 10 20ZM16.4599 13.0301C17.1173 12.5501 17.4595 11.9073 17.4865 11.1018H15.2105C15.2285 11.7863 14.794 12.1285 13.907 12.1285C13.3982 12.1285 13.0425 11.9741 12.8399 11.6653C12.6373 11.3564 12.536 10.8431 12.536 10.1252L12.5428 9.56803C12.6013 8.44115 13.0358 7.87771 13.8462 7.87771C14.2875 7.87771 14.6297 7.97371 14.8728 8.16569C15.1159 8.35768 15.233 8.62479 15.224 8.96703H17.5C17.4235 8.12813 17.061 7.46661 16.4127 6.98247C15.7688 6.49416 14.9133 6.25 13.8462 6.25C13.1303 6.25 12.5 6.39608 11.9552 6.68823C11.4104 6.98038 10.9894 7.40401 10.6923 7.9591C10.3951 8.51002 10.2465 9.15275 10.2465 9.88731V10.0939C10.2465 11.2625 10.5662 12.164 11.2055 12.7984C11.8494 13.4328 12.7499 13.75 13.907 13.75C14.9516 13.75 15.8026 13.51 16.4599 13.0301ZM7.22085 7.98414H9.72647V6.35643H2.5V7.98414H4.93134V13.6498H7.22085V7.98414Z" fill="url(#paint0_radial)"/>
<path d="M17.4865 11.1018L18.4859 11.1354L18.5206 10.1018H17.4865V11.1018ZM16.4599 13.0301L17.0496 13.8377L16.4599 13.0301ZM15.2105 11.1018V10.1018H14.1838L14.2108 11.1281L15.2105 11.1018ZM12.8399 11.6653L12.0038 12.2138L12.0038 12.2138L12.8399 11.6653ZM12.536 10.1252L11.536 10.1131V10.1252H12.536ZM12.5428 9.56803L11.5441 9.51616L11.5431 9.53602L11.5428 9.55591L12.5428 9.56803ZM14.8728 8.16569L14.2531 8.95051L14.2531 8.95052L14.8728 8.16569ZM15.224 8.96703L14.2243 8.94073L14.1973 9.96703H15.224V8.96703ZM17.5 8.96703V9.96703H18.5954L18.4959 8.87617L17.5 8.96703ZM16.4127 6.98247L15.8083 7.77926L15.8143 7.78373L16.4127 6.98247ZM11.9552 6.68823L12.4278 7.56951V7.56951L11.9552 6.68823ZM10.6923 7.9591L11.5724 8.43384L11.5739 8.43106L10.6923 7.9591ZM11.2055 12.7984L10.5012 13.5083L10.5037 13.5107L11.2055 12.7984ZM9.72647 7.98414V8.98414H10.7265V7.98414H9.72647ZM7.22085 7.98414V6.98414H6.22085V7.98414H7.22085ZM9.72647 6.35643H10.7265V5.35643H9.72647V6.35643ZM2.5 6.35643V5.35643H1.5V6.35643H2.5ZM2.5 7.98414H1.5V8.98414H2.5V7.98414ZM4.93134 7.98414H5.93134V6.98414H4.93134V7.98414ZM4.93134 13.6498H3.93134V14.6498H4.93134V13.6498ZM7.22085 13.6498V14.6498H8.22085V13.6498H7.22085ZM19 10C19 14.9706 14.9706 19 10 19V21C16.0751 21 21 16.0751 21 10H19ZM10 1C14.9706 1 19 5.02944 19 10H21C21 3.92487 16.0751 -1 10 -1V1ZM1 10C1 5.02944 5.02944 1 10 1V-1C3.92487 -1 -1 3.92487 -1 10H1ZM10 19C5.02944 19 1 14.9706 1 10H-1C-1 16.0751 3.92487 21 10 21V19ZM16.4871 11.0683C16.4705 11.563 16.2821 11.9217 15.8702 12.2224L17.0496 13.8377C17.9524 13.1785 18.4485 12.2517 18.4859 11.1354L16.4871 11.0683ZM15.2105 12.1018H17.4865V10.1018H15.2105V12.1018ZM13.907 13.1285C14.4489 13.1285 15.0448 13.0293 15.5169 12.6574C16.0412 12.2444 16.2253 11.6497 16.2101 11.0755L14.2108 11.1281C14.2125 11.1932 14.2021 11.2007 14.2125 11.1751C14.2256 11.1428 14.2513 11.1084 14.2794 11.0863C14.3018 11.0687 14.2984 11.0803 14.2367 11.0963C14.1736 11.1127 14.0679 11.1285 13.907 11.1285V13.1285ZM12.0038 12.2138C12.4566 12.904 13.2009 13.1285 13.907 13.1285V11.1285C13.7489 11.1285 13.6764 11.1039 13.6569 11.0954C13.6487 11.0919 13.6514 11.0919 13.6592 11.0984C13.6673 11.1051 13.6732 11.1124 13.6761 11.1168L12.0038 12.2138ZM11.536 10.1252C11.536 10.8841 11.6332 11.6488 12.0038 12.2138L13.6761 11.1168C13.6415 11.064 13.536 10.802 13.536 10.1252H11.536ZM11.5428 9.55591L11.5361 10.1131L13.5359 10.1373L13.5427 9.58015L11.5428 9.55591ZM13.8462 6.87771C13.18 6.87771 12.5553 7.12602 12.1206 7.68963C11.7259 8.20147 11.5782 8.85929 11.5441 9.51616L13.5414 9.6199C13.5658 9.14989 13.6646 8.96255 13.7044 8.91095C13.7173 8.89424 13.7211 8.89446 13.7212 8.8944C13.7254 8.89249 13.7597 8.87771 13.8462 8.87771V6.87771ZM15.4925 7.38087C15.0116 7.00109 14.4193 6.87771 13.8462 6.87771V8.87771C14.1557 8.87771 14.2478 8.94632 14.2531 8.95051L15.4925 7.38087ZM16.2237 8.99333C16.2399 8.37415 16.0116 7.79076 15.4925 7.38087L14.2531 8.95052C14.2556 8.95248 14.2515 8.94963 14.2448 8.94104C14.2378 8.93222 14.2316 8.92178 14.2271 8.91142C14.2226 8.90131 14.222 8.8962 14.2225 8.89905C14.2231 8.90234 14.225 8.91545 14.2243 8.94073L16.2237 8.99333ZM17.5 7.96703H15.224V9.96703H17.5V7.96703ZM15.8143 7.78373C16.2251 8.09042 16.4522 8.4883 16.5041 9.05789L18.4959 8.87617C18.3948 7.76796 17.897 6.8428 17.011 6.18121L15.8143 7.78373ZM13.8462 7.25C14.7649 7.25 15.3868 7.45951 15.8084 7.77924L17.0169 6.1857C16.1508 5.52881 15.0618 5.25 13.8462 5.25V7.25ZM12.4278 7.56951C12.8058 7.36681 13.269 7.25 13.8462 7.25V5.25C12.9916 5.25 12.1942 5.42535 11.4826 5.80695L12.4278 7.56951ZM11.5739 8.43106C11.7798 8.04632 12.0601 7.7667 12.4278 7.56951L11.4826 5.80695C10.7607 6.19407 10.199 6.76169 9.81064 7.48713L11.5739 8.43106ZM11.2465 9.88731C11.2465 9.28967 11.3665 8.81547 11.5724 8.43384L9.81213 7.48436C9.42365 8.20456 9.24651 9.01584 9.24651 9.88731H11.2465ZM11.2465 10.0939V9.88731H9.24651V10.0939H11.2465ZM11.9099 12.0886C11.5114 11.6932 11.2465 11.0788 11.2465 10.0939H9.24651C9.24651 11.4463 9.62097 12.6349 10.5012 13.5083L11.9099 12.0886ZM13.907 12.75C12.9356 12.75 12.3157 12.4884 11.9074 12.0861L10.5037 13.5107C11.3831 14.3772 12.5642 14.75 13.907 14.75V12.75ZM15.8702 12.2224C15.4271 12.546 14.7999 12.75 13.907 12.75V14.75C15.1033 14.75 16.1781 14.474 17.0496 13.8377L15.8702 12.2224ZM9.72647 6.98414H7.22085V8.98414H9.72647V6.98414ZM8.72647 6.35643V7.98414H10.7265V6.35643H8.72647ZM2.5 7.35643H9.72647V5.35643H2.5V7.35643ZM3.5 7.98414V6.35643H1.5V7.98414H3.5ZM4.93134 6.98414H2.5V8.98414H4.93134V6.98414ZM5.93134 13.6498V7.98414H3.93134V13.6498H5.93134ZM7.22085 12.6498H4.93134V14.6498H7.22085V12.6498ZM6.22085 7.98414V13.6498H8.22085V7.98414H6.22085Z" fill="black" fill-opacity="0.15" mask="url(#path-1-inside-1)"/>
<path fill-rule="evenodd" clip-rule="evenodd" d="M16.5276 7.07267C17.0238 5.91341 17.1952 4.67873 16.9684 3.44793C16.9166 3.1669 16.8454 2.89308 16.7558 2.62704C14.9763 0.995636 12.6044 0 10 0C4.47715 0 0 4.47715 0 10C0 10.7354 0.0793924 11.4524 0.230074 12.1426C1.58699 12.8236 3.19817 13.2334 4.93134 13.3067V7.98414H2.5V6.35643H9.72647V7.98414H7.22085V13.2098C7.48962 13.176 7.75983 13.1343 8.03104 13.0843C9.00551 12.9047 9.93007 12.6306 10.7896 12.2783C10.4275 11.7014 10.2465 10.9733 10.2465 10.0939V9.88731C10.2465 9.15275 10.3951 8.51002 10.6923 7.9591C10.9894 7.40401 11.4104 6.98038 11.9552 6.68823C12.5 6.39608 13.1303 6.25 13.8462 6.25C14.9133 6.25 15.7688 6.49416 16.4127 6.98247C16.452 7.01188 16.4904 7.04195 16.5276 7.07267ZM15.3763 8.96703H15.224C15.233 8.62479 15.1159 8.35768 14.8728 8.16569C14.6297 7.97371 14.2875 7.87771 13.8462 7.87771C13.0358 7.87771 12.6013 8.44115 12.5428 9.56803L12.536 10.1252C12.536 10.6188 12.5839 11.0157 12.6797 11.316C13.7508 10.651 14.6645 9.8521 15.3763 8.96703Z" fill="#C4C4C4" fill-opacity="0.25"/>
<defs>
<radialGradient id="paint0_radial" cx="0" cy="0" r="1" gradientUnits="userSpaceOnUse" gradientTransform="translate(10 10) rotate(90) scale(10)">
<stop stop-color="#FF42F7"/>
<stop offset="1" stop-color="#F100E7"/>
</radialGradient>
</defs>
</svg>
