<svg width="22" height="22" viewBox="0 0 22 22" fill="none" xmlns="http://www.w3.org/2000/svg">
<g clip-path="url(#clip0)">
<path d="M15.0085 14.688H6.99161L6.28052 16.4156L6.15723 16.7152H7.70302C7.70086 16.7016 7.69886 16.688 7.69886 16.6739V16.4156V15.9245C7.69886 15.7794 7.81642 15.6618 7.96151 15.6618C8.10655 15.6618 8.22416 15.7794 8.22416 15.9245V16.4156V16.6739C8.22416 16.688 8.22216 16.7016 8.22 16.7152H10.7416C10.7394 16.7016 10.7374 16.688 10.7374 16.6739V16.4156V15.9245C10.7374 15.7794 10.855 15.6618 11.0001 15.6618C11.1451 15.6618 11.2627 15.7794 11.2627 15.9245V16.4156V16.6739C11.2627 16.688 11.2607 16.7016 11.2586 16.7152H13.7801C13.778 16.7016 13.776 16.688 13.776 16.6739V16.4156V15.9245C13.776 15.7794 13.8935 15.6618 14.0386 15.6618C14.1837 15.6618 14.3013 15.7794 14.3013 15.9245V16.4156V16.6739C14.3013 16.688 14.2993 16.7016 14.2971 16.7152H15.8429L15.7196 16.4156L15.0085 14.688Z" fill="white"/>
<path d="M21.8473 7.94542C21.795 7.79317 21.6096 7.67472 21.4549 7.67472C20.7848 7.67472 20.1148 7.67472 19.4447 7.67472C19.2899 7.67472 19.1046 7.79322 19.0523 7.94542C18.9804 8.15475 18.9344 8.33221 18.9133 8.50068C18.0291 6.79821 17.05 4.90332 17.05 4.90332C16.9537 4.63425 16.7212 4.4372 16.4401 4.38634C14.629 4.05878 12.7989 3.89273 11.0006 3.89273C9.20228 3.89273 7.37177 4.05878 5.56006 4.38634C5.27893 4.43714 5.04629 4.63425 4.95 4.90327C4.95 4.90327 3.97089 6.79821 3.0867 8.50063C3.06559 8.33222 3.01963 8.15469 2.94771 7.94537C2.89544 7.79312 2.71007 7.67467 2.55534 7.67467C1.88532 7.67467 1.21518 7.67467 0.545158 7.67467C0.390432 7.67467 0.205065 7.79317 0.152682 7.94537C-0.0509004 8.53806 -0.0507424 8.87742 0.152735 9.47016C0.205065 9.62241 0.390432 9.74087 0.545158 9.74087C1.21397 9.74087 1.88279 9.74087 2.55155 9.74087C2.55197 9.76593 2.5534 9.79088 2.55619 9.81583C2.13307 9.94418 1.82504 10.337 1.82504 10.802V15.1282V15.3847V17.6117C1.82504 17.8853 2.04673 18.1071 2.32038 18.1071H4.81381C5.08741 18.1071 5.30921 17.8853 5.30921 17.6117V16.4155H5.71253L6.57287 14.3253C6.61341 14.2269 6.70927 14.1627 6.81573 14.1627H15.1844C15.2909 14.1627 15.3868 14.2269 15.4273 14.3253L16.2876 16.4155H16.6909V17.6117C16.6909 17.8853 16.9127 18.1071 17.1863 18.1071H19.6797C19.9533 18.1071 20.1751 17.8853 20.1751 17.6117V15.3847V15.1282V10.802C20.1751 10.337 19.8671 9.94418 19.4439 9.81583C19.4467 9.79088 19.4481 9.76593 19.4486 9.74087C20.1173 9.74087 20.7861 9.74087 21.455 9.74087C21.6097 9.74087 21.7951 9.62247 21.8474 9.47016C22.051 8.87747 22.0509 8.53811 21.8473 7.94542ZM6.05531 5.48696C6.05531 5.48696 7.25253 5.18309 11 5.18309C14.7475 5.18309 15.9447 5.48696 15.9447 5.48696L17.702 9.74092H4.29803L6.05531 5.48696ZM3.87123 12.8478V11.4502H6.89833L7.79773 12.8478H3.87123ZM18.1288 12.8478H14.2023L15.1017 11.4502H18.1288V12.8478Z" fill="white"/>
</g>
<defs>
<clipPath id="clip0">
<rect width="22" height="22" fill="white"/>
</clipPath>
</defs>
</svg>
