<svg width="22" height="22" viewBox="0 0 22 22" fill="none" xmlns="http://www.w3.org/2000/svg">
<g clip-path="url(#clip0)">
<path d="M8.60423 6.48543V1.16598C8.60423 0.800524 8.55347 0.39881 8.40409 0.182725C4.78722 -0.829536 4.371 2.69017 4.371 2.69017C4.25498 3.13249 4.19697 3.95478 4.16797 4.80316C4.3565 4.7582 4.54358 4.73065 4.72341 4.73065C5.24839 4.73065 5.70956 4.93803 6.02281 5.31509C6.41583 5.78932 6.5507 6.46948 6.44193 7.42808H7.38168C7.96757 7.42808 8.46065 7.02636 8.60423 6.48543Z" fill="white"/>
<path d="M19.6898 14.1049H19.0981C17.9176 14.1049 16.9547 13.3334 16.9547 12.3835V11.4409C16.5732 11.7193 16.07 11.8919 15.5146 11.8919H14.9229C13.7409 11.8919 12.778 11.1218 12.778 10.1719V9.77744C12.3966 10.0559 11.8934 10.227 11.3379 10.227H10.7462C9.58023 10.227 8.63033 9.47435 8.60568 8.54185C8.27503 8.82174 7.84866 8.99287 7.38313 8.99287H6.34477C6.207 9.59762 6.35782 11.2306 5.6037 11.8426C5.17588 12.2399 4.62334 11.5438 4.62334 11.5438C5.82994 10.2285 5.75162 8.12418 5.75162 8.12418C6.05472 6.49267 4.9743 5.61093 4.3536 5.61093C4.17667 5.61093 3.98089 5.65444 3.77931 5.72405C3.77931 5.72405 2.58722 6.33895 2.11155 6.76822C1.66487 7.07711 0.810688 8.09373 0.722224 8.19814L0.700471 8.16769C-0.475666 10.082 0.976015 12.0514 0.976015 12.0514C2.84971 15.3289 6.36797 19.6593 6.36797 19.6593C8.00673 21.0646 7.06988 21.8825 7.06988 21.8825L19.3548 22L19.9784 19.8943C21.1342 17.687 21.5968 15.0563 21.7593 12.8273C21.5142 13.5625 20.6817 14.1049 19.6898 14.1049Z" fill="white"/>
<path d="M19.0981 12.4705H19.6898C20.47 12.4705 21.1313 12.005 21.1313 11.4525V5.0439C21.1313 4.49281 20.47 4.02583 19.6898 4.02583H19.0981C18.3179 4.02583 17.658 4.49136 17.658 5.0439V9.23941V11.4525C17.658 12.0036 18.3179 12.4705 19.0981 12.4705Z" fill="white"/>
<path d="M10.7462 8.59116H11.3379C12.1196 8.59116 12.778 8.12564 12.778 7.5731V2.83085V1.16598C12.778 0.614893 12.1196 0.147919 11.3379 0.147919H10.7462C9.96599 0.147919 9.30469 0.614893 9.30469 1.16598V7.57455C9.30614 8.12564 9.96599 8.59116 10.7462 8.59116Z" fill="white"/>
<path d="M14.9229 10.256H15.5146C16.2948 10.256 16.9547 9.79051 16.9547 9.23797V5.0439V2.83085C16.9547 2.27976 16.2948 1.81279 15.5146 1.81279H14.9229C14.1412 1.81279 13.4814 2.27831 13.4814 2.83085V7.57456V9.23942C13.4814 9.79051 14.1412 10.256 14.9229 10.256Z" fill="white"/>
</g>
<defs>
<clipPath id="clip0">
<rect width="22" height="22" fill="white"/>
</clipPath>
</defs>
</svg>
