<svg width="22" height="22" viewBox="0 0 22 22" fill="none" xmlns="http://www.w3.org/2000/svg">
<g clip-path="url(#clip0)">
<path d="M4.41639 12.0601C4.54271 12.4722 4.67331 12.8984 4.73848 13.3276C4.76512 13.5025 4.86959 14.7749 4.92606 15.4739C4.9477 15.7417 5.1508 15.9595 5.41649 15.9997L6.3447 16.14C6.47853 16.1602 6.58526 16.2623 6.61132 16.3951L6.73362 17.0207C6.78678 17.2925 7.02508 17.4886 7.3021 17.4885L14.5003 17.4842C14.7725 17.484 15.0078 17.2943 15.0656 17.0283L15.2057 16.3843C15.2366 16.2572 15.3416 16.1617 15.4711 16.1429L16.6012 15.9787C16.8727 15.9393 17.0793 15.7147 17.0958 15.4408C17.1391 14.7215 17.22 13.4121 17.2451 13.2327C17.3045 12.8091 17.4296 12.3904 17.5503 11.983C17.7196 11.413 17.8946 10.8246 17.8946 10.2127C17.8948 6.30482 14.7887 3.12622 10.9708 3.12622C7.15295 3.12622 4.04681 6.30655 4.04681 10.2153C4.04685 10.8545 4.23471 11.4675 4.41639 12.0601ZM11.873 11.6995C11.9169 10.5895 12.9123 10.3104 14.0222 10.3543C15.1322 10.3982 15.9364 10.7485 15.8925 11.8584C15.8486 12.9684 14.9133 13.8326 13.8033 13.7887C12.6934 13.7448 11.8291 12.8095 11.873 11.6995ZM11.22 13.8775L11.9405 14.9444C12.0044 15.039 12.0131 15.1605 11.9634 15.2633L11.8601 15.4772C11.8066 15.588 11.6944 15.6583 11.5714 15.6583H10.9543H10.3372C10.2142 15.6583 10.102 15.588 10.0485 15.4772L9.94519 15.2633C9.89551 15.1605 9.90428 15.0391 9.96816 14.9444L10.6886 13.8775C10.8157 13.6893 11.0929 13.6893 11.22 13.8775ZM7.91928 10.3543C9.02924 10.3104 10.0246 10.5895 10.0685 11.6995C10.1124 12.8095 9.24816 13.7449 8.1382 13.7887C7.02825 13.8326 6.09289 12.9684 6.04899 11.8585C6.0051 10.7485 6.80932 10.3982 7.91928 10.3543Z" fill="white"/>
<path d="M19.9995 2.10691C20.0858 1.57668 19.9244 1.01392 19.5142 0.605837C18.8554 -0.049634 17.7807 -0.0615686 17.1083 0.579918C16.4052 1.25067 16.3953 2.36458 17.0785 3.0478L16.4505 3.67581C16.1996 3.92676 16.1996 4.33361 16.4505 4.58457L17.5218 5.65588C17.7727 5.90683 18.1796 5.90683 18.4305 5.65588L19.0585 5.02787C19.7418 5.71113 20.8557 5.70117 21.5264 4.99811C22.1679 4.32571 22.1559 3.25091 21.5004 2.59216C21.0924 2.182 20.5297 2.02056 19.9995 2.10691Z" fill="white"/>
<path d="M2.9414 5.02784L3.56941 5.65585C3.82036 5.9068 4.22722 5.9068 4.47813 5.65585L5.54945 4.58453C5.8004 4.33358 5.8004 3.92673 5.54945 3.67578L4.92144 3.04777C5.6047 2.36455 5.59474 1.25064 4.89168 0.579887C4.21927 -0.061564 3.14451 -0.0496293 2.48573 0.605841C2.0756 1.01392 1.91416 1.57668 2.00051 2.10691C1.47028 2.02056 0.907555 2.182 0.49944 2.59213C-0.15603 3.25087 -0.168001 4.32567 0.473486 4.99808C1.14423 5.70114 2.25815 5.71106 2.9414 5.02784Z" fill="white"/>
<path d="M21.5266 17.0018C20.8558 16.2987 19.7419 16.2889 19.0587 16.9721L18.4307 16.3441C18.1798 16.0931 17.7729 16.0931 17.522 16.3441L16.4507 17.4154C16.1998 17.6663 16.1998 18.0732 16.4507 18.3242L17.0787 18.9522C16.3954 19.6354 16.4054 20.7493 17.1085 21.4201C17.7809 22.0616 18.8557 22.0496 19.5144 21.3941C19.9246 20.9861 20.086 20.4233 19.9996 19.8931C20.5299 19.9794 21.0926 19.818 21.5007 19.4078C22.1561 18.749 22.168 17.6743 21.5266 17.0018Z" fill="white"/>
<path d="M2.00045 19.893C1.91411 20.4233 2.07555 20.986 2.48571 21.3941C3.14449 22.0496 4.21926 22.0615 4.89166 21.42C5.59472 20.7493 5.60464 19.6354 4.92142 18.9521L5.54943 18.3241C5.80038 18.0732 5.80038 17.6663 5.54943 17.4154L4.47811 16.3441C4.22716 16.0931 3.82031 16.0931 3.56939 16.3441L2.94139 16.9721C2.25813 16.2888 1.14422 16.2987 0.473504 17.0018C-0.167983 17.6742 -0.156049 18.749 0.499422 19.4078C0.9075 19.8179 1.47023 19.9794 2.00045 19.893Z" fill="white"/>
</g>
<defs>
<clipPath id="clip0">
<rect width="22" height="22" fill="white"/>
</clipPath>
</defs>
</svg>
