<svg width="22" height="22" viewBox="0 0 22 22" fill="none" xmlns="http://www.w3.org/2000/svg">
<g clip-path="url(#clip0)">
<path d="M6.55737 12.6608L1.79102 17.4272C0.949867 18.2683 0.949867 19.637 1.79102 20.4782C2.63218 21.3193 4.00086 21.3193 4.84202 20.4782L9.60837 15.7118L6.55737 12.6608ZM3.31757 19.5962C2.96162 19.5962 2.67304 19.3076 2.67304 18.9517C2.67304 18.5957 2.96162 18.3071 3.31757 18.3071C3.67353 18.3071 3.96211 18.5957 3.96211 18.9517C3.96211 19.3076 3.67353 19.5962 3.31757 19.5962Z" fill="white"/>
<path d="M15.087 7.30218C14.7927 6.41943 14.713 5.43863 14.847 4.37115L7.48914 11.729L12.2163 16.4561C12.468 16.7078 12.876 16.7078 13.1278 16.4561L15.6227 13.9612V11.1161C15.6227 11.0848 15.6235 11.0537 15.625 11.0225C15.6816 9.85379 15.4855 8.49779 15.087 7.30218Z" fill="white"/>
<path d="M19.4462 19.7289L18.7485 18.6436C18.6299 18.4591 18.4257 18.3476 18.2064 18.3476C17.987 18.3476 17.7828 18.4591 17.6642 18.6436L16.9665 19.7289C16.6747 20.1827 16.6541 20.7588 16.9126 21.2323C17.1711 21.7058 17.6669 22 18.2064 22C18.7459 22 19.2416 21.7058 19.5001 21.2323C19.7586 20.7587 19.7379 20.1827 19.4462 19.7289Z" fill="white"/>
<path d="M20.0834 0.405355C19.9115 -0.0242899 19.3564 -0.1382 19.0292 0.188964L16.5869 2.63127L16.5388 2.77551C16.0071 4.36931 15.9301 5.75518 16.3099 6.89463C16.7569 8.23572 16.9766 9.76305 16.9125 11.085L16.9119 15.0963C16.9119 15.8113 17.4914 16.3909 18.2064 16.3909C18.9213 16.3909 19.5008 15.8114 19.5008 15.0965V9.49797C20.2421 8.16302 20.6939 6.6595 20.8097 5.13832C20.9318 3.53524 20.6806 1.8986 20.0834 0.405355Z" fill="white"/>
</g>
<defs>
<clipPath id="clip0">
<rect width="22" height="22" fill="white"/>
</clipPath>
</defs>
</svg>
