<svg width="20" height="20" viewBox="0 0 20 20" fill="none" xmlns="http://www.w3.org/2000/svg">
<path d="M13.3558 18.0319V6.39731C13.3558 6.02296 13.0864 5.70896 12.7497 5.61717V4.18801C12.7497 2.66397 11.5423 0 10.0182 0H10.0042C8.48013 0 7.22787 2.66397 7.22787 4.18801V5.60216C6.82383 5.66869 6.55447 5.99899 6.55447 6.39731V18.0822C6.35245 18.2797 6.16161 18.5825 6.16161 18.9226C6.16161 19.5176 6.65521 20 7.25023 20H12.7721C13.3672 20 13.8383 19.5176 13.8383 18.9226C13.8384 18.5523 13.6925 18.2258 13.3558 18.0319ZM7.69925 17.6431V7.20539C7.69925 6.90788 7.94046 6.66667 8.23797 6.66667C8.53548 6.66667 8.77669 6.90788 8.77669 7.20539V17.6431C8.77669 17.9406 8.53548 18.1818 8.23797 18.1818C7.9404 18.1818 7.69925 17.9406 7.69925 17.6431Z" fill="#2496FF"/>
</svg>
