<svg width="20" height="21" viewBox="0 0 20 21" fill="none" xmlns="http://www.w3.org/2000/svg">
<g clip-path="url(#clip0)">
<path d="M16.0013 2.30348L14.2293 4.07549L16.4284 6.27463L18.2004 4.50262C18.5987 4.10329 18.9029 3.62036 19.0911 3.08878L20.0039 0.5L17.4151 1.4128C16.8835 1.60104 16.4006 1.90524 16.0013 2.30348Z" fill="white"/>
<path d="M12.1146 5.13975L15.3641 8.38926L16.0397 6.81317L13.6907 4.4642L12.1146 5.13975Z" fill="white"/>
<path d="M0.0039978 17.0294L1.32839 15.7049L4.79906 19.1755L3.47467 20.4999L0.0039978 17.0294Z" fill="white"/>
<path d="M1.79208 15.2413L11.5404 5.4928L15.0111 8.96347L5.26257 18.712L1.79208 15.2413Z" fill="white"/>
</g>
<defs>
<clipPath id="clip0">
<rect width="20" height="20" fill="white" transform="translate(0 0.5)"/>
</clipPath>
</defs>
</svg>
