<svg width="50" height="50" viewBox="0 0 50 50" fill="none" xmlns="http://www.w3.org/2000/svg">
<g clip-path="url(#clip0)">
<path d="M5.22035 25.7724H0C0.40654 38.9808 11.0193 49.5931 24.2273 49.9997V44.7793C13.925 44.3823 5.61784 36.0747 5.22035 25.7724Z" fill="white"/>
<path d="M19.4432 24.2273H24.2273V19.4432C21.7441 19.7924 19.7924 21.7441 19.4432 24.2273Z" fill="white"/>
<path d="M25.7724 43.2338C35.2228 42.838 42.838 35.2228 43.2338 25.7724H38.5721C38.1708 32.6685 32.6685 38.1708 25.7724 38.5721V43.2338Z" fill="white"/>
<path d="M25.7724 6.76633V11.428C32.6685 11.8289 38.1708 17.3316 38.5721 24.2273H43.2338C42.838 14.7773 35.2228 7.16209 25.7724 6.76633Z" fill="white"/>
<path d="M24.2273 30.5569V25.7724H19.4432C19.7924 28.256 21.7441 30.2077 24.2273 30.5569Z" fill="white"/>
<path d="M25.7724 44.7798V50.0001C38.9808 49.5931 49.5931 38.9808 49.9997 25.7724H44.7793C44.3823 36.0747 36.0751 44.3823 25.7724 44.7798Z" fill="white"/>
<path d="M25.7724 37.024C31.8149 36.6283 36.6283 31.8149 37.024 25.7724H32.1141C31.7468 29.1109 29.1109 31.7468 25.7724 32.1141V37.024Z" fill="white"/>
<path d="M11.4279 25.7724H6.7663C7.16206 35.2228 14.7772 42.838 24.2273 43.2338V38.5721C17.3316 38.1708 11.8289 32.6685 11.4279 25.7724Z" fill="white"/>
<path d="M17.886 25.7724H12.9761C13.3718 31.8149 18.1852 36.6283 24.2273 37.024V32.1141C20.8892 31.7468 18.2533 29.1109 17.886 25.7724Z" fill="white"/>
<path d="M32.1141 24.2273H37.024C36.6283 18.1852 31.8149 13.3718 25.7724 12.9761V17.886C29.1109 18.2533 31.7468 20.8892 32.1141 24.2273Z" fill="white"/>
<path d="M25.7724 24.2273H30.5569C30.2077 21.7441 28.256 19.7924 25.7724 19.4432V24.2273Z" fill="white"/>
<path d="M6.7663 24.2273H11.4279C11.8289 17.3316 17.3316 11.8289 24.2273 11.428V6.76633C14.7772 7.16209 7.16206 14.7773 6.7663 24.2273Z" fill="white"/>
<path d="M12.9761 24.2273H17.886C18.2533 20.8892 20.8892 18.2533 24.2273 17.886V12.9761C18.1852 13.3718 13.3718 18.1852 12.9761 24.2273Z" fill="white"/>
<path d="M0.000427246 24.2273H5.22078C5.61784 13.925 13.925 5.61784 24.2273 5.22035V0C11.0193 0.40654 0.406967 11.0193 0.000427246 24.2273Z" fill="white"/>
<path d="M25.7724 0.000427246V5.22078C36.0751 5.61784 44.3823 13.9254 44.7798 24.2277H50.0001C49.5936 11.0193 38.9808 0.406967 25.7724 0.000427246Z" fill="white"/>
<path d="M25.7724 30.5569C28.256 30.2077 30.2077 28.256 30.5569 25.7724H25.7724V30.5569Z" fill="white"/>
</g>
<defs>
<clipPath id="clip0">
<rect width="50" height="50" fill="white"/>
</clipPath>
</defs>
</svg>
